<?xml version="1.0" standalone="no"?>
<!DOCTYPE svg PUBLIC "-//W3C//DTD SVG 1.1//EN" "http://www.w3.org/Graphics/SVG/1.1/DTD/svg11.dtd" >
<svg>
<metadata>
Created by FontForge 20090914 at Wed Sep 26 09:57:50 2018
 By www-data
Copyright (c) Ivan Zeifert works, 2005. All rights reserved.
</metadata>
<defs>
<font id="AcquestScript" horiz-adv-x="500" >
  <font-face 
    font-family="Acquest Script"
    font-weight="400"
    font-stretch="normal"
    units-per-em="1000"
    panose-1="2 0 5 5 0 0 0 2 0 4"
    ascent="800"
    descent="-200"
    x-height="221"
    cap-height="614"
    bbox="-386.163 -996.002 1859.29 996.999"
    underline-thickness="50"
    underline-position="-50"
    unicode-range="U+0020-U+201E"
  />
<missing-glyph horiz-adv-x="289" 
 />
    <glyph glyph-name=".notdef" horiz-adv-x="289" 
 />
    <glyph glyph-name="space" unicode=" " horiz-adv-x="289" 
 />
    <glyph glyph-name="exclam" unicode="!" horiz-adv-x="250" 
d="M105 122l-12.001 312c-1.33301 44 9 65.667 31 65c24.667 0.666992 36.334 -21 35.001 -65l-13 -312c-14 -23.333 -27.667 -23.333 -41 0zM158.999 25c-0.666992 -22 -12.333 -33.667 -35 -35c-19.333 2 -29.666 13.667 -30.999 35c1.33301 22 11.666 33.667 30.999 35
c21.333 -2 33 -13.667 35 -35z" />
    <glyph glyph-name="quotedbl" unicode="&#x22;" horiz-adv-x="420" 
d="M219 356l-10.999 -0.000976562l1 9l-5 31c-6.66699 26.667 -10.334 47 -11.001 61c-1.33301 25.333 8.33398 39.333 29.001 42c18.667 -2 27 -15.667 25 -41c-1.33301 -25.333 -6 -46 -14 -62c-8.66699 -17.333 -13.334 -30.666 -14.001 -39.999zM120.001 355.999
l-10.999 -0.000976562l1 9l-5 31c-6.66699 26.667 -10.334 47 -11.001 61c0 29.333 9.66699 43.333 29 42c18.667 0 27.334 -13.667 26.001 -41c-1.33301 -25.333 -6.33301 -46 -15 -62c-8.66699 -17.333 -13.334 -30.666 -14.001 -39.999z" />
    <glyph glyph-name="numbersign" unicode="#" horiz-adv-x="443" 
d="M258 174v69h-69v-69h69zM290 140v-140h-30v140h-71v-140h-37v140h-122v34h123v69h-123v32h124l-1 176h36v-175h71v175h30v-175h123v-33h-123v-69h123v-34h-123z" />
    <glyph glyph-name="dollar" unicode="$" horiz-adv-x="352" 
d="M155 414c-15.333 -5.33301 -27.333 -21.334 -36 -48.001c-5.33301 -17.333 -5 -34.166 1 -50.499s17.667 -28.5 35 -36.5v135zM189 29.999l15.498 7.49707c5 2.33301 11.5 7.16602 19.5 14.499c8 6.66699 14.167 15.5 18.5 26.5s7.33301 22.833 9 35.5
s1.83398 25.334 0.500977 38.001s-3.66602 24.334 -6.99902 35.001c-6 12.667 -13.333 22.834 -22 30.501s-20 12.834 -34 15.501v-203zM188.998 -30.0039l-33.998 0.00488281v30c-18 0 -35.167 2.5 -51.5 7.5s-31 11.833 -44 20.5s-24.167 18.834 -33.5 30.501
s-16 24.167 -20 37.5c-6.66699 21.333 -6.33398 38.666 0.999023 51.999s20 20 38 20c13.333 0 25.5 -4.33301 36.5 -13s18.833 -19.334 23.5 -32.001c3.33301 -10 3.83301 -18.5 1.5 -25.5s-7.83301 -11.5 -16.5 -13.5l-9 -2c-4.66699 -4.66699 -5.66699 -10.667 -3 -18
c3.33301 -10.667 12.333 -19.834 27 -27.501s31.334 -11.5 50.001 -11.5v217c-25.333 6.66699 -44 13.5 -56 20.5s-22 14.833 -30 23.5c-9.33301 9.33301 -15 21.666 -17 36.999s-0.666992 30 4 44c5.33301 17.333 13.333 31.5 24 42.5s21.667 19.5 33 25.5
c12.667 7.33301 26.667 12.666 42 15.999v29h34v-29c22 -4 40.167 -11.833 54.5 -23.5s28.833 -31.167 43.5 -58.5l-30 -17c-5.33301 15.333 -11.833 27.333 -19.5 36s-15.167 15.167 -22.5 19.5s-13.5 6.83301 -18.5 7.5s-7.5 0.666992 -7.5 0v-147c4 -2 12 -5 24 -9
s21.667 -7.33301 29 -10c21.333 -7.33301 39.666 -17.5 54.999 -30.5s24.666 -27.167 27.999 -42.5c6.66699 -22.667 6 -45.667 -2 -69s-22 -44 -42 -62c-16.667 -14.667 -33.167 -25.334 -49.5 -32.001s-30.5 -10.667 -42.5 -12v-31z" />
    <glyph glyph-name="percent" unicode="%" horiz-adv-x="525" 
d="M493 63c-4 -7.33301 -8.83203 -15.334 -14.499 -24.001s-13.5 -16 -23.5 -22c-9.33301 -6.66699 -19.166 -11.167 -29.499 -13.5s-22.166 -3.5 -35.499 -3.5c-39.333 0 -69.333 17 -90 51c-12.667 19.333 -18.334 40.666 -17.001 63.999s9.33301 44 24 62
c4.66699 7.33301 10.167 13.333 16.5 18s12.166 9.66699 17.499 15c18.667 14 38 21 58 21c19.333 0 37.166 -5.16699 53.499 -15.5s30.166 -24.5 41.499 -42.5c2.66699 -5.33301 4.83398 -12.166 6.50098 -20.499s2.5 -17.666 2.5 -27.999s-0.666992 -20.833 -2 -31.5
s-4 -20.667 -8 -30zM449.001 57.999c6.66699 10.667 9.66699 22.833 9 36.5s-1 29.167 -1 46.5c-3.33301 14 -7.66602 25.167 -12.999 33.5s-10 14.833 -14 19.5c-4.66699 4.66699 -8.66699 7.5 -12 8.5s-7.66602 1.5 -12.999 1.5s-10.5 -1 -15.5 -3s-9.16699 -5 -12.5 -9
l-7 -8.5c-2 -2.33301 -4 -5.5 -6 -9.5c-7.33301 -12.667 -12 -27.667 -14 -45c-3.33301 -32.667 1 -58.667 13 -78c9.33301 -14.667 21.333 -22 36 -22c7.33301 0 16.166 2.66699 26.499 8s18.166 12.333 23.499 21zM415.001 500.998l-255 -501h-47l255 501h47z
M211.001 333.998c-4 -7.33301 -8.83203 -15.334 -14.499 -24.001s-13.5 -16 -23.5 -22c-9.33301 -6.66699 -19.166 -11.167 -29.499 -13.5s-22.166 -3.5 -35.499 -3.5c-39.333 0 -69.333 17 -90 51c-12.667 19.333 -18.334 40.666 -17.001 63.999s9.33301 44 24 62
c4.66699 7.33301 10.167 13.333 16.5 18s12.166 9.66699 17.499 15c18.667 14 38 21 58 21c19.333 0 37.166 -5.16699 53.499 -15.5s30.166 -24.5 41.499 -42.5c2.66699 -5.33301 4.83398 -12.166 6.50098 -20.499s2.5 -17.666 2.5 -27.999s-0.666992 -20.833 -2 -31.5
s-4 -20.667 -8 -30zM167.002 328.997c6.66699 10.667 9.66699 22.833 9 36.5s-1 29.167 -1 46.5c-3.33301 14 -7.66602 25.167 -12.999 33.5s-10 14.833 -14 19.5c-4.66699 4.66699 -8.66699 7.5 -12 8.5s-7.66602 1.5 -12.999 1.5s-10.5 -1 -15.5 -3s-9.16699 -5 -12.5 -9
l-7 -8.5c-2 -2.33301 -4 -5.5 -6 -9.5c-7.33301 -12.667 -12 -27.667 -14 -45c-3.33301 -32.667 1 -58.667 13 -78c9.33301 -14.667 21.333 -22 36 -22c7.33301 0 16.166 2.66699 26.499 8s18.166 12.333 23.499 21z" />
    <glyph glyph-name="ampersand" unicode="&#x26;" horiz-adv-x="435" 
d="M195 299l-28.498 -24.001c-7.66699 -6.66699 -14.334 -13.167 -20.001 -19.5s-10.834 -13.5 -15.501 -21.5s-9.33398 -17.333 -14.001 -28c-11.333 -24.667 -16.833 -47.834 -16.5 -69.501s5.33301 -40.667 15 -57s23.834 -29.166 42.501 -38.499s41.334 -14 68.001 -14
c24.667 0.666992 46.667 7.33398 66 20.001s36.666 26 51.999 40zM428.002 18.999l-22.9932 -18.001l-45 62c-20 -18 -41.833 -33.167 -65.5 -45.5s-54.834 -18.166 -93.501 -17.499c-46 0 -83.833 10.333 -113.5 31s-46.834 47 -51.501 79
c-3.33301 24 0.666992 48.667 12 74c12 26 30 51 54 75c9.33301 8.66699 19.666 17.334 30.999 26.001l46 36c-15.333 18.667 -26.333 38.167 -33 58.5s-10 39.666 -10 57.999s3 34.833 9 49.5s14 26.334 24 35.001c14.667 14.667 29.167 24.167 43.5 28.5
s27.666 5.5 39.999 3.5s23.666 -5.83301 33.999 -11.5s18.833 -11.167 25.5 -16.5c8.66699 -7.33301 15.167 -16 19.5 -26s7 -19.833 8 -29.5s1 -18.834 0 -27.501s-2.83301 -15 -5.5 -19c-8 -18 -21.833 -36.167 -41.5 -54.5s-42.834 -35.166 -69.501 -50.499l142 -206
c11.333 13.333 19.333 24.166 24 32.499s9.66699 18.833 15 31.5l24 -11c-8 -17.333 -14.833 -31.5 -20.5 -42.5s-13.834 -22.833 -24.501 -35.5zM268.009 401.998c15.333 21.333 19.333 42.6699 12 64.0029c0 5.33301 -3 11.666 -9 18.999s-13.667 13.166 -23 17.499
s-19.5 6 -30.5 5s-21.833 -7.5 -32.5 -19.5c-7.33301 -6.66699 -12 -16.5 -14 -29.5s-2 -26.833 0 -41.5s5.83301 -29 11.5 -43s13.167 -25 22.5 -33l21 16.5c5.33301 4.33301 10 8.66602 14 12.999l12.5 13.5c4.33301 4.66699 9.5 10.667 15.5 18z" />
    <glyph glyph-name="quotesingle" unicode="'" horiz-adv-x="144" 
d="M80 355l-11 -0.000976562c0.666992 2.66699 1 4.83398 1 6.50098s0.666992 12.834 2 33.501c2.66699 37.333 7 63.666 13 78.999c6.66699 16 17 24 31 24c12 0 18 -6.33301 18 -19s-6 -31 -18 -55l-15 -29c-6 -12.667 -13 -26 -21 -40z" />
    <glyph glyph-name="parenleft" unicode="(" horiz-adv-x="226" 
d="M194 516l16.999 -11.001c-40 -46.667 -67.667 -105 -83 -175c-8 -40 -11 -79.667 -9 -119c0.666992 -43.333 5.33398 -83.666 14.001 -120.999c7.33301 -34.667 27 -86.667 59 -156l-21 1c-29.333 46 -51.333 84.667 -66 116c-20 40 -33 81.667 -39 125
c-8.66699 56 -4.66699 113.333 12 172c27.333 72 66 128 116 168z" />
    <glyph glyph-name="parenright" unicode=")" horiz-adv-x="246" 
d="M70 516c50 -40 88.666 -95.998 115.999 -167.998c16.667 -58.667 20.667 -116 12 -172c-12.667 -48.667 -25.667 -88.334 -39 -119.001c-14.667 -39.333 -35.667 -80 -63 -122l-24 -1c32 69.333 51.667 121.333 59 156c8.66699 37.333 13.334 77.666 14.001 120.999
c2 39.333 -1 79 -9 119c-15.333 70 -43 128.333 -83 175l17 11v0z" />
    <glyph glyph-name="asterisk" unicode="*" horiz-adv-x="365" 
d="M301 414c-2.66699 -20.667 -12.002 -37 -28.002 -49c-27.333 27.333 -51.666 48.666 -72.999 63.999l-11 -7c-0.666992 -11.333 5.33301 -42.666 18 -93.999c-10 -3.33301 -19.667 -5 -29 -5s-18.666 1.66699 -27.999 5c11.333 40 17.333 71.667 18 95l-7 5
c-18.667 -14 -41.667 -35.333 -69 -64c-19.333 11.333 -30 27 -32 47c25.333 6 56 17 92 33l3 12c-32 15.333 -63 26.666 -93 33.999c0 22.667 9.33301 39 28 49c22.667 -25.333 47 -47.333 73 -66l8 6c-2.66699 23.333 -9.33398 55 -20.001 95c9.33301 4 19 6 29 6
c10.667 0 19.667 -2 27 -6c-8 -31.333 -13.333 -63 -16 -95l11 -9c40.667 36 64 58 70 66c16.667 -9.33301 26.334 -24.666 29.001 -45.999c-32 -8 -62 -20.333 -90 -37v-7c40 -17.333 70 -28 90 -32z" />
    <glyph glyph-name="plus" unicode="+" horiz-adv-x="252" 
d="M145 130h75v-33h-75v-71h-33v71h-71v33h71v75h33v-75z" />
    <glyph glyph-name="comma" unicode="," horiz-adv-x="264" 
d="M97 -116l-6.99902 9.00098c35.333 28 52 52.333 50 73c-2 9.33301 -7 17.333 -15 24c-12 9.33301 -18.333 19.666 -19 30.999c-2 10.667 0.333008 20 7 28c4.66699 7.33301 12 11 22 11c19.333 0 31 -14 35 -42c2 -23.333 -3.66699 -47 -17 -71
c-12.667 -24 -31.334 -45 -56.001 -63z" />
    <glyph glyph-name="hyphen" unicode="-" horiz-adv-x="252" 
d="M220 97h-179v33h179v-33z" />
    <glyph glyph-name="period" unicode="." horiz-adv-x="247" 
d="M156 25c-0.666992 -22 -12.333 -33.667 -35 -35c-19.333 2 -29.666 13.667 -30.999 35c1.33301 22 11.666 33.667 30.999 35c21.333 -2 33 -13.667 35 -35z" />
    <glyph glyph-name="slash" unicode="/" horiz-adv-x="280" 
d="M358 568l-350 -687h-48l353 689z" />
    <glyph glyph-name="zero" unicode="0" horiz-adv-x="400" 
d="M279 25c-29.333 -16.667 -61.335 -25 -96.002 -25c-36 -0 -68.833 10.333 -98.5 31s-52.167 49 -67.5 85c-8 24.667 -12.5 51.667 -13.5 81s2.16699 57.666 9.5 84.999c9.33301 30.667 22.5 57.834 39.5 81.501s36.833 42.834 59.5 57.501
c14.667 9.33301 29.834 16.166 45.501 20.499s31.167 6.5 46.5 6.5c36 0 67.833 -9.83301 95.5 -29.5s48.167 -49.167 61.5 -88.5c10.667 -32 15.5 -64.667 14.5 -98s-6.83301 -66.333 -17.5 -99c-9.33301 -25.333 -20.666 -46.833 -33.999 -64.5s-28.333 -32.167 -45 -43.5
zM284.998 116c2.66699 12 4.83301 27 6.5 45s2.33398 36.833 2.00098 56.5s-1.83301 39.334 -4.5 59.001s-6.66699 37.5 -12 53.5c-9.33301 28.667 -21 49.167 -35 61.5s-28.667 18.5 -44 18.5c-15.333 0.666992 -31.833 -6 -49.5 -20s-31.167 -34.333 -40.5 -61
c-5.33301 -16 -9.16602 -33.833 -11.499 -53.5s-3.33301 -39.167 -3 -58.5s2 -37.833 5 -55.5s7.16699 -32.834 12.5 -45.501c10 -24.667 23.167 -43.667 39.5 -57s33.5 -20 51.5 -20c19.333 0 36.666 7.83301 51.999 23.5s25.666 33.5 30.999 53.5z" />
    <glyph glyph-name="one" unicode="1" horiz-adv-x="278" 
d="M83 310l31 29c8.66699 8 17 16.833 25 26.5s16.833 21 26.5 34s21.5 30.167 35.5 51.5h19l-4 -451l-82 1l13 309c-19.333 -21.333 -38.166 -38.5 -56.499 -51.5s-40.5 -26.167 -66.5 -39.5l-24 24l44.5 34c12.333 9.33301 25.166 20.333 38.499 33z" />
    <glyph glyph-name="two" unicode="2" horiz-adv-x="344" 
d="M153 84c14.667 -5.33301 25.999 -9.8291 33.999 -13.4961s14.833 -6.66699 20.5 -9s11.334 -4.16602 17.001 -5.49902s13.5 -2.66602 23.5 -3.99902c8 0 17.667 4.16699 29 12.5s22.666 19.833 33.999 34.5l21 -18l-8 -9c-12 -14 -22.667 -25.833 -32 -35.5
s-17.666 -17.5 -24.999 -23.5s-14.333 -10.167 -21 -12.5s-13.667 -3.5 -21 -3.5c-10.667 0 -21.834 1.33301 -33.501 4s-23.834 6.33398 -36.501 11.001c-15.333 4.66699 -26.833 8.83398 -34.5 12.501l-19 9c-5 2.33301 -10 4 -15 5s-12.167 1.5 -21.5 1.5
c-10 0 -17.667 -3.16699 -23 -9.5s-10.333 -16.5 -15 -30.5l-25 10c4 18.667 8.16699 34.834 12.5 48.501s9.83301 26 16.5 37s14.834 20.833 24.501 29.5s22.167 17 37.5 25l69 40c32 18 53.833 38.5 65.5 61.5s12.834 49.5 3.50098 79.5
c-7.33301 25.333 -19.5 45.666 -36.5 60.999s-35.833 23 -56.5 23c-8.66699 0 -16.834 -1.83301 -24.501 -5.5s-14.334 -8.16699 -20.001 -13.5s-9.83398 -11.333 -12.501 -18s-3 -13.334 -1 -20.001c0.666992 -3.33301 2.5 -6.66602 5.5 -9.99902s5.5 -5.33301 7.5 -6
c1.33301 0 3 -0.833008 5 -2.5s5.33301 -2.83398 10 -3.50098c7.33301 -2.66699 13.833 -7.33398 19.5 -14.001s9.16699 -13.667 10.5 -21c4.66699 -12.667 3.66699 -23.334 -3 -32.001s-16.667 -13 -30 -13c-15.333 0 -29.5 5.5 -42.5 16.5s-22.167 25.5 -27.5 43.5
c-6 17.333 -7.33301 34.166 -4 50.499s10.333 30.666 21 42.999s24.167 22.333 40.5 30s35.166 11.5 56.499 11.5c36.667 0 68.834 -11.333 96.501 -34s46.834 -51.334 57.501 -86.001c6 -19.333 8.5 -36.833 7.5 -52.5s-6 -30.334 -15 -44.001
s-22.167 -26.334 -39.5 -38.001s-39 -23.167 -65 -34.5c-16 -6.66699 -29.5 -12.5 -40.5 -17.5s-20.833 -9.83301 -29.5 -14.5s-16.5 -9.5 -23.5 -14.5s-13.833 -10.5 -20.5 -16.5c10.667 1.33301 22.834 0.5 36.501 -2.5s26.834 -7.16699 39.501 -12.5z" />
    <glyph glyph-name="three" unicode="3" horiz-adv-x="352" 
d="M187 451c26.667 0 50.0029 -8.16504 70.0029 -24.498s33.333 -36.166 40 -59.499c4.66699 -14 5 -28.667 1 -44s-12.667 -28.666 -26 -39.999c-4.66699 -3.33301 -8.66699 -6.33301 -12 -9s-11 -7.66699 -23 -15c24 -5.33301 43.5 -14 58.5 -26s26.167 -29.667 33.5 -53
c6.66699 -22.667 6.33398 -45.834 -0.999023 -69.501s-23 -45.5 -47 -65.5c-16.667 -14.667 -35.334 -25.834 -56.001 -33.501s-41.667 -11.5 -63 -11.5c-18 0 -35.5 2.5 -52.5 7.5s-32.5 11.833 -46.5 20.5s-26 18.834 -36 30.501s-17 24.167 -21 37.5
c-6.66699 21.333 -6.33398 38.666 0.999023 51.999s20 20 38 20c13.333 0 25.5 -4.33301 36.5 -13s18.833 -19.334 23.5 -32.001c3.33301 -10 3.83301 -18.5 1.5 -25.5s-7.83301 -11.5 -16.5 -13.5l-9 -2c-4.66699 -4.66699 -5.66699 -10.667 -3 -18
c3.33301 -10.667 13 -20 29 -28s33.333 -12 52 -12c12 0 23.5 2.66699 34.5 8s20.167 12 27.5 20c6.66699 8 12.334 17.667 17.001 29s8 23 10 35s2.83301 24.167 2.5 36.5s-2.16602 23.833 -5.49902 34.5c-4.66699 15.333 -12.5 27.5 -23.5 36.5s-24.167 13.5 -39.5 13.5
c-1.33301 0 -3.83301 -0.333008 -7.5 -1s-7.83398 -1 -12.501 -1l-9 24c8.66699 1.33301 15.5 2.66602 20.5 3.99902s12.833 2.66602 23.5 3.99902c15.333 13.333 26.666 28.833 33.999 46.5s8.33301 35.167 3 52.5c-4.66699 13.333 -12.834 24.833 -24.501 34.5
s-24.834 14.5 -39.501 14.5c-15.333 0 -29 -5.66699 -41 -17s-23 -26.666 -33 -45.999l-30 17c28.667 54.667 69 82 121 82z" />
    <glyph glyph-name="four" unicode="4" horiz-adv-x="398" 
d="M86 130h140l11 202zM280 451h18.999l-1 -317h24c8 0.666992 14.667 1.16699 20 1.5s10.5 1.33301 15.5 3s10.333 4 16 7l22.5 12.5l2 -3l-31 -61h-64l-2 -186l-84 -1l12 184h-82.5c-23 0 -43.167 0.166992 -60.5 0.5s-32.666 0.5 -45.999 0.5h-40z" />
    <glyph glyph-name="five" unicode="5" horiz-adv-x="327" 
d="M268 439c-8 -26 -18.668 -44.3369 -32.001 -55.0039s-30.666 -16 -51.999 -16c-11.333 0 -22.833 0.666992 -34.5 2s-27.5 4.66602 -47.5 9.99902v-91c4 1.33301 7.83301 2 11.5 2h8.5c16.667 0 33.334 -2.5 50.001 -7.5s32.667 -12 48 -21s29.5 -19.667 42.5 -32
s23.833 -26.166 32.5 -41.499c14 -25.333 20.333 -50.333 19 -75s-10.333 -46.667 -27 -66c-14 -15.333 -29.667 -27.166 -47 -35.499s-38.333 -12.5 -63 -12.5c-17.333 0 -34.333 2.16699 -51 6.5s-32.5 10.5 -47.5 18.5s-28.667 17.5 -41 28.5
s-22.166 23.167 -29.499 36.5c-9.33301 16.667 -12.333 30.834 -9 42.501s12.666 17.5 27.999 17.5c13.333 0 25.666 -3.16699 36.999 -9.5s20.666 -15.833 27.999 -28.5c5.33301 -10 7.83301 -18.5 7.5 -25.5s-4.16602 -11.5 -11.499 -13.5
c-3.33301 -3.33301 -5.33301 -5.5 -6 -6.5s0.333008 -3.83301 3 -8.5c6 -11.333 16.5 -20 31.5 -26s30.833 -9 47.5 -9c14 0 26.333 3.16699 37 9.5s18.334 16.5 23.001 30.5c7.33301 18.667 10.166 38.834 8.49902 60.501s-8.16699 42.834 -19.5 63.501
c-11.333 19.333 -26.166 34.666 -44.499 45.999s-38.5 17 -60.5 17c-6.66699 0 -12.334 -0.833008 -17.001 -2.5s-8.66699 -3.5 -12 -5.5c-2.66699 -0.666992 -5.33398 -1 -8.00098 -1h-6c-7.33301 0 -12.333 3 -15 9c-4.66699 8 -6 14.5 -4 19.5s8.66699 11.5 20 19.5
l-2 161l21 -2l1 -5c20 -9.33301 40 -16.166 60 -20.499s36 -6.5 48 -6.5c14 0 24.833 2.5 32.5 7.5s13.834 13.833 18.501 26.5z" />
    <glyph glyph-name="six" unicode="6" horiz-adv-x="361" 
d="M254 111c3.33301 23.333 4.66992 45.167 4.00293 65.5s-5.33398 39.5 -14.001 57.5c-7.33301 15.333 -15.833 26.666 -25.5 33.999s-22.167 11 -37.5 11c-18.667 0 -35.334 -8 -50.001 -24c-14 -14.667 -24.667 -34.334 -32 -59.001
c-5.33301 -19.333 -7.5 -39.166 -6.5 -59.499s5.16699 -38.166 12.5 -53.499c7.33301 -16 18 -28.833 32 -38.5s29.667 -14.5 47 -14.5c10.667 0 20.167 2.33301 28.5 7s15.333 11 21 19s10.167 16.833 13.5 26.5s5.66602 19.167 6.99902 28.5zM243.004 13.001
c-9.33301 -4 -18.6689 -7.16895 -28.002 -9.50195s-19.333 -3.5 -30 -3.5c-33.333 0 -63.666 9.33301 -90.999 28s-49.333 45.667 -66 81c-10 21.333 -17 45.166 -21 71.499s-5.33301 54.166 -4 83.499s5.33301 59.5 12 90.5s15.667 61.5 27 91.5c10.667 32 24.667 62 42 90
c38 64.667 86.667 114.667 146 150s124.333 53 195 53c54 0 102 -11.333 144 -34s72.333 -53.667 91 -93c4.66699 -10.667 7.16699 -20.167 7.5 -28.5s-0.166992 -17.166 -1.5 -26.499l-15 8c0.666992 8 0.833984 15.5 0.500977 22.5s-2.83301 15.167 -7.5 24.5
c-14.667 32 -40.334 57.333 -77.001 76s-78 28 -124 28c-45.333 0 -87.333 -8.66699 -126 -26s-73.5 -42 -104.5 -74s-57.333 -70.5 -79 -115.5s-37.5 -94.833 -47.5 -149.5c-4 -21.333 -7.33301 -43.5 -10 -66.5s-3.66699 -46.833 -3 -71.5c4.66699 18 10.5 33.333 17.5 46
s14.833 23.334 23.5 32.001c9.33301 9.33301 20 16 32 20s25.667 6 41 6c27.333 0 53 -8.16699 77 -24.5s42 -37.166 54 -62.499c12 -26.667 17.333 -54.5 16 -83.5s-9.66602 -55.167 -24.999 -78.5c-8.66699 -12.667 -18.667 -23.667 -30 -33s-23.333 -16.666 -36 -21.999z
" />
    <glyph glyph-name="seven" unicode="7" horiz-adv-x="335" 
d="M58 524c4.66699 -8.66699 8.33203 -16.166 10.999 -22.499s4.83398 -12.333 6.50098 -18s2.83398 -11.5 3.50098 -17.5s1 -13 1 -21h15c6 0 11.5 -0.333008 16.5 -1s10.667 -2 17 -4s13.666 -5.16699 21.999 -9.5l32.5 -17.5c13.333 -7.33301 23 -12 29 -14s13 -3 21 -3
c33.333 0 52 18.333 56 55h24c-3.33301 -23.333 -6.33301 -43.333 -9 -60s-5 -30.667 -7 -42c-6 -22.667 -12.833 -50.167 -20.5 -82.5s-15.5 -67.5 -23.5 -105.5l-24.5 -118c-8.33301 -40.667 -16.166 -80.667 -23.499 -120l-20 -111.5c-6 -35 -10.667 -65.833 -14 -92.5
h-98l68 235l47 162l30 104.5l17.5 63.5c4.33301 16 7.66602 28.667 9.99902 38l7.5 29c-8 -4 -14.167 -6.66699 -18.5 -8s-11.166 -2 -20.499 -2c-8.66699 0.666992 -16.334 1.5 -23.001 2.5s-13.167 3 -19.5 6s-13.333 6.83301 -21 11.5l-28.5 18
c-10.667 7.33301 -19 12.333 -25 15s-11.667 4 -17 4h-3.5c-1.66699 0 -3.16699 -0.666992 -4.5 -2c-2 -13.333 -7 -23.333 -15 -30s-17.333 -10 -28 -10c-11.333 0 -19.333 4.66699 -24 14c-6.66699 13.333 -6.5 25.666 0.5 36.999s20.167 21 39.5 29
c6 17.333 8.83301 32 8.5 44s-4.5 26.667 -12.5 44h17z" />
    <glyph glyph-name="eight" unicode="8" horiz-adv-x="344" 
d="M222 9c-6 -2 -13.832 -3.99902 -23.499 -5.99902s-18.167 -3 -25.5 -3c-38 0 -70.833 8 -98.5 24s-47.834 38.333 -60.501 67c-16 36 -15 68.667 3 98s50 53.333 96 72c7.33301 2.66699 13.5 5.16699 18.5 7.5s10.167 4.16602 15.5 5.49902l-15 10l-32.5 24.5
c-10.333 7.66699 -20.166 15.834 -29.499 24.501c-24 24 -42 49 -54 75c-11.333 25.333 -15.333 50 -12 74c4.66699 32 21.834 58.333 51.501 79s67.5 31 113.5 31c28 0 54 -4.16699 78 -12.5s51.333 -22.5 82 -42.5l-8 -15c-26 16 -48.5 27.167 -67.5 33.5
s-38.833 9.5 -59.5 9.5c-26.667 0 -49.334 -4.66699 -68.001 -14s-32.834 -22.166 -42.501 -38.499s-14.667 -35.333 -15 -57s5.16699 -44.834 16.5 -69.501c4.66699 -11.333 9.66699 -21.333 15 -30s11.333 -17 18 -25s14.5 -15.667 23.5 -23s19.833 -15.333 32.5 -24
c33.333 14.667 54.833 29.334 64.5 44.001s10.167 32 1.5 52c-6 13.333 -15.833 24.166 -29.5 32.499s-27.5 12.5 -41.5 12.5c-5.33301 0 -10.166 -0.5 -14.499 -1.5s-9.83301 -4.16699 -16.5 -9.5l-8 10c7.33301 8 16.5 14.333 27.5 19s25.167 7 42.5 7
c11.333 0 22.666 -1.83301 33.999 -5.5s21.833 -8.66699 31.5 -15s18.334 -13.666 26.001 -21.999s13.5 -16.833 17.5 -25.5c11.333 -24.667 8.66602 -46.334 -8.00098 -65.001s-49.667 -36.667 -99 -54c26.667 -15.333 48 -30.5 64 -45.5s28 -31.5 36 -49.5
s12 -35.5 12 -52.5s-3.5 -32.5 -10.5 -46.5s-17.5 -26.333 -31.5 -37s-30.667 -18.334 -50 -23.001zM214.001 33.001c22.667 7.33301 35.002 24.998 37.002 52.998s-5 60 -21 96c-3.33301 7.33301 -6.5 13.833 -9.5 19.5s-6.66699 11.167 -11 16.5s-9.33301 10.5 -15 15.5
s-12.834 10.833 -21.501 17.5c-11.333 -3.33301 -19.833 -6.66602 -25.5 -9.99902l-22.5 -13c-23.333 -15.333 -38.833 -35.166 -46.5 -59.499s-5.83398 -48.833 5.49902 -73.5c8.66699 -20 22.167 -36 40.5 -48s37.833 -18 58.5 -18c4 0 9.33301 0.333008 16 1
s11.667 1.66699 15 3z" />
    <glyph glyph-name="nine" unicode="9" horiz-adv-x="355" 
d="M294 19c-15.333 -36.667 -33.8408 -69.8271 -55.5078 -99.4941s-45.5 -54.834 -71.5 -75.501s-53.833 -36.667 -83.5 -48s-60.167 -17 -91.5 -17c-35.333 0 -66.5 7.16699 -93.5 21.5s-47.167 34.833 -60.5 61.5c-7.33301 15.333 -11.5 29.666 -12.5 42.999
s1.83301 28.666 8.5 45.999l16 -9c-3.33301 -11.333 -5.16602 -21.5 -5.49902 -30.5s2.16699 -18.5 7.5 -28.5c11.333 -24 30.833 -43.333 58.5 -58s57.167 -22 88.5 -22c32 0 61.833 7.33301 89.5 22s52.167 35.334 73.5 62.001s39.5 58.5 54.5 95.5
s26.167 77.833 33.5 122.5c2.66699 20 4.83398 39 6.50098 57s1.83398 38.333 0.500977 61c-5.33301 -13.333 -10.666 -23.833 -15.999 -31.5s-11.666 -15.5 -18.999 -23.5c-9.33301 -10 -21.166 -17.5 -35.499 -22.5s-29.166 -7.5 -44.499 -7.5
c-28 0 -53.167 6.66699 -75.5 20s-39.5 32.333 -51.5 57c-11.333 24 -17.5 48.5 -18.5 73.5s3.16699 48.5 12.5 70.5c8 17.333 18.333 32.666 31 45.999s27 23.666 43 30.999c9.33301 5.33301 19.5 9 30.5 11s22.167 3 33.5 3c32 0 62 -9.66699 90 -29s49.667 -45 65 -77
c10 -20.667 17.5 -43.834 22.5 -69.501s7.33301 -52.667 7 -81s-3.66602 -57.333 -9.99902 -87s-15.5 -58.834 -27.5 -87.501zM201.992 193.007c4 3.33301 7.49902 7.32812 10.499 11.9951s5.83301 9.33398 8.5 14.001c4.66699 10.667 8.33398 22.334 11.001 35.001
s3.83398 25.667 3.50098 39s-2 26.5 -5 39.5s-7.16699 24.833 -12.5 35.5c-15.333 34 -37.333 51 -66 51h-4c-11.333 1.33301 -23.5 -1.66699 -36.5 -9s-23.5 -18.666 -31.5 -33.999c-5.33301 -11.333 -9 -23.5 -11 -36.5s-2.83301 -26.5 -2.5 -40.5s2 -27.667 5 -41
s7.16699 -25.666 12.5 -36.999c7.33301 -15.333 17.333 -27.666 30 -36.999s26.667 -14 42 -14c8.66699 0 16.667 2 24 6s14.666 9.66699 21.999 17z" />
    <glyph glyph-name="colon" unicode=":" horiz-adv-x="247" 
d="M156 193c-0.666992 -22 -12.333 -33.667 -35 -35c-19.333 2 -29.666 13.667 -30.999 35c1.33301 22 11.666 33.667 30.999 35c21.333 -2 33 -13.667 35 -35zM156.001 25c-0.666992 -22 -12.333 -33.667 -35 -35c-19.333 2 -29.666 13.667 -30.999 35
c1.33301 22 11.666 33.667 30.999 35c21.333 -2 33 -13.667 35 -35z" />
    <glyph glyph-name="semicolon" unicode=";" horiz-adv-x="264" 
d="M97 -116l-6.99902 9.00098c35.333 28 52 52.333 50 73c-2 9.33301 -7 17.333 -15 24c-12 9.33301 -18.333 19.666 -19 30.999c-2 10.667 0.333008 20 7 28c4.66699 7.33301 12 11 22 11c19.333 0 31 -14 35 -42c2 -23.333 -3.66699 -47 -17 -71
c-12.667 -24 -31.334 -45 -56.001 -63zM171.001 193.001c-0.666992 -22 -12.333 -33.667 -35 -35c-19.333 2 -29.666 13.667 -30.999 35c1.33301 22 11.666 33.667 30.999 35c21.333 -2 33 -13.667 35 -35z" />
    <glyph glyph-name="equal" unicode="=" horiz-adv-x="252" 
d="M220 131h-179v33h179v-33zM220 62h-179v33h179v-33z" />
    <glyph glyph-name="question" unicode="?" horiz-adv-x="312" 
d="M81 354c-24 -8 -33.667 8 -29 48c7.33301 30 21.833 53.833 43.5 71.5s42.5 26.5 62.5 26.5c61.333 -0.666992 96.666 -31.667 105.999 -93c2.66699 -35.333 -1.5 -66.166 -12.5 -92.499s-27.833 -53.166 -50.5 -80.499c-11.333 -20 -17.833 -37.5 -19.5 -52.5
s-2.5 -27.833 -2.5 -38.5c-2 -14.667 -9 -21.334 -21 -20.001c-11.333 -1.33301 -18.666 5.33398 -21.999 20.001c-1.33301 10.667 -1.33301 23.667 0 39s6.33301 30.666 15 45.999c25.333 39.333 40.5 73.666 45.5 102.999s6.83301 59.666 5.5 90.999
c-3.33301 34 -18.333 51 -45 51c-26.667 -2 -44.667 -19.667 -54 -53c12 -2 14.333 -12.667 7 -32c-4 -15.333 -13.667 -26.666 -29 -33.999zM193 25c-0.666992 -22 -12.333 -33.667 -35 -35c-19.333 2 -29.666 13.667 -30.999 35c1.33301 22 11.666 33.667 30.999 35
c21.333 -2 33 -13.667 35 -35z" />
    <glyph glyph-name="at" unicode="@" horiz-adv-x="492" 
d="M271 60c1.33301 5.33301 2.33105 11.668 2.99805 19.001s1.66699 13.666 3 18.999c2.66699 18.667 3.33398 35.5 2.00098 50.5s-5.33301 27.5 -12 37.5c-7.33301 11.333 -17 17 -29 17h-3c-7.33301 -1.33301 -13.666 -5 -18.999 -11s-10.333 -13 -15 -21
c-6 -9.33301 -9.83301 -19.833 -11.5 -31.5s-2.16699 -23.167 -1.5 -34.5s2.5 -22 5.5 -32s6.5 -18 10.5 -24c7.33301 -9.33301 16.333 -14 27 -14c7.33301 0 14.833 1.5 22.5 4.5s13.5 9.83301 17.5 20.5zM426.998 162.002c0 16.667 -3.33008 34.166 -9.99707 52.499
s-16.5 35.333 -29.5 51s-28.833 28.667 -47.5 39s-40.334 15.5 -65.001 15.5c-19.333 0 -36.833 -2 -52.5 -6s-29.667 -9 -42 -15s-22.833 -12.167 -31.5 -18.5s-15.334 -11.833 -20.001 -16.5c-21.333 -22.667 -35.5 -48.167 -42.5 -76.5s-9.33301 -56 -7 -83
s8.16602 -51.5 17.499 -73.5s20 -38.333 32 -49c13.333 -14.667 32.833 -28.834 58.5 -42.501s54.167 -21.834 85.5 -24.501c10 -1.33301 22.5 -0.666016 37.5 2.00098s29.833 6.83398 44.5 12.501s28.334 12.334 41.001 20.001s21.667 16.167 27 25.5l22 -23
c-8 -8 -18.333 -16 -31 -24s-26.5 -15.167 -41.5 -21.5s-30.833 -11.333 -47.5 -15s-33.667 -5.5 -51 -5.5c-16 0 -33.333 2.5 -52 7.5s-36.334 11.333 -53.001 19s-31.834 16.334 -45.501 26.001s-23.5 19.167 -29.5 28.5c-16.667 16.667 -29.167 38.667 -37.5 66
s-12.5 55.666 -12.5 84.999s4 57.833 12 85.5s20.667 50.5 38 68.5c21.333 24 47.333 42.833 78 56.5s65 20.834 103 21.501c32.667 0 60.834 -6 84.501 -18s43 -27.167 58 -45.5s25.833 -38.5 32.5 -60.5s9.66699 -43 9 -63c0 -20.667 -0.666992 -38.667 -2 -54
s-6 -34 -14 -56c-4 -10.667 -9.66699 -19.667 -17 -27s-15.166 -13.166 -23.499 -17.499s-16.833 -7.16602 -25.5 -8.49902s-16 -1.33301 -22 0c-11.333 0 -22 2.33301 -32 7s-17.667 10.667 -23 18c-2.66699 4 -4.16699 7.33301 -4.5 10s-1.16602 7 -2.49902 13
c-9.33301 -19.333 -20.833 -32.166 -34.5 -38.499s-27.5 -9.5 -41.5 -9.5c-12.667 0 -25.5 4.16699 -38.5 12.5s-24.167 19.166 -33.5 32.499c-10.667 15.333 -17.167 32.833 -19.5 52.5s-0.833008 37.5 4.5 53.5c4.66699 11.333 11 22 19 32s16.667 18.333 26 25
c8 6.66699 16.667 11.5 26 14.5s18.333 4.5 27 4.5c12 0 22.167 -2.33301 30.5 -7s15.5 -11.334 21.5 -20.001c1.33301 -2.66699 3 -5.33398 5 -8.00098s4 -6 6 -10l16 39h45l-6 -147c-2 -16 -1.33301 -26.333 2 -31c4.66699 -6.66699 12 -10 22 -10
c10 -1.33301 18.667 1.66699 26 9s13.166 17.166 17.499 29.499s7.66602 26.5 9.99902 42.5s3.5 32 3.5 48z" />
    <glyph glyph-name="A" unicode="A" horiz-adv-x="821" 
d="M881 133c-13.333 -16.667 -28.1582 -30.333 -44.4912 -41s-31.5 -19 -45.5 -25s-25.833 -10 -35.5 -12s-14.5 -2.66699 -14.5 -2c-4.66699 -18 -9.5 -31 -14.5 -39s-12.833 -12 -23.5 -12c-7.33301 0 -13.833 1.83301 -19.5 5.5s-10.167 8.16699 -13.5 13.5
c-2.66699 4 -4.83398 8.83301 -6.50098 14.5l-7.5 25.5c-26.667 2.66699 -52.667 6.83398 -78 12.501s-48 12.167 -68 19.5c-15.333 5.33301 -32.333 11.833 -51 19.5s-35.667 15.5 -51 23.5c-30.667 -46 -66.167 -79.833 -106.5 -101.5s-86.5 -32.5 -138.5 -32.5
c-23.333 0 -46.166 2.66699 -68.499 8s-43.166 12.833 -62.499 22.5s-37 21.5 -53 35.5s-29.333 29.667 -40 47c-13.333 22.667 -17.333 42.167 -12 58.5s19.666 24.5 42.999 24.5c8.66699 0 18 -1.83301 28 -5.5s19.833 -8.5 29.5 -14.5s18.667 -13 27 -21
s15.166 -16.667 20.499 -26c9.33301 -16.667 12.166 -31.167 8.49902 -43.5s-12.834 -18.5 -27.501 -18.5h-8c-10 0 -13 -2.66699 -9 -8c2.66699 -4.66699 7.66699 -9.16699 15 -13.5s16 -8 26 -11s21.167 -5.5 33.5 -7.5s24.833 -3 37.5 -3c52 0 99.667 12.667 143 38
c8.66699 5.33301 16.5 10.666 23.5 15.999s13.667 11.333 20 18s12.833 14.5 19.5 23.5s14 19.5 22 31.5c-57.333 32 -102.166 62.5 -134.499 91.5s-58.5 60.167 -78.5 93.5c-14.667 24 -23.834 46.167 -27.501 66.5s-2.33398 37.666 3.99902 51.999
s18.166 25.333 35.499 33s39.666 11.167 66.999 10.5c22.667 -1.33301 48.167 -6.5 76.5 -15.5s55.166 -18.833 80.499 -29.5c29.333 -12 59 -26 89 -42c6 12.667 11.333 25 16 37l14.5 37c5 12.667 10.833 26 17.5 40s15 30 25 48c20 36 37.333 63.333 52 82
c9.33301 12 20.666 22.667 33.999 32s25 14 35 14c22.667 0 40.667 -10.667 54 -32c3.33301 -5.33301 5.5 -11.166 6.5 -17.499s0.833008 -15.833 -0.5 -28.5l-7 -53l-8 -79c-1.33301 -14.667 -2.33301 -30 -3 -46s-2 -32.667 -4 -50c-1.33301 -13.333 -2 -25 -2 -35v-38
c-0.666992 -19.333 -0.833984 -39.666 -0.500977 -60.999s1.5 -48.333 3.5 -81l6 -51c2.66699 -15.333 4 -28 4 -38s0.666992 -15 2 -15c16.667 0 33 3.83301 49 11.5s30 16 42 25s21.667 17.167 29 24.5s11.333 10.666 12 9.99902zM653.008 236.001
c0 4.66699 -2.33008 10.3311 -6.99707 16.998s-10.334 13.334 -17.001 20.001l-21 20.5l-20 19.5l-24.5 22.5l-23 20.5c-7 6 -12.833 10.667 -17.5 14l-7 5c-3.33301 -4.66699 -6.16602 -10.667 -8.49902 -18s-5.16602 -14.666 -8.49902 -21.999
c-4.66699 -10.667 -9.83398 -25 -15.501 -43s-11.834 -33.333 -18.501 -46l-25 -46c-4.66699 -9.33301 -8.33398 -16.333 -11.001 -21l-6.5 -11.5c-1.66699 -3 -2.83398 -5.5 -3.50098 -7.5s-1.66699 -4.33301 -3 -7l36.5 -16.5c11 -5 21.833 -9.5 32.5 -13.5
c18 -7.33301 43 -15 75 -23s65 -14.667 99 -20c-0.666992 5.33301 -1.16699 9.83301 -1.5 13.5l-1 11.5c-0.333008 4 -0.5 8.66699 -0.5 14v20v18.5c0 7 -0.166992 14.167 -0.5 21.5l-1 21.5c-0.333008 7 -0.5 12.833 -0.5 17.5zM668.011 543.998
c3.33301 16 6.49902 32.501 9.49902 49.501s5.16699 32.167 6.5 45.5c0.666992 2.66699 0.5 5.66699 -0.5 9s-2.16699 6.33301 -3.5 9s-2.83301 4.16699 -4.5 4.5s-3.16699 0.5 -4.5 0.5c-2.66699 0 -7 -1.66699 -13 -5s-14 -11.666 -24 -24.999
c-9.33301 -12.667 -16.666 -25 -21.999 -37s-12.666 -26.667 -21.999 -44c-2.66699 -5.33301 -7 -14.666 -13 -27.999l-18.5 -41l-17 -38.5c-5 -11.667 -7.5 -17.834 -7.5 -18.501c-3.33301 -5.33301 -6.16602 -11 -8.49902 -17l-5.5 -14l16 -11.5
c5.33301 -3.66699 12 -8.83398 20 -15.501c19.333 -16 36.666 -32 51.999 -48s29.666 -32 42.999 -48c0.666992 4 1.16699 7.16699 1.5 9.5s0.833008 4.83301 1.5 7.5c0 4 -0.166992 10.167 -0.5 18.5s-0.166016 18.833 0.500977 31.5c0 7.33301 0.166992 16 0.5 26l1 30.5
c0.333008 10.333 0.666016 20.166 0.999023 29.499s1.16602 17.333 2.49902 24c0 2 0.333008 7 1 15s1.33398 17 2.00098 27s1.5 20 2.5 30s2.16699 18 3.5 24zM399.01 181.999c6 10 12.168 22.168 18.501 36.501l19.5 44c6.66699 15 12.667 29.667 18 44l14 36.5l11.5 30.5
c2.33301 6.33301 4.5 14.166 6.5 23.499l-11.5 5.5l-30.5 14.5l-43 19.5c-16 7 -32.333 13.5 -49 19.5s-32.667 11.167 -48 15.5s-28.333 6.5 -39 6.5c-49.333 0.666992 -79.666 -13.166 -90.999 -41.499s-4.33301 -63.833 21 -106.5
c17.333 -28.667 42.666 -56.834 75.999 -84.501s72.666 -54.167 117.999 -79.5z" />
    <glyph glyph-name="B" unicode="B" horiz-adv-x="829" 
d="M588 25c17.333 5.33301 29.3301 12.5 35.9971 21.5s13.334 21.5 20.001 37.5h-11c-15.333 0 -29.166 -0.5 -41.499 -1.5s-24.5 -2.16699 -36.5 -3.5c-8.66699 -0.666992 -17.5 -2.33398 -26.5 -5.00098s-17 -5.66699 -24 -9s-12.333 -7.16602 -16 -11.499
s-4.16699 -8.5 -1.5 -12.5c8.66699 -14 30.667 -21 66 -21c6.66699 0 11.834 0.5 15.501 1.5s10.167 2.16699 19.5 3.5zM605.997 7c-14.667 -4.66699 -28.335 -7.3291 -41.002 -7.99609s-25.667 -1 -39 -1c-25.333 0 -45 2.83301 -59 8.5s-24.667 14.5 -32 26.5
c-9.33301 16 -4.16602 29.5 15.501 40.5s50.5 19.833 92.5 26.5c12.667 1.33301 26 2.66602 40 3.99902s29 2 45 2h16c1.33301 15.333 -1.16699 31.833 -7.5 49.5s-15.166 36.167 -26.499 55.5c-14 23.333 -28 40.833 -42 52.5s-30 18.834 -48 21.501h-10
c-11.333 -3.33301 -20.166 -5.83301 -26.499 -7.5s-13.5 -2.5 -21.5 -2.5c-6.66699 0 -12.167 1 -16.5 3s-7.16602 4.33301 -8.49902 7c-5.33301 8.66699 -3.33301 14.5 6 17.5s22.666 4.5 39.999 4.5h21c17.333 15.333 25.833 36.166 25.5 62.499s-8.5 53.166 -24.5 80.499
c-9.33301 16 -20.5 29.667 -33.5 41s-29.833 21.666 -50.5 30.999l-1 -8l-5 -22c0 -9.33301 -0.5 -21.166 -1.5 -35.499l-3.5 -50.5l-3 -80c-2 -55.333 -5.5 -103.333 -10.5 -144s-13.5 -72.334 -25.5 -95.001c-16.667 -31.333 -37.834 -54 -63.501 -68
s-56.834 -21 -93.501 -21c-20.667 0 -41 2.5 -61 7.5s-39 12.167 -57 21.5s-34.167 20.5 -48.5 33.5s-26.166 27.167 -35.499 42.5c-13.333 21.333 -17.833 39.666 -13.5 54.999s16.5 23 36.5 23c16 0 32.5 -5.83301 49.5 -17.5s30.167 -25.5 39.5 -41.5
c8 -13.333 10.833 -25 8.5 -35s-9.16602 -15.667 -20.499 -17h-8c-8.66699 0 -10.334 -4.33301 -5.00098 -13c2.66699 -4.66699 7.5 -9.16699 14.5 -13.5s15.167 -8.33301 24.5 -12s19.333 -6.5 30 -8.5s21 -3 31 -3c17.333 0 31.833 2.33301 43.5 7s21.834 13 30.501 25
c6 8 11.333 16.833 16 26.5s9 21.167 13 34.5s7.66699 29.5 11 48.5s6.66602 41.5 9.99902 67.5l15 118c2 15.333 4.66699 30 8 44s6 27 8 39c2 5.33301 3.5 10.666 4.5 15.999s2 11.333 3 18s2.33301 14.334 4 23.001s4.16699 18.667 7.5 30l4 11.5
c1.33301 3.66699 2.66602 6.83398 3.99902 9.50098c0.666992 0 -2 0.666992 -8 2l-23 5c-9.33301 2 -19.5 3.66699 -30.5 5s-21.5 2 -31.5 2c-17.333 0 -35 -1.83301 -53 -5.5s-35.5 -8.5 -52.5 -14.5s-32.833 -13.167 -47.5 -21.5s-27 -17.833 -37 -28.5
c-28 -31.333 -44.333 -67.333 -49 -108s4.33301 -80 27 -118c24.667 -41.333 56 -62 94 -62c23.333 0 43.666 9.66699 60.999 29s26.666 44.666 27.999 75.999c0 17.333 -2.66699 36 -8 56s-13.333 38.667 -24 56l-4 7h16l7 -12c12 -20 21.167 -40.333 27.5 -61
s8.83301 -40.667 7.5 -60c-2 -34.667 -12.667 -62.5 -32 -83.5s-44.666 -31.5 -75.999 -31.5c-24 0 -48 7.66699 -72 23s-44 36.333 -60 63c-31.333 52.667 -37.333 109 -18 169c16.667 44 46.834 79.833 90.501 107.5s96.834 43.167 159.501 46.5h45
c13.333 -1.33301 24.666 -2.66602 33.999 -3.99902s17 -2.66602 23 -3.99902c7.33301 -1.33301 13.333 -2.66602 18 -3.99902c-0.666992 0 1.16602 3.5 5.49902 10.5s10.5 15.833 18.5 26.5s18 22.167 30 34.5s25.833 23.666 41.5 33.999s33.167 18.666 52.5 24.999
s40.333 8.83301 63 7.5c34 -2 65.833 -11.167 95.5 -27.5s53.167 -38.5 70.5 -66.5c22.667 -38.667 23.334 -71 2.00098 -97l-13 8c9.33301 23.333 7 46.333 -7 69c-8 12.667 -17.833 24.5 -29.5 35.5s-24.334 20.167 -38.001 27.5s-28.167 13.166 -43.5 17.499
s-30.333 6.5 -45 6.5c-40.667 0 -75 -10.667 -103 -32s-48.333 -51 -61 -89c33.333 -12.667 62.5 -28.167 87.5 -46.5s44.833 -39.5 59.5 -63.5c36 -62 25.667 -110.333 -31 -145c63.333 -14.667 112 -49.667 146 -105c10.667 -17.333 17.834 -34 21.501 -50
s4.83398 -30.667 3.50098 -44c10 -1.33301 17.5 -2.16602 22.5 -2.49902s9.5 -0.5 13.5 -0.5c18.667 0 33.5 1.5 44.5 4.5s19.833 7.16699 26.5 12.5c4 2.66699 7.5 6.5 10.5 11.5s5.5 10 7.5 15s3.33301 9.33301 4 13l1 5.5l26 -16c-5.33301 -14 -10.833 -25.333 -16.5 -34
s-12.667 -15.5 -21 -20.5s-18.5 -8.33301 -30.5 -10s-27 -2.5 -45 -2.5c-7.33301 0 -14.833 0.166992 -22.5 0.5s-18.5 1.16602 -32.5 2.49902c-9.33301 -20.667 -22 -37 -38 -49s-37 -20.667 -63 -26z" />
    <glyph glyph-name="C" unicode="C" horiz-adv-x="538" 
d="M328 579c-25.333 -11.333 -41.3379 -27.8301 -48.0049 -49.4971s-4 -45.5 8 -71.5c9.33301 -19.333 23.833 -34.833 43.5 -46.5s41.167 -17.5 64.5 -17.5c10.667 0 21.667 1.33301 33 4s21.666 7.33398 30.999 14.001c12.667 10 23.334 21.667 32.001 35
s14.834 27.666 18.501 42.999s4.66699 31.166 3 47.499s-6.16699 32.166 -13.5 47.499c-15.333 32 -38.166 57.333 -68.499 76s-64.833 28 -103.5 28c-39.333 0 -75.666 -9.66699 -108.999 -29s-63.666 -47 -90.999 -83c-20.667 -29.333 -37.5 -61.166 -50.5 -95.499
s-22 -69.166 -27 -104.499s-5.66699 -70.166 -2 -104.499s12.167 -65.5 25.5 -93.5c21.333 -46 53.333 -82.167 96 -108.5s91 -39.5 145 -39.5c40 0 75.833 6.16699 107.5 18.5s58.5 25.666 80.5 39.999s39 27.5 51 39.5s18.333 18 19 18l11.5 -7.5l11.5 -7.5
c-10 -15.333 -25 -30.833 -45 -46.5s-43 -30 -69 -43s-54.333 -23.5 -85 -31.5s-62 -12 -94 -12c-75.333 0 -140.666 16.167 -195.999 48.5s-97.333 79.833 -126 142.5c-43.333 92 -39.333 190.667 12 296c16 34 36 64.667 60 92s50.5 50.666 79.5 69.999
s59.833 34.166 92.5 44.499s65.667 15.5 99 15.5c24 0 47.833 -3.33301 71.5 -10s45.667 -15.834 66 -27.501s38.333 -25.5 54 -41.5s27.834 -33.333 36.501 -52c12 -25.333 16.833 -50.5 14.5 -75.5s-10.833 -47.5 -25.5 -67.5c-15.333 -18.667 -35.833 -33.667 -61.5 -45
s-52.167 -17 -79.5 -17c-34 0 -64.333 7.66699 -91 23s-46.334 36.333 -59.001 63c-13.333 30 -14.333 56.167 -3 78.5s35 41.833 71 58.5z" />
    <glyph glyph-name="D" unicode="D" horiz-adv-x="948" 
d="M826 93c-9.33301 -17.333 -23.1641 -33 -41.4971 -47s-38.5 -24.5 -60.5 -31.5s-44.5 -11 -67.5 -12s-39.5 -1.16699 -49.5 -0.5c-28 2 -50.167 5 -66.5 9s-28.166 13 -35.499 27c-9.33301 19.333 -1.33301 36.166 24 50.499s63.666 24.166 114.999 29.499
c7.33301 1.33301 19.166 2.33301 35.499 3s32.166 1 47.499 1h47c10 12.667 16.833 28.5 20.5 47.5s4.5 39.667 2.5 62s-6.83301 46 -14.5 71s-17.834 50.167 -30.501 75.5c-19.333 38 -42 72 -68 102s-54.5 55.5 -85.5 76.5s-63.667 37.167 -98 48.5
s-69.166 17 -104.499 17c-28.667 0.666992 -58.667 -4.5 -90 -15.5s-61.5 -26.167 -90.5 -45.5s-55.667 -42.5 -80 -69.5s-43.833 -55.833 -58.5 -86.5c-22 -50.667 -33.833 -101.167 -35.5 -151.5s6.83301 -94.166 25.5 -131.499c16 -31.333 37.167 -55.5 63.5 -72.5
s54.833 -25.5 85.5 -25.5c20.667 0 39 3.66699 55 11s30.167 19.5 42.5 36.5s23.833 39.833 34.5 68.5s21 64.667 31 108c4.66699 28 9 49.833 13 65.5s6.66699 25.167 8 28.5c6.66699 26 15.334 52.167 26.001 78.5s20.667 48.166 30 65.499
c4.66699 8.66699 9.5 16.167 14.5 22.5s10.333 12 16 17s12.167 9.66699 19.5 14l26 15.5l16 -13c-7.33301 -6 -13 -12.333 -17 -19s-7.5 -13.834 -10.5 -21.501s-5.66699 -16.5 -8 -26.5s-4.83301 -21.667 -7.5 -35l-15 -74c-10.667 -52 -18.667 -98 -24 -138
s-14 -73 -26 -99c-17.333 -42 -44.166 -74.167 -80.499 -96.5s-80.833 -33.5 -133.5 -33.5c-51.333 0 -96.333 11.667 -135 35s-68.667 56 -90 98c-19.333 38.667 -28.833 80.834 -28.5 126.501s12.166 91.5 35.499 137.5c18 34.667 38.333 66.667 61 96
s48.667 55.333 78 78s62.166 41.667 98.499 57s77.166 26.333 122.499 33c8.66699 1.33301 18 2 28 2h29c42 0 82.667 -6 122 -18s76.333 -29.167 111 -51.5s66.167 -49.666 94.5 -81.999s52.833 -68.5 73.5 -108.5c28 -56 42.667 -109.333 44 -160s-9.66699 -92 -33 -124
c12 -1.33301 20.833 -2.16602 26.5 -2.49902s11.167 -0.5 16.5 -0.5c21.333 0 38.5 1.66699 51.5 5s23.167 8.33301 30.5 15c3.33301 2.66699 7.5 8 12.5 16s12.833 19.667 23.5 35l24 -18c-8 -16 -15.667 -29 -23 -39s-16 -17.833 -26 -23.5s-22 -9.5 -36 -11.5
s-31.333 -3 -52 -3h-15.5c-6.33301 0 -12.833 0.333008 -19.5 1c-7.33301 0 -15.333 0.333008 -24 1zM673.002 28c18.667 2.66699 35.3359 9.83398 50.0029 21.501s29.667 27.5 45 47.5c0.666992 0 -4 -0.166992 -14 -0.5s-21.5 -0.833008 -34.5 -1.5l-38 -2
c-12.333 -0.666992 -20.5 -1.33398 -24.5 -2.00098c-34.667 -4 -59.834 -9.83301 -75.501 -17.5s-20.834 -16.167 -15.501 -25.5c3.33301 -8 13.166 -13.833 29.499 -17.5s34.5 -5.5 54.5 -5.5z" />
    <glyph glyph-name="E" unicode="E" horiz-adv-x="537" 
d="M87 514c-17.333 28 -24.665 55.5059 -21.998 82.5059s13.167 51 31.5 72s44.166 38 77.499 51s72.333 19.5 117 19.5c48 0 91.667 -8.5 131 -25.5s69 -40.5 89 -70.5c6 -9.33301 10.333 -24 13 -44s-1.66602 -46 -12.999 -78l-2 -7l-27 13l2 5
c7.33301 17.333 8.66602 34.666 3.99902 51.999s-12.334 33.666 -23.001 48.999c-17.333 25.333 -39 44.666 -65 57.999s-53 20 -81 20c-30 0 -57.667 -7 -83 -21s-43.333 -33.333 -54 -58c-6 -10 -10 -21.5 -12 -34.5s-2.33301 -26.333 -1 -40s4 -27.334 8 -41.001
s9.66699 -25.834 17 -36.501l10 -15c13.333 1.33301 22.5 2.66602 27.5 3.99902s9.83301 2 14.5 2c18.667 0 35 -2.83301 49 -8.5s24 -13.167 30 -22.5s4.83301 -17.5 -3.5 -24.5s-22.5 -10.5 -42.5 -10.5c-12.667 0 -25.334 1.83301 -38.001 5.5
s-29.334 9.16699 -50.001 16.5c-28.667 -7.33301 -52.5 -21 -71.5 -41s-32.333 -43.5 -40 -70.5s-9.16699 -56.167 -4.5 -87.5s16.667 -61.666 36 -90.999c46 -71.333 115.667 -107 209 -107c62 0 115 12.667 159 38s73.667 60.666 89 105.999l34 -21l-4 -7
c-49.333 -98 -148.666 -147 -297.999 -147c-63.333 0 -118.166 11.833 -164.499 35.5s-84.5 57.834 -114.5 102.501c-20 30.667 -31.333 62.167 -34 94.5s2 62.833 14 91.5s31.167 54.167 57.5 76.5s58.833 39.166 97.5 50.499c-15.333 9.33301 -27 17.833 -35 25.5
s-16.667 17.167 -26 28.5z" />
    <glyph glyph-name="F" unicode="F" horiz-adv-x="682" 
d="M554 641c6.66699 4 12.168 7.16602 16.501 9.49902s8.33301 4.16602 12 5.49902s7.5 2.16602 11.5 2.49902s8.66699 0.5 14 0.5c7.33301 0 15.333 -2.16699 24 -6.5s15.334 -9.5 20.001 -15.5c6 -9.33301 3 -16.5 -9 -21.5s-34.667 -9.16699 -68 -12.5l-14 -3
c-3.33301 -6 -5.33301 -11.167 -6 -15.5s-1.66699 -10.5 -3 -18.5l-8 -25c-2.66699 -8 -4.66699 -16.667 -6 -26c-1.33301 -10 -2.33301 -19.167 -3 -27.5l-2 -26c-0.666992 -9 -0.833984 -19 -0.500977 -30s1.16602 -24.167 2.49902 -39.5l7 -64l1 -40l4 -17
c10 7.33301 19.333 12 28 14s18.667 3 30 3c18 0 35.333 -4.16699 52 -12.5s31.334 -21.166 44.001 -38.499c7.33301 -11.333 10.166 -21.5 8.49902 -30.5s-8.16699 -13.5 -19.5 -13.5c-9.33301 0 -19.333 2.83301 -30 8.5s-19.334 13.167 -26.001 22.5
c-0.666992 0.666992 -1.16699 1.5 -1.5 2.5s-0.833008 2.16699 -1.5 3.5l-2 4c-2 3.33301 -3.16699 5.33301 -3.5 6s-0.166016 1.66699 0.500977 3l-2 3c-2 3.33301 -5.5 6.16602 -10.5 8.49902s-10.833 3.5 -17.5 3.5c-4.66699 0 -9.33398 -0.666992 -14.001 -2
s-9.66699 -2.66602 -15 -3.99902c-7.33301 -6 -12.333 -12.333 -15 -19s-4.33398 -21 -5.00098 -43c-4 -126 -64 -189 -180 -189c-22.667 0 -45.5 2.83301 -68.5 8.5s-45 13.834 -66 24.501s-40.5 23.334 -58.5 38.001s-33.333 30.667 -46 48
c-17.333 23.333 -24.666 43.5 -21.999 60.5s14.667 25.5 36 25.5c18 0 37.167 -6 57.5 -18s37.166 -27.333 50.499 -46c10 -14 15 -26.833 15 -38.5s-6.66699 -17.5 -20 -17.5l-8 -3c-6 0 -9.16699 -1.5 -9.5 -4.5s0.5 -6.16699 2.5 -9.5
c3.33301 -4.66699 8.33301 -9.16699 15 -13.5s13.667 -8.16602 21 -11.499c13.333 -6 28 -11 44 -15s30.667 -6 44 -6c30.667 0 54.5 12 71.5 36s26.5 59 28.5 105v104c0 26.667 1.16699 54 3.5 82s5.5 55 9.5 81s8.66699 50 14 72s11 40.333 17 55
c3.33301 5.33301 7 12.333 11 21l11 24c-16 0 -31.833 0.666992 -47.5 2s-33.834 3.5 -54.501 6.5s-45.167 7 -73.5 12s-63.166 11.5 -104.499 19.5c-44.667 9.33301 -83.667 16.166 -117 20.499s-60 6.5 -80 6.5c-74 0 -120 -16.833 -138 -50.5
s-6.33301 -78.834 35 -135.501c14.667 -20.667 31.834 -39.5 51.501 -56.5s40.334 -31.5 62.001 -43.5s43.834 -21.167 66.501 -27.5s44.667 -9.5 66 -9.5c25.333 0 47.166 3.33301 65.499 10s34.5 18.334 48.5 35.001l20 -15c-13.333 -21.333 -30.166 -36.333 -50.499 -45
s-44.5 -13 -72.5 -13s-57.5 4.33301 -88.5 13s-61.333 20.5 -91 35.5s-57.334 32.667 -83.001 53s-47.167 42.5 -64.5 66.5c-21.333 30 -33.833 58 -37.5 84s1 48.667 14 68s33.833 34.5 62.5 45.5s64 16.5 106 16.5c22.667 0 50.167 -2 82.5 -6s75.166 -12.333 128.499 -25
c70.667 -13.333 130.834 -24.166 180.501 -32.499s85.167 -12.5 106.5 -12.5c5.33301 0 9.5 -0.333008 12.5 -1s6.16699 0.666016 9.5 3.99902z" />
    <glyph glyph-name="G" unicode="G" horiz-adv-x="588" 
d="M389 421c48 36.667 79.166 74.332 93.499 112.999s11.833 72.334 -7.5 101.001c-18 27.333 -48 41 -90 41c-25.333 0 -51.333 -8.33301 -78 -25s-51.334 -40 -74.001 -70c-9.33301 -13.333 -17.5 -25.833 -24.5 -37.5s-13.833 -24.834 -20.5 -39.501
s-13.167 -31.5 -19.5 -50.5s-12.833 -41.833 -19.5 -68.5c-5.33301 -20 -8.5 -37 -9.5 -51s-1.16699 -21 -0.5 -21c56.667 10.667 102.334 24 137.001 40c48.667 22.667 86.334 45.334 113.001 68.001zM364.999 -493.002c4 25.333 7.49805 54.1641 10.498 86.4971
s4.5 63.166 4.5 92.499l3 71l3 35l3 15c-24 -24 -47.667 -51.5 -71 -82.5s-43.666 -62.167 -60.999 -93.5c-9.33301 -14 -17.833 -29.5 -25.5 -46.5s-13.167 -32.167 -16.5 -45.5c-7.33301 -19.333 -13 -39.166 -17 -59.499s-6.16699 -39.666 -6.5 -57.999s1 -35 4 -50
s7.5 -27.167 13.5 -36.5c7.33301 -11.333 16 -19.5 26 -24.5s19.667 -7.5 29 -7.5c16 0 29.667 6.66699 41 20s22.333 36.333 33 69c2.66699 6.66699 5.16699 14.334 7.5 23.001s4.5 17.334 6.5 26.001l5.5 24c1.66699 7.33301 2.83398 13.333 3.50098 18zM404.997 -579.004
c-5.33301 -27.333 -13.1758 -50.502 -23.5088 -69.502s-22.166 -34.5 -35.499 -46.5s-27.5 -20.667 -42.5 -26s-29.833 -8 -44.5 -8c-16 0 -32.167 4.66699 -48.5 14s-30.166 22.666 -41.499 39.999c-21.333 30.667 -31 68.334 -29 113.001s17 92.667 45 144l18.5 33
c5.66699 10 13.834 22.667 24.501 38c8 13.333 17.833 28 29.5 44l32.5 44l25 32l31 38l23 27.5c6 7 12.667 16.167 20 27.5l-1 92l-7 131l2 17c-44 -48.667 -91 -73 -141 -73c-31.333 0 -61.333 7.33301 -90 22s-51.334 36 -68.001 64
c-10 16.667 -17.667 34.334 -23 53.001s-9.33301 35.5 -12 50.5s-4.33398 27.5 -5.00098 37.5s-1.33398 15 -2.00098 15c-14.667 0 -30.667 1.16699 -48 3.5s-34.666 6.5 -51.999 12.5c-39.333 11.333 -75.833 26.166 -109.5 44.499s-66.5 38.5 -98.5 60.5
c-16 11.333 -30.667 24.166 -44 38.499s-25 29.166 -35 44.499c-11.333 16 -20.666 31.833 -27.999 47.5s-11.666 30.167 -12.999 43.5c-1.33301 33.333 6 61.666 22 84.999s44.667 41.666 86 54.999l14 -16c-19.333 -12 -34.166 -21.667 -44.499 -29
s-19.166 -16.666 -26.499 -27.999c-11.333 -17.333 -14.333 -38.666 -9 -63.999s17.666 -52 36.999 -80c17.333 -25.333 37.833 -48.166 61.5 -68.499s49.5 -38.166 77.5 -53.499s57.333 -28 88 -38s61.667 -16.667 93 -20
c9.33301 -1.33301 16.166 -2.16602 20.499 -2.49902s8.16602 -0.5 11.499 -0.5c2.66699 31.333 10 63.833 22 97.5s27.667 66.5 47 98.5l32 50.5c10 15 21 27.833 33 38.5l27 24c29.333 25.333 59.833 45.5 91.5 60.5s63.167 22.5 94.5 22.5c28 0 54.333 -6.16699 79 -18.5
s44.667 -29.5 60 -51.5c25.333 -38 23 -80.5 -7 -127.5s-82.333 -94.5 -157 -142.5c-10.667 -7.33301 -22.167 -14.166 -34.5 -20.499s-25 -12.333 -38 -18s-25.5 -10.667 -37.5 -15l-33 -11.5l-20 -3.5c-6 -1 -12.5 -2.16699 -19.5 -3.5s-14.833 -2.5 -23.5 -3.5l-31 -3.5
c-1.33301 -15.333 -1.66602 -32 -0.999023 -50s2.16699 -35.333 4.5 -52s5.5 -32 9.5 -46s8.66699 -24.667 14 -32c19.333 -28 45 -42 77 -42c14 0 28.667 2.5 44 7.5s29.833 11.667 43.5 20s25.834 18.166 36.501 29.499s18.667 23.333 24 36l-1 14l-3 24
c-2 22.667 0.833008 42.167 8.5 58.5s18.167 24.5 31.5 24.5c5.33301 0 9.66602 -1.33301 12.999 -4s6.66602 -6 9.99902 -10c4.66699 -6.66699 7.33398 -13.5 8.00098 -20.5s-0.333008 -17.167 -3 -30.5v-5.5c0 -2.33301 -0.666992 -4.83301 -2 -7.5
c-0.666992 -13.333 -1.16699 -25.166 -1.5 -35.499s-0.5 -21 -0.5 -32s0.5 -23.167 1.5 -36.5l3.5 -49l3 -110l26.5 28l17.5 18c4.66699 4.66699 8.33398 8.5 11.001 11.5s5.33398 6.16699 8.00098 9.5c14 17.333 26.167 33.833 36.5 49.5s19 29.5 26 41.5l16 28
c3.66699 6.66699 5.83398 10 6.50098 10l21 -13l-9 -19c-4 -8.66699 -9.16699 -18.334 -15.5 -29.001l-19.5 -32.5c-6.66699 -11 -13.5 -21.333 -20.5 -31l-17.5 -23.5c-12.667 -16 -25.834 -31.167 -39.501 -45.5s-26.5 -28.833 -38.5 -43.5
c-1.33301 -0.666992 -2.16602 -1.66699 -2.49902 -3s-1.16602 -2.66602 -2.49902 -3.99902v-32c0 -8.66699 -0.666992 -18.667 -2 -30c-0.666992 -30 -1.5 -57.5 -2.5 -82.5s-2.16699 -48.5 -3.5 -70.5s-3 -42.833 -5 -62.5s-4.33301 -39.167 -7 -58.5
c-1.33301 -12 -3.16602 -23.667 -5.49902 -35s-4.66602 -21.5 -6.99902 -30.5l-6 -22.5c-1.66699 -6 -2.5 -9.33301 -2.5 -10z" />
    <glyph glyph-name="H" unicode="H" horiz-adv-x="701" 
d="M158 331c-22 0 -39 -2.66602 -51 -7.99902s-20 -12.5 -24 -21.5s-4.66699 -19 -2 -30s7.66699 -22.167 15 -33.5c5.33301 -8.66699 14.666 -18.167 27.999 -28.5s27 -19.833 41 -28.5s26.333 -15.834 37 -21.501s16 -8.16699 16 -7.5l7 56l4 74
c0 5.33301 0.333008 9.33301 1 12s1.16699 5.33398 1.5 8.00098l1 8c0.333008 2.66699 0.5 6.66699 0.5 12c-12 1.33301 -24.167 3.16602 -36.5 5.49902s-25.166 3.5 -38.499 3.5zM432 62.001c-13.333 2 -27.3291 4.83105 -41.9961 8.49805s-29 7.5 -43 11.5l-39 11.5
c-12 3.66699 -21.333 6.83398 -28 9.50098c-14.667 -36 -35.167 -62.333 -61.5 -79s-58.5 -25 -96.5 -25c-20 0 -40 2.5 -60 7.5s-39 12.167 -57 21.5s-34.5 20.666 -49.5 33.999s-27.5 28.333 -37.5 45c-12.667 20 -16.5 37 -11.5 51s16.167 21 33.5 21
c16 0 32.833 -5.33301 50.5 -16s31.5 -24.334 41.5 -41.001c9.33301 -14.667 12.833 -26.834 10.5 -36.501s-9.5 -14.5 -21.5 -14.5h-8c-7.33301 0 -8.33301 -4.33301 -3 -13c2.66699 -4.66699 7.66699 -9.33398 15 -14.001s15.833 -8.66699 25.5 -12
s20 -6.16602 31 -8.49902s22.167 -3.5 33.5 -3.5c26.667 0 47.334 8.5 62.001 25.5s26.667 46.167 36 87.5l-24.5 11.5l-16.5 8c-4.66699 2.33301 -8.83398 4.33301 -12.501 6s-7.5 3.83398 -11.5 6.50098c-19.333 11.333 -36.333 23.5 -51 36.5
s-26.334 26.167 -35.001 39.5c-18.667 30 -20.834 55.5 -6.50098 76.5s43.5 31.833 87.5 32.5c8.66699 0 18.5 -0.5 29.5 -1.5s21.167 -2.16699 30.5 -3.5l24 -3.5l10 -1.5c1.33301 8.66699 2.83301 17.834 4.5 27.501s2.83398 17.5 3.50098 23.5
c3.33301 13.333 6 24.333 8 33s4 16.5 6 23.5s4 13.5 6 19.5s4.66699 13 8 21c-16.667 -6 -31.5 -10.5 -44.5 -13.5l-35.5 -8.5c-7.33301 -1.33301 -14.333 -2.16602 -21 -2.49902s-13.334 -0.5 -20.001 -0.5c-9.33301 0 -17 0.166992 -23 0.5s-14 1.83301 -24 4.5l-8 17
c8 -1.33301 14.333 -2.16602 19 -2.49902s9 -0.5 13 -0.5c8 0 16.5 0.5 25.5 1.5s17.167 2.5 24.5 4.5l21.5 5.5c9 2.33301 18.667 5 29 8s20.666 6.5 30.999 10.5s19.166 8.33301 26.499 13c6.66699 2.66699 11 7.33398 13 14.001
c0.666992 1.33301 2.83398 4.5 6.50098 9.5s8.16699 11.5 13.5 19.5c11.333 19.333 24.5 35 39.5 47s28.5 18 40.5 18c15.333 0 26 -5.66699 32 -17c10 -14.667 -5.66699 -37 -47 -67l-55 -34c-4 -10 -7.16699 -17.333 -9.5 -22s-4.5 -11 -6.5 -19
c-2 -13.333 -4.5 -31 -7.5 -53s-4.16699 -52.667 -3.5 -92l3 -8c20 -7.33301 37.833 -14.5 53.5 -21.5s30.5 -14.833 44.5 -23.5s28 -18.5 42 -29.5s29 -23.833 45 -38.5c-6 81.333 -5 155.5 3 222.5s21.667 124.333 41 172s44.5 84.667 75.5 111s66.5 39.5 106.5 39.5
c26 0 50.667 -6.66699 74 -20s42.333 -31.666 57 -54.999c16.667 -27.333 22.667 -53.333 18 -78s-21 -44 -49 -58l-16 13c18.667 13.333 29 30.5 31 51.5s-4 42.167 -18 63.5c-11.333 19.333 -25.333 33.5 -42 42.5s-34.667 13.5 -54 13.5s-37.833 -4.83301 -55.5 -14.5
s-33.5 -23.167 -47.5 -40.5s-26.167 -38.5 -36.5 -63.5s-17.833 -52.5 -22.5 -82.5c-1.33301 -18 -2.5 -40.5 -3.5 -67.5s-1.5 -56.5 -1.5 -88.5s0.666992 -65.5 2 -100.5s4 -69.5 8 -103.5l11 -99c22 0.666992 41.167 2.5 57.5 5.5s30.5 8 42.5 15s22 16.167 30 27.5
s15 25 21 41l24 -17c-6.66699 -17.333 -13 -30.333 -19 -39s-14 -17.334 -24 -26.001c-14 -9.33301 -30.833 -16.5 -50.5 -21.5s-44.834 -7.5 -75.501 -7.5c0 -17.333 -2.16699 -29.166 -6.5 -35.499s-12.5 -9.5 -24.5 -9.5c-16.667 0 -29 6.33301 -37 19
c-3.33301 5.33301 -5.5 10.166 -6.5 14.499s-0.833008 10.166 0.5 17.499zM457.004 75.999c28 -4.66699 42.002 -6.33398 42.002 -5.00098l-7 110c-10.667 13.333 -25.5 27.166 -44.5 41.499s-38.5 27.333 -58.5 39s-38.167 21.334 -54.5 29.001s-26.833 11.5 -31.5 11.5
c-0.666992 -8.66699 -1.16699 -19.167 -1.5 -31.5s-0.833008 -25.166 -1.5 -38.499s-1.5 -26.333 -2.5 -39s-2.16699 -23 -3.5 -31c-0.666992 -3.33301 -1.33398 -7.33301 -2.00098 -12l-2 -13.5c-0.666992 -4.33301 -1.33398 -7.83301 -2.00098 -10.5l-1 -4
c28 -9.33301 57 -18.333 87 -27s57.667 -15 83 -19z" />
    <glyph glyph-name="I" unicode="I" horiz-adv-x="554" 
d="M313 109l-59 2.99805c-13.333 0 -26.166 -0.666992 -38.499 -2l-35.5 -4c-35.333 -4 -61.333 -11.5 -78 -22.5s-20.334 -22.5 -11.001 -34.5c5.33301 -7.33301 15.666 -13.166 30.999 -17.499s32.333 -7.16602 51 -8.49902c26.667 -1.33301 53.334 2.16699 80.001 10.5
s46.667 33.5 60 75.5zM196 -1.00195c-44 0 -78.666 3.6709 -103.999 11.0039s-44 19.333 -56 36c-8 10.667 -8.83301 21.167 -2.5 31.5s16.333 19.666 30 27.999s29.334 15 47.001 20s34.167 7.83301 49.5 8.5c11.333 1.33301 31.833 2.5 61.5 3.5
s63.167 -0.166992 100.5 -3.5l4 20c3.33301 14 5.33301 28 6 42s0.333984 27.667 -0.999023 41c-0.666992 15.333 -2 31.666 -4 48.999s-3.33301 33.333 -4 48c-1.33301 17.333 -1.5 34.666 -0.5 51.999s2.83301 34.666 5.5 51.999c1.33301 15.333 4.16602 31 8.49902 47
s8.16602 28.667 11.499 38c6 15.333 12.833 30.333 20.5 45s18.834 31.667 33.501 51l6 11c-112 -18 -187.5 -44.833 -226.5 -80.5s-40.5 -78.5 -4.5 -128.5c12 -16.667 25.833 -30 41.5 -40s37.5 -19.667 65.5 -29l4 -15c-69.333 6 -125.333 38 -168 96
c-82.667 115.333 24 191 320 227c13.333 12.667 25.5 21.834 36.5 27.501s24.167 8.5 39.5 8.5c7.33301 0 13.166 -0.833008 17.499 -2.5s8.16602 -4.5 11.499 -8.5c6.66699 -9.33301 3.16699 -18.166 -10.5 -26.499s-36.167 -15.833 -67.5 -22.5l-17 -3
c-4 -4.66699 -6.33301 -8.66699 -7 -12s-2.66699 -8 -6 -14c-5.33301 -18 -9.33301 -34.5 -12 -49.5s-4.66699 -31.333 -6 -49s-1.83301 -38.167 -1.5 -61.5s1.5 -52.333 3.5 -87c1.33301 -30 1.5 -55.667 0.5 -77s-1.83301 -41 -2.5 -59
c-1.33301 -10 -2.33301 -18.833 -3 -26.5s-1.66699 -15.334 -3 -23.001s-2.83301 -15.834 -4.5 -24.501s-3.83398 -19 -6.50098 -31l54 -5c14 -1.33301 28.667 -2 44 -2c21.333 0 41.166 5.33301 59.499 16s33.5 27 45.5 49l23 -13
c-11.333 -16.667 -26.166 -32.667 -44.499 -48s-42.5 -24.333 -72.5 -27c-18.667 -1.33301 -37.5 -1 -56.5 1s-41.167 5.66699 -66.5 11c-8.66699 -12.667 -18.667 -25 -30 -37s-24.666 -22.667 -39.999 -32s-33 -17 -53 -23s-43 -9.33301 -69 -10z" />
    <glyph glyph-name="J" unicode="J" 
d="M284 -683c2.66699 30.667 4.66309 60.5029 5.99609 89.5029s2.33301 60.167 3 93.5s0.833984 70.166 0.500977 110.499s-1.16602 87.166 -2.49902 140.499v18.5c0 5 0.166992 9.33301 0.5 13l1 11.5c0.333008 4 0.5 8.66699 0.5 14l-37.5 -37
c-11 -10.667 -21.333 -21.334 -31 -32.001l-30 -34l-35.5 -43c-23.333 -28.667 -42.5 -55.667 -57.5 -81s-29.833 -52.666 -44.5 -81.999c-16.667 -38.667 -29.167 -76.834 -37.5 -114.501s-12.666 -74 -12.999 -109s3.66699 -68.167 12 -99.5s20.833 -60 37.5 -86
c13.333 -19.333 26.333 -33 39 -41s27 -12 43 -12c12 0 23.833 3 35.5 9s22.834 14.5 33.501 25.5s20 24.333 28 40s14.333 33.167 19 52.5l22 95zM293.996 -841.997c-21.333 -50 -45.1709 -88.165 -71.5039 -114.498s-55.166 -39.5 -86.499 -39.5
c-24 0 -47.667 7.33301 -71 22s-44.666 37 -63.999 67c-29.333 44.667 -45.666 97 -48.999 157s6 123.333 28 190c8 31.333 22.167 65.333 42.5 102s42.833 71 67.5 103c22 28 45.5 54.167 70.5 78.5s46.5 46.166 64.5 65.499l44 48c12 12.667 18 19.334 18 20.001
c0 12.667 -0.333008 23.5 -1 32.5s-1.33398 19.333 -2.00098 31l-2.5 44c-1 17.667 -2.16699 41.167 -3.5 70.5c-1.33301 44 -2.5 80.333 -3.5 109s-1.5 49.667 -1.5 63c-0.666992 49.333 1.83301 98.166 7.5 146.499s13.167 95.5 22.5 141.5
c0.666992 10.667 1.66699 19.167 3 25.5s2.66602 12.333 3.99902 18l4 17c1.33301 5.66699 2.33301 13.167 3 22.5c0 0.666992 -2.66699 0.166992 -8 -1.5s-11.666 -3.5 -18.999 -5.5s-14.833 -3.83301 -22.5 -5.5s-13.834 -2.5 -18.501 -2.5
c-11.333 0 -24.333 1.33301 -39 4s-30.334 6.33398 -47.001 11.001c-28 9.33301 -48.667 15.166 -62 17.499s-22.666 3.5 -27.999 3.5c-23.333 0 -37.333 -8.33301 -42 -25s0.333008 -36.334 15 -59.001c4.66699 -7.33301 9.5 -13.666 14.5 -18.999
s10.667 -10.166 17 -14.499s13.666 -8.5 21.999 -12.5s18.166 -8 29.499 -12l8 -3l7 -16c-28 3.33301 -52.5 11.333 -73.5 24s-38.167 29.334 -51.5 50.001c-10.667 16.667 -16.834 32.5 -18.501 47.5s0.166016 28.167 5.49902 39.5s14.333 20.5 27 27.5
s28.334 10.5 47.001 10.5c11.333 0 24.5 -1.16699 39.5 -3.5l47.5 -7.5c22 -5.33301 39.833 -9.83301 53.5 -13.5s24.834 -6.5 33.501 -8.5s15.167 -3.33301 19.5 -4s8.5 -1 12.5 -1c8.66699 0 16.834 -0.333008 24.501 -1s12.834 3 15.501 11l5 17l8 20
c12.667 37.333 26.667 56 42 56c3.33301 0 7 -1.16699 11 -3.5s7.66699 -6.16602 11 -11.499c6.66699 -10 6.5 -22 -0.5 -36s-21.167 -28.667 -42.5 -44c-0.666992 -19.333 -1.5 -36 -2.5 -50s-1.83301 -27.833 -2.5 -41.5s-1.16699 -27.834 -1.5 -42.501
s-0.166016 -32 0.500977 -52c-0.666992 -19.333 -1 -42.333 -1 -69s0.333008 -59 1 -97s1.83398 -82.833 3.50098 -134.5s3.5 -112.834 5.5 -183.501c46.667 49.333 84.667 94.833 114 136.5s49 77.5 59 107.5l32 -21l-2 -6c-28 -46 -58 -90.333 -90 -133
s-68.667 -87.334 -110 -134.001c-0.666992 -4 -1 -6.5 -1 -7.5s0.333008 -3.16699 1 -6.5c-1.33301 -8 -1.5 -22.333 -0.5 -43s1.83301 -49 2.5 -85c1.33301 -36 1.5 -78.667 0.5 -128s-3.83301 -99.333 -8.5 -150c-3.33301 -47.333 -9.16602 -90.333 -17.499 -129
s-18.5 -77.334 -30.5 -116.001z" />
    <glyph glyph-name="K" unicode="K" horiz-adv-x="815" 
d="M104 260c-11.333 -10 -21.6611 -22.501 -30.9941 -37.501s-16.333 -31.167 -21 -48.5s-5.83398 -35 -3.50098 -53s9.16602 -35.333 20.499 -52c9.33301 -14 20.666 -25 33.999 -33s27.666 -12 42.999 -12c11.333 0 22.166 4 32.499 12s19.333 16.833 27 26.5
s13.667 18.5 18 26.5s6.16602 12.333 5.49902 13c4.66699 16 7.16699 35.833 7.5 59.5s1.16602 50.5 2.49902 80.5c0 14.667 0.166992 26.5 0.5 35.5s0.5 17 0.5 24s0.166992 13.5 0.5 19.5s0.833008 13.667 1.5 23l-21 -9c-24 -9.33301 -44.667 -19.666 -62 -30.999
s-35.666 -26 -54.999 -44zM599.005 618.999c-5.33301 -11.333 -8.33203 -27.167 -8.99902 -47.5s0.333008 -45.5 3 -75.5l69 43c23.333 14.667 38.5 30.334 45.5 47.001s4.83301 33 -6.5 49c-6 9.33301 -12.833 16 -20.5 20s-16.167 6 -25.5 6
c-11.333 -2.66699 -21.833 -6.83398 -31.5 -12.501s-17.834 -15.5 -24.501 -29.5zM672.006 687.998c13.333 0 25.999 -3.33789 37.999 -10.0049s22.333 -16 31 -28c9.33301 -13.333 13.333 -28.833 12 -46.5s-8 -34.167 -20 -49.5c-3.33301 -6 -8.5 -12.167 -15.5 -18.5
s-14.167 -12.166 -21.5 -17.499c-7.33301 -3.33301 -14.166 -8 -20.499 -14s-13.166 -9.66699 -20.499 -11c-1.33301 -1.33301 -6.33301 -4.33301 -15 -9s-22.334 -11.667 -41.001 -21c-0.666992 -14 -1.5 -25.833 -2.5 -35.5s-2.33301 -18 -4 -25
s-3.66699 -13.167 -6 -18.5s-5.16602 -10.666 -8.49902 -15.999c-2 -6.66699 -5.5 -13.167 -10.5 -19.5s-11.167 -12.166 -18.5 -17.499s-15.166 -10 -23.499 -14s-16.5 -7 -24.5 -9c25.333 -12 44.333 -23.167 57 -33.5s23.667 -22.166 33 -35.499
c8.66699 -12 15.667 -25.333 21 -40s10.666 -33.334 15.999 -56.001c4 -18 7.66699 -33.5 11 -46.5s7.66602 -23.167 12.999 -30.5c6.66699 -9.33301 15 -16.166 25 -20.499s20 -6.5 30 -6.5c13.333 0 26.666 3.16699 39.999 9.5s26 15.333 38 27s22.667 25.667 32 42
s17 34.166 23 53.499l32 -22l-1 -6c-22.667 -50 -48.334 -86.333 -77.001 -109s-63.334 -34 -104.001 -34c-25.333 0 -48.166 5.66699 -68.499 17s-37.166 26.666 -50.499 45.999c-8.66699 12 -16.5 29.333 -23.5 52s-12.167 48.334 -15.5 77.001l-7 56
c-2 4.66699 -3.83301 9.16699 -5.5 13.5s-4.16699 8.83301 -7.5 13.5c-10 14.667 -25 22 -45 22h-3l-22.5 -6.5c-5.66699 -1.66699 -10.667 -3 -15 -4s-8.5 -1.66699 -12.5 -2s-8.66699 -0.5 -14 -0.5c-7.33301 0 -14.333 1.33301 -21 4s-11.334 5.66699 -14.001 9
c-4 5.33301 -0.5 10 10.5 14s27.833 6 50.5 6h33c8 3.33301 15.833 7.5 23.5 12.5s15.167 12.833 22.5 23.5c5.33301 5.33301 9.33301 10.666 12 15.999s4.83398 11.166 6.50098 17.499s2.66699 13.833 3 22.5s0.833008 19 1.5 31l-197 -69v-12l2 -42
c2 -39.333 1.33301 -77 -2 -113s-10 -66.333 -20 -91c-4 -13.333 -9.33301 -25.833 -16 -37.5s-15.334 -22.167 -26.001 -31.5c-14.667 -15.333 -32.5 -26.5 -53.5 -33.5s-43.833 -10.5 -68.5 -10.5c-55.333 0 -99 23 -131 69c-12.667 18 -18.334 38.167 -17.001 60.5
s6.5 44.5 15.5 66.5s20.667 42.333 35 61s28.166 33 41.499 43c10.667 9.33301 23.834 17.833 39.501 25.5s31.167 14.834 46.5 21.501l69 30c1.33301 4.66699 2 8.5 2 11.5v6.5l1.5 34.5c0.333008 7.66699 1.16602 13.167 2.49902 16.5
c1.33301 8.66699 3.33301 18.334 6 29.001s5.66699 22 9 34c4 13.333 7.66699 23.5 11 30.5s7.66602 15.5 12.999 25.5c-53.333 -11.333 -102.333 -17 -147 -17c-11.333 0 -22.166 0.333008 -32.499 1s-21.5 1.83398 -33.5 3.50098l-40.5 5.5l-52.5 7l-14 25
c18.667 -4 35.334 -7.16699 50.001 -9.5s28.167 -4.16602 40.5 -5.49902s24.166 -2.16602 35.499 -2.49902s23.666 -0.5 36.999 -0.5c24 0 45 0.666992 63 2s34 3.16602 48 5.49902s26.5 5.66602 37.5 9.99902s21.5 9.5 31.5 15.5c13.333 28 28 50.333 44 67
s30.667 25 44 25c4.66699 0 9.16699 -1.16699 13.5 -3.5s7.5 -4.83301 9.5 -7.5c10.667 -15.333 8.83398 -32.833 -5.49902 -52.5s-38.5 -36.167 -72.5 -49.5c-1.33301 0 -2.66602 -0.666992 -3.99902 -2s-3.66602 -2.66602 -6.99902 -3.99902l-8 -29.5
c-2 -7.66699 -3.66699 -18.834 -5 -33.501v-23.5c0 -7.66699 0.166992 -15.667 0.5 -24s0.833008 -17.666 1.5 -27.999s1 -22.166 1 -35.499l201 63l1 15c2 31.333 3.66699 56.166 5 74.499s5.33301 35.5 12 51.5c8 19.333 20 35 36 47
c12.667 9.33301 25.834 17.333 39.501 24s30.834 9.66699 51.501 9z" />
    <glyph glyph-name="L" unicode="L" horiz-adv-x="540" 
d="M177 42c-14.667 2.66699 -28.999 5 -42.999 7s-26.667 3.66699 -38 5h-22c-15.333 0 -26.333 -1.66699 -33 -5s-7.66699 -8 -3 -14c3.33301 -4.66699 10 -9 20 -13s20.333 -6 31 -6c18.667 0.666992 34.667 3 48 7s26.666 10.333 39.999 19zM476.001 435
c10 16.667 18.002 34.5 24.002 53.5s9.66699 38.167 11 57.5s0 38.166 -4 56.499s-11 34.833 -21 49.5c-14 18.667 -32.667 28 -56 28c-28 0 -50.333 -17.333 -67 -52c-2 -3.33301 -4.16699 -8.83301 -6.5 -16.5s-4.83301 -16.667 -7.5 -27s-4.83398 -21.333 -6.50098 -33
s-2.83398 -23.167 -3.50098 -34.5c0 -5.33301 -0.166992 -15.666 -0.5 -30.999s-0.5 -32.5 -0.5 -51.5s0.166992 -38 0.5 -57s0.5 -34.833 0.5 -47.5c59.333 19.333 105 54.333 137 105zM87.0029 -5c-38 0 -64.3428 11 -79.0098 33c-10 14 -8.5 25 4.5 33s36.167 12 69.5 12
c8.66699 0 20 -0.666992 34 -2s27.5 -2.83301 40.5 -4.5s24.167 -3.16699 33.5 -4.5s14 -1.66602 14 -0.999023c12.667 6.66699 23.667 16.667 33 30s16 24.666 20 33.999c4 10 8.16699 23.667 12.5 41s6.16602 43 5.49902 77c0 8.66699 0.166992 15.834 0.5 21.501
s0.5 10.5 0.5 14.5v11c0 3.33301 0.333008 7.33301 1 12c-6.66699 -1.33301 -11.667 -2 -15 -2h-12c-32 0 -63.5 3.5 -94.5 10.5s-60.167 17.167 -87.5 30.5s-52.666 29.166 -75.999 47.499s-43 39.166 -59 62.499c-18 26 -29 50.5 -33 73.5s-1.66699 43 7 60
s23.334 30.5 44.001 40.5s46.334 15 77.001 15c9.33301 0 18 -0.333008 26 -1s16 -1.83398 24 -3.50098s16.5 -4 25.5 -7s19.167 -6.83301 30.5 -11.5l1 -15c-11.333 4 -21 7 -29 9s-15.167 3.5 -21.5 4.5s-12.166 1.5 -17.499 1.5h-18c-27.333 0 -49.333 -4.5 -66 -13.5
s-28 -21.333 -34 -37s-6.16699 -34.334 -0.5 -56.001s17.167 -44.834 34.5 -69.501c27.333 -38.667 63.333 -68.667 108 -90s94 -32 148 -32h22c9.33301 0 14 0.666992 14 2c-1.33301 8 -2.16602 16.833 -2.49902 26.5s-0.833008 22.834 -1.5 39.501
c0.666992 17.333 0.833984 31.5 0.500977 42.5s-0.166016 18.167 0.500977 21.5c0 11.333 0.833008 23.166 2.5 35.499s3.66699 24.5 6 36.5s4.83301 23.667 7.5 35s5.33398 21.333 8.00098 30l7.5 21c2.33301 6.66699 6.16602 13 11.499 19
c15.333 22.667 33.166 40.667 53.499 54s40.5 20 60.5 20c19.333 0 38 -5.16699 56 -15.5s33 -24.166 45 -41.499c13.333 -19.333 21.833 -42.5 25.5 -69.5s1.83398 -55.833 -5.49902 -86.5c-5.33301 -20 -13.333 -39.667 -24 -59s-23.667 -35.333 -39 -48
c-19.333 -16 -41.333 -30.833 -66 -44.5s-51 -24.167 -79 -31.5v-6l-3 -37.5c-0.666992 -8.33301 -1.5 -15.666 -2.5 -21.999s-2.33301 -13.5 -4 -21.5s-4.5 -19.667 -8.5 -35l-5 -15.5c-2 -6.33301 -4.16699 -12.666 -6.5 -18.999s-4.66602 -12.166 -6.99902 -17.499
s-4.5 -9.33301 -6.5 -12c-9.33301 -13.333 -18.333 -25.166 -27 -35.499s-19.334 -19.833 -32.001 -28.5l14 -2c18 -2.66699 36 -5.5 54 -8.5l50.5 -8.5c15.667 -2.66699 29.834 -4.83398 42.501 -6.50098s22.334 -2.5 29.001 -2.5c21.333 0 39.333 4.66699 54 14
s27.667 22 39 38l27 44l19 -10l-4 -8c-10 -20 -20 -37.167 -30 -51.5s-20.667 -25.833 -32 -34.5s-23.833 -15 -37.5 -19s-29.5 -6 -47.5 -6c-15.333 0 -33.166 1.33301 -53.499 4s-47.5 8.33398 -81.5 17.001l-38.5 8.5c-10.333 2.33301 -18.166 4.16602 -23.499 5.49902
h-3c-1.33301 0 -4 0.666992 -8 2c-15.333 -8.66699 -33.333 -16.5 -54 -23.5s-43.667 -11.5 -69 -13.5z" />
    <glyph glyph-name="M" unicode="M" horiz-adv-x="1196" 
d="M672 190c-0.666992 -14 -0.834961 -27.0059 -0.501953 -39.0059s0.166016 -21.333 -0.500977 -28c0 -22.667 -1 -41.5 -3 -56.5s-4.66699 -27.167 -8 -36.5s-7.83301 -16 -13.5 -20s-12.5 -6 -20.5 -6c-10 0 -18 1.66699 -24 5s-12 9.33301 -18 18
c-6 8 -10.5 19.333 -13.5 34s-4.66699 32 -5 52s0.666992 42 3 66s5.83301 49.333 10.5 76c2 10 3.33301 19.667 4 29s1 20 1 32s-0.166992 26 -0.5 42s-0.833008 35 -1.5 57c-0.666992 19.333 -1 36.333 -1 51s-0.666992 26.667 -2 36c-1.33301 12.667 -3 25.334 -5 38.001
s-6 23.334 -12 32.001c-16 23.333 -37 35 -63 35c-28 0 -58.333 -21 -91 -63c-11.333 -15.333 -21.333 -30.166 -30 -44.499s-16 -29.5 -22 -45.5s-10.833 -33.167 -14.5 -51.5s-5.83398 -38.833 -6.50098 -61.5l-6 -157c-1.33301 -66 -6.5 -113 -15.5 -141
s-20.833 -42 -35.5 -42c-8 0 -16.5 2.66699 -25.5 8s-16.167 11.333 -21.5 18c-4 6 -7.33301 15.333 -10 28s-4.16699 26.667 -4.5 42s0.333984 31.333 2.00098 48s4.5 32.667 8.5 48l11 49c4 16.667 6.33301 35.334 7 56.001s1.33398 37 2.00098 49
c0.666992 21.333 1.16699 39.5 1.5 54.5s0 28.333 -1 40s-2.16699 22.167 -3.5 31.5s-3 19 -5 29c-9.33301 40.667 -25.333 77.334 -48 110.001c-14.667 20.667 -31 36.334 -49 47.001s-36.667 16 -56 16c-40 0 -73.667 -10.333 -101 -31s-43.666 -48.667 -48.999 -84
c-3.33301 -28 -2.33301 -56.333 3 -85s16.666 -55 33.999 -79c11.333 -16 24 -28.667 38 -38s28.333 -14 43 -14c16 0 29.167 9 39.5 27s17.5 42.333 21.5 73l23 -12c1.33301 -39.333 -5.16699 -69.166 -19.5 -89.499s-36.833 -30.5 -67.5 -30.5
c-24 0 -48.833 7.5 -74.5 22.5s-48.167 36.5 -67.5 64.5c-22 32 -34.333 66.667 -37 104s5.33301 72 24 104c16.667 30 42 53.167 76 69.5s71 24.5 111 24.5c77.333 0 141 -35.333 191 -106c12.667 -17.333 23.334 -35.833 32.001 -55.5s14.667 -37.5 18 -53.5
c52.667 102.667 113.334 154 182.001 154c25.333 0 49.666 -6.83301 72.999 -20.5s44.333 -33.5 63 -59.5c7.33301 -11.333 13.166 -21.833 17.499 -31.5s7.5 -21.834 9.5 -36.501c57.333 96 120 144 188 144c24.667 0 48.5 -6.83301 71.5 -20.5s42.833 -32.167 59.5 -55.5
c9.33301 -14 16.666 -28.333 21.999 -43s9 -32.5 11 -53.5s2.33301 -46.167 1 -75.5s-4 -65 -8 -107c-4 -52 -4.33301 -92.667 -1 -122s10.666 -52.333 21.999 -69c20 -29.333 44.333 -44 73 -44c9.33301 0 21 6.83301 35 20.5s27.5 28.667 40.5 45s24 31.5 33 45.5l13.5 21
l27 -20l-6.5 -11.5c-4.33301 -7.66699 -10.333 -17.167 -18 -28.5s-17 -23.5 -28 -36.5s-22.667 -25.167 -35 -36.5s-25.333 -21 -39 -29s-27.5 -12 -41.5 -12c-24.667 -0.666992 -49.667 7.33301 -75 24s-48.333 40 -69 70c-15.333 22.667 -25.166 47.167 -29.499 73.5
s-4.83301 58.166 -1.5 95.499l8 80c3.33301 38 5.33301 69.5 6 94.5s0.333984 45.833 -0.999023 62.5s-3.66602 29.834 -6.99902 39.501s-7.33301 18.167 -12 25.5c-16 23.333 -36.333 35 -61 35c-16 0 -32.167 -5.5 -48.5 -16.5s-32.166 -26.167 -47.499 -45.5
s-29.5 -42 -42.5 -68s-23.5 -54 -31.5 -84z" />
    <glyph glyph-name="N" unicode="N" horiz-adv-x="795" 
d="M217 421c-1.33301 28 -4.49902 51.668 -9.49902 71.001s-11.167 34.333 -18.5 45c-12 17.333 -27.167 30.666 -45.5 39.999s-38.166 14 -59.499 14c-22 0 -40.833 -4.5 -56.5 -13.5s-30.167 -20.5 -43.5 -34.5c-12.667 -13.333 -22.167 -29 -28.5 -47s-9.5 -37 -9.5 -57
s3.16699 -40.167 9.5 -60.5s15.833 -39.166 28.5 -56.499c12 -17.333 24.333 -29.833 37 -37.5s25.334 -11.5 38.001 -11.5c18.667 0 33.5 8.33301 44.5 25s16.167 40 15.5 70l24 -13c2.66699 -78 -23.666 -117 -78.999 -117c-24.667 0 -49.167 8 -73.5 24
s-45.5 37 -63.5 63c-16 23.333 -27 48.333 -33 75s-6.33301 53 -1 79c4.66699 20.667 13 39.5 25 56.5s27 31.167 45 42.5s38.333 20.166 61 26.499s47 9.5 73 9.5c31.333 0 61.833 -7.83301 91.5 -23.5s54.5 -38.5 74.5 -68.5c8 -10.667 13.667 -20 17 -28
s6.66602 -18.333 9.99902 -31l7 16c24 43.333 50.333 76.333 79 99s58 34 88 34c23.333 0 47.5 -7 72.5 -21s45.5 -32.667 61.5 -56c5.33301 -8 10.5 -17.167 15.5 -27.5s8.5 -20.833 10.5 -31.5c2 -8.66699 3.5 -17.167 4.5 -25.5s1.5 -19.5 1.5 -33.5
s-0.666992 -32.833 -2 -56.5s-3.33301 -55.167 -6 -94.5c-2.66699 -28 -4.33398 -51.833 -5.00098 -71.5s-0.166992 -36.5 1.5 -50.5s4.33398 -26 8.00098 -36s8.5 -19.333 14.5 -28c9.33301 -14 20.166 -24.5 32.499 -31.5s23.833 -10.5 34.5 -10.5
c22 4.66699 43 18.834 63 42.501s38.667 55.5 56 95.5l28 -22l-26 -49c-9.33301 -17.333 -20.333 -33.333 -33 -48s-26.667 -27.167 -42 -37.5s-33 -15.833 -53 -16.5c-24.667 0 -49.834 7.5 -75.501 22.5s-47.5 35.5 -65.5 61.5c-18.667 26.667 -30 55.667 -34 87
s-4.33301 70 -1 116l5.5 76c1.66699 22.667 2.83398 45.667 3.50098 69c0.666992 31.333 0.166992 55 -1.5 71s-6.16699 29.333 -13.5 40c-8 11.333 -17 19.5 -27 24.5s-20.667 7.5 -32 7.5c-18.667 0 -38.667 -9.16699 -60 -27.5s-41 -42.166 -59 -71.499
c-9.33301 -15.333 -16 -29.333 -20 -42s-7 -30.667 -9 -54c-4 -18 -7 -39.333 -9 -64s-3.66699 -49.334 -5 -74.001c-1.33301 -21.333 -2.5 -38.833 -3.5 -52.5s-1.83301 -25.5 -2.5 -35.5s-1.33398 -18.667 -2.00098 -26l-2 -23
c-0.666992 -12 -1.83398 -24.333 -3.50098 -37s-4.33398 -24.167 -8.00098 -34.5s-8.16699 -19 -13.5 -26s-11.666 -10.5 -18.999 -10.5c-8 0 -16.167 2.16699 -24.5 6.5s-14.833 9.5 -19.5 15.5c-8 12 -12.667 32.167 -14 60.5s1.66699 60.5 9 96.5l9 49
c4.66699 23.333 8 51.666 10 84.999s3 69.333 3 108z" />
    <glyph glyph-name="O" unicode="O" horiz-adv-x="548" 
d="M400 144c4.66699 11.333 8.6709 23.6709 12.0039 37.0039s5.66602 25.666 6.99902 36.999c4.66699 24.667 6.83398 51.667 6.50098 81s-3 58.166 -8 86.499s-12 55.333 -21 81s-19.167 47.5 -30.5 65.5c-11.333 16.667 -22.833 29 -34.5 37s-25.167 12 -40.5 12
c-20.667 0 -39.334 -8.66699 -56.001 -26s-31.334 -39.666 -44.001 -66.999c-4.66699 -13.333 -8.33398 -27.5 -11.001 -42.5l-8 -44.5l-26 12c-0.666992 19.333 1 38.333 5 57s10 35.667 18 51c15.333 28 33.5 51 54.5 69s44.833 27 71.5 27c26 0 48.667 -5 68 -15
s38.666 -26 57.999 -48c6 5.33301 8.33301 13 7 23s-5.66602 20.333 -12.999 31c-13.333 21.333 -31.666 38.166 -54.999 50.499s-48 18.5 -74 18.5c-30 0 -58 -9.16699 -84 -27.5s-48.667 -43.166 -68 -74.499c-19.333 -42.667 -32.166 -87.834 -38.499 -135.501
s-8 -93.5 -5 -137.5s9.66699 -84.167 20 -120.5s22.166 -64.833 35.499 -85.5c27.333 -44 64.333 -66 111 -66c16.667 0 32.667 3.83301 48 11.5s29.166 17.167 41.499 28.5s23.166 23.666 32.499 36.999s16.333 25.666 21 36.999zM444.004 133.005
c-26 -46 -54.665 -79.3379 -85.998 -100.005s-65 -31.667 -101 -33c-41.333 0 -79.333 10.5 -114 31.5s-64.667 51.5 -90 91.5c-16.667 25.333 -29.667 56 -39 92s-14 73.667 -14 113s4.83301 79 14.5 119s25.167 77 46.5 111c13.333 22 30 42 50 60s41.167 33.333 63.5 46
s44.666 22.334 66.999 29.001s42.5 10 60.5 10c30 0 56.833 -5.66699 80.5 -17s42.834 -28.666 57.501 -51.999c12.667 -19.333 18.667 -37.666 18 -54.999s-8.33398 -31.666 -23.001 -42.999c24 -39.333 40 -81.5 48 -126.5s7.33301 -95.833 -2 -152.5l-7 -36
c-2 -10.667 -4.33301 -20.667 -7 -30s-5.83398 -18.666 -9.50098 -27.999s-8.16699 -19.333 -13.5 -30z" />
    <glyph glyph-name="P" unicode="P" horiz-adv-x="619" 
d="M424 283c21.333 -6 41.001 -7.66895 59.001 -5.00195s33.333 5.66699 46 9c14 6 23.167 15.5 27.5 28.5s4.83301 28 1.5 45s-9.66602 35 -18.999 54s-20.666 37.833 -33.999 56.5l-13 17.5c-4.66699 6.33301 -9.33398 12 -14.001 17l-11.5 12.5
c-3 3.33301 -4.83301 5 -5.5 5c-18.667 -13.333 -32.334 -28.666 -41.001 -45.999c-10.667 -21.333 -15.5 -41.666 -14.5 -60.999s3.16699 -39.333 6.5 -60c2 -12 3.66699 -24.167 5 -36.5s3.66602 -24.5 6.99902 -36.5zM564.001 261.998
c-24.667 -9.33301 -49.3311 -12.9873 -73.998 -10.9873s-46 5.66699 -64 11l-3 -19.5c-2 -13 -5.83301 -29.333 -11.5 -49s-13.167 -40.834 -22.5 -63.501s-21.166 -43.667 -35.499 -63s-31 -35.5 -50 -48.5s-41.167 -19.5 -66.5 -19.5c-22 0 -43.833 2.33301 -65.5 7
s-42.167 11.5 -61.5 20.5s-37 20 -53 33s-29.667 27.5 -41 43.5c-14 20.667 -19.5 38 -16.5 52s13.833 21 32.5 21c17.333 0 35.166 -5 53.499 -15s33.5 -23.667 45.5 -41c9.33301 -13.333 13.166 -25.333 11.499 -36s-7.16699 -16.667 -16.5 -18
c-5.33301 0 -8.16602 -1 -8.49902 -3s0.166992 -4.66699 1.5 -8c7.33301 -9.33301 21.5 -17.333 42.5 -24s42.833 -10 65.5 -10c37.333 0 65.666 10.667 84.999 32c6 7.33301 11.167 15.833 15.5 25.5s8 22.167 11 37.5s5.16699 34.166 6.5 56.499
s2.66602 49.5 3.99902 81.5l1 32c-36 16 -67.167 33.667 -93.5 53s-47.833 41 -64.5 65c-9.33301 13.333 -15.666 26 -18.999 38s-5.66602 24.667 -6.99902 38l22 -9c2 -11.333 5.16699 -22.5 9.5 -33.5s10.833 -21.167 19.5 -30.5c6 -10 16.5 -20.833 31.5 -32.5
s30.167 -22.5 45.5 -32.5s28.666 -18.333 39.999 -25s17 -9.66699 17 -9v27v13v13.5c0 5.66699 0.333008 15.5 1 29.5c1.33301 24.667 6 44.834 14 60.501s15 27.834 21 36.501c8 11.333 16.5 21.166 25.5 29.499s19.167 17.166 30.5 26.499c-24 24 -52 45.667 -84 65
s-62.667 36 -92 50c-8 4 -19.5 8.66699 -34.5 14s-32.167 10.5 -51.5 15.5s-40.666 9.16699 -63.999 12.5s-47.666 4.66602 -72.999 3.99902c-50 -1.33301 -91.5 -10 -124.5 -26s-56.333 -37.667 -70 -65s-17 -59.333 -10 -96s25.5 -76.334 55.5 -119.001
c14.667 -20.667 31.167 -39.834 49.5 -57.501s37.666 -33 57.999 -46s41.333 -23.833 63 -32.5s43.5 -14.334 65.5 -17.001l7 -16c-59.333 6.66699 -115.666 26.5 -168.999 59.5s-98.666 75.833 -135.999 128.5c-30.667 43.333 -48.334 83.666 -53.001 120.999
s2.33301 69.666 21 96.999s48 48.833 88 64.5s89.667 23.5 149 23.5c35.333 0 69.833 -2 103.5 -6s66.5 -10.667 98.5 -20c22.667 -6.66699 48 -17.334 76 -32.001s54.333 -29.334 79 -44.001s45.5 -27.5 62.5 -38.5s25.833 -16.5 26.5 -16.5
c16 5.33301 30 9.16602 42 11.499s25.667 3.16602 41 2.49902c11.333 -0.666992 21.5 -1.83398 30.5 -3.50098s18 -4.5 27 -8.5s18.5 -9.33301 28.5 -16s21.667 -15 35 -25l-4 -5c-12.667 6.66699 -23.5 12.167 -32.5 16.5s-17.167 8 -24.5 11s-15 5.33301 -23 7
s-17.333 3.16699 -28 4.5s-21.334 0.5 -32.001 -2.5s-22.334 -7.16699 -35.001 -12.5l25 -23c7.33301 -6.66699 13.833 -13.167 19.5 -19.5l16.5 -19c5.33301 -6.33301 10.666 -13.5 15.999 -21.5c36 -51.333 51.667 -94.5 47 -129.5s-27.667 -59.167 -69 -72.5z" />
    <glyph glyph-name="Q" unicode="Q" horiz-adv-x="653" 
d="M97 28c24 1.33301 47.833 5.66699 71.5 13s44.834 15.666 63.501 24.999c-23.333 7.33301 -47.5 14.5 -72.5 21.5s-49.833 10.167 -74.5 9.5c-28 0 -50.833 -4.66699 -68.5 -14s-23.5 -20.333 -17.5 -33c4.66699 -6.66699 11.167 -11.667 19.5 -15
s17 -5.66602 26 -6.99902s18.167 -1.83301 27.5 -1.5s17.666 0.833008 24.999 1.5zM63 0.000976562c-32 0 -56.8359 2.66504 -74.5029 7.99805s-30.167 15.666 -37.5 30.999c-10 20.667 1.33301 41.334 34 62.001c15.333 9.33301 31.833 16.5 49.5 21.5
s33.5 8.16699 47.5 9.5c10 1.33301 19.667 2.16602 29 2.49902s20.333 0.5 33 0.5c25.333 0 49.333 -2.16699 72 -6.5s47.334 -10.5 74.001 -18.5c26.667 24.667 48.5 54.5 65.5 89.5s28.5 72 34.5 111s6.66699 78.333 2 118s-15.334 76.5 -32.001 110.5
c-17.333 34.667 -39.666 62.834 -66.999 84.501s-56 32.5 -86 32.5c-25.333 0 -47.5 -6.5 -66.5 -19.5s-34.167 -30.5 -45.5 -52.5c-12 -27.333 -18 -57.5 -18 -90.5s6.66699 -63.833 20 -92.5c9.33301 -19.333 22.5 -34.666 39.5 -45.999s35.167 -17 54.5 -17
c25.333 0 45.166 11.667 59.499 35s21.833 57.666 22.5 102.999l26 -9c3.33301 -49.333 -5.33398 -88.666 -26.001 -117.999s-50.667 -44 -90 -44c-30 0 -56.667 7.66699 -80 23s-41.666 36.666 -54.999 63.999c-13.333 28.667 -19.5 60.834 -18.5 96.501
s9.16699 69.5 24.5 101.5c18.667 33.333 44.334 59 77.001 77s68.667 27 108 27c40.667 0 78.834 -12.667 114.501 -38s65.167 -61.333 88.5 -108c16.667 -35.333 26.834 -72.666 30.501 -111.999s0.666992 -78.666 -9 -117.999s-25.334 -77.5 -47.001 -114.5
s-49.5 -70.833 -83.5 -101.5c49.333 -18 91 -30.667 125 -38s62 -11 84 -11c18 0 34 3.5 48 10.5s29.667 19.833 47 38.5c11.333 12.667 20 24.5 26 35.5s12.667 22.167 20 33.5l26 -22l-4 -6c-33.333 -50.667 -66.166 -87.167 -98.499 -109.5s-67.833 -33.5 -106.5 -33.5
c-21.333 0 -52 4.83301 -92 14.5s-85 22.5 -135 38.5c-31.333 -17.333 -63.333 -30.333 -96 -39s-70.667 -13.334 -114 -14.001z" />
    <glyph glyph-name="R" unicode="R" horiz-adv-x="875" 
d="M559 497c-9.33301 19.333 -20.5039 36.1641 -33.5039 50.4971s-28.833 27.5 -47.5 39.5c-8 -15.333 -13.333 -26.333 -16 -33l-9 -23c-2.66699 -7.33301 -5.83398 -17.5 -9.50098 -30.5s-7.16699 -27.667 -10.5 -44s-6.66602 -33.666 -9.99902 -51.999
s-6.33301 -35.833 -9 -52.5c-5.33301 -31.333 -9.16602 -55.833 -11.499 -73.5s-4.83301 -29.167 -7.5 -34.5c-6 -37.333 -18 -73 -36 -107s-38.667 -62.333 -62 -85c-19.333 -16 -44.166 -28.667 -74.499 -38s-65.5 -14 -105.5 -14c-24 0 -47.667 3 -71 9
s-45.166 14.333 -65.499 25s-38.333 23.667 -54 39s-28.167 32.666 -37.5 51.999c-11.333 22.667 -13.166 41.667 -5.49902 57s23.167 23 46.5 23c20 0 38.5 -5.83301 55.5 -17.5s30.167 -26.834 39.5 -45.501s12.5 -33.834 9.5 -45.501s-11.833 -18.167 -26.5 -19.5
c-10 0 -13.333 -4 -10 -12c2.66699 -5.33301 7.83398 -10.333 15.501 -15s17 -8.83398 28 -12.501s22.833 -6.66699 35.5 -9s25.667 -3.5 39 -3.5c45.333 0 81.333 13.333 108 40c6 6 11.333 12.333 16 19s9.16699 14.667 13.5 24s8.66602 20.833 12.999 34.5
s9.16602 31.167 14.499 52.5c2 7.33301 5.5 19 10.5 35s11.167 37 18.5 63l22 70l16 48c4.66699 13.333 9.33398 25.5 14.001 36.5s10 22.5 16 34.5c10.667 26.667 22.167 50.334 34.5 71.001l31.5 52c-11.333 5.33301 -21.166 9.66602 -29.499 12.999
s-16.833 5.83301 -25.5 7.5s-18.334 2.83398 -29.001 3.50098s-23.667 1 -39 1c-36 0 -71.5 -5.83301 -106.5 -17.5s-63.833 -27.167 -86.5 -46.5c-34.667 -28 -57.334 -59.5 -68.001 -94.5s-7.66699 -69.833 9 -104.5c20.667 -40 49.334 -60 86.001 -60
c15.333 0 29.5 3.83301 42.5 11.5s23.833 17.834 32.5 30.501s14.834 27 18.501 43s4.16699 32.333 1.5 49h15c6 -21.333 7.5 -41.666 4.5 -60.999s-9.66699 -36.166 -20 -50.499s-23.833 -25.833 -40.5 -34.5s-36 -13 -58 -13c-28 0 -54.167 7.66699 -78.5 23
s-43.166 37 -56.499 65c-18 36.667 -22.333 72.334 -13 107.001s28.833 65.334 58.5 92.001s68.167 48 115.5 64s100.333 24 159 24c29.333 0 54.5 -1.66699 75.5 -5s42.167 -8.66602 63.5 -15.999c26 30 54.167 52.333 84.5 67s61.166 22 92.499 22
c32.667 0 61.667 -7 87 -21s48.333 -37.667 69 -71l-15 -3c-16.667 22 -37.334 39.5 -62.001 52.5s-50.334 19.5 -77.001 19.5c-29.333 0 -57 -7 -83 -21s-47.667 -32.667 -65 -56c30 -13.333 54.667 -28.5 74 -45.5s35 -37.833 47 -62.5c17.333 -36.667 21 -68.5 11 -95.5
s-33.333 -52.167 -70 -75.5c46.667 -7.33301 80.667 -33 102 -77c7.33301 -14 11.666 -27.833 12.999 -41.5s1 -32.834 -1 -57.501c-3.33301 -22.667 -4 -41.5 -2 -56.5s5.66699 -28.167 11 -39.5c12 -24.667 30.333 -37 55 -37c12 0 25.167 3.66699 39.5 11
s28.666 17.333 42.999 30s28.333 27.5 42 44.5s25.834 35.167 36.501 54.5l26 -23l-6 -5c-33.333 -52.667 -66.166 -90.667 -98.499 -114s-68.833 -35 -109.5 -35c-54 0 -91.667 21.667 -113 65c-5.33301 10 -9.16602 20 -11.499 30s-4 21.667 -5 35
s-1.16699 29.166 -0.5 47.499s1.66699 40.5 3 66.5c3.33301 10.667 4 20.334 2 29.001s-4 15.334 -6 20.001c-12 23.333 -30 35 -54 35h-19l-33 -10c-1.33301 0 -2.5 -0.5 -3.5 -1.5s-2.16699 -1.5 -3.5 -1.5c-15.333 0 -25 5.33301 -29 16c-8.66699 16.667 16 25 74 25h6
c25.333 21.333 40.5 43.166 45.5 65.499s0.833008 47.5 -12.5 75.5z" />
    <glyph glyph-name="S" unicode="S" horiz-adv-x="565" 
d="M396 425c6.66699 -14 11.3408 -25.835 14.0078 -35.502s5.66699 -18.167 9 -25.5c19.333 -54 33.333 -98.5 42 -133.5s13.667 -63.833 15 -86.5c1.33301 -46 -13.167 -81.5 -43.5 -106.5s-73.5 -37.5 -129.5 -37.5c-24 0 -48.667 3.33301 -74 10s-50 15.834 -74 27.501
s-46.833 25.667 -68.5 42s-40.5 34.166 -56.5 53.499c-20 24 -29.667 44.5 -29 61.5s12 25.5 34 25.5c18 0 37.333 -5.83301 58 -17.5s38.667 -26.5 54 -44.5c13.333 -15.333 21 -29 23 -41s-1.66699 -19.667 -11 -23h-16
c-4.66699 -1.33301 -6.33398 -3.66602 -5.00098 -6.99902s3.66602 -7.33301 6.99902 -12c6 -7.33301 14.167 -14 24.5 -20s21.666 -11.167 33.999 -15.5s25.333 -7.83301 39 -10.5s26.5 -4 38.5 -4c17.333 0 32.833 2.66699 46.5 8s24.834 13 33.501 23
c9.33301 9.33301 16.166 20.666 20.499 33.999s6.5 29.5 6.5 48.5s-2 41.167 -6 66.5s-10 55 -18 89c-4.66699 17.333 -8.66699 31.666 -12 42.999s-6.16602 21.333 -8.49902 30s-4.33301 17 -6 25s-3.5 18 -5.5 30h-28c-84 0 -158.667 12.667 -224 38s-118 62 -158 110
c-20.667 24 -34 47.333 -40 70s-5.5 42.5 1.5 59.5s20 30.667 39 41s43.5 15.5 73.5 15.5c33.333 0 67.166 -5.33301 101.499 -16s67.5 -25.667 99.5 -45l-1 -12c-35.333 16.667 -65.5 28.834 -90.5 36.501s-50.5 11.5 -76.5 11.5s-47 -4.16699 -63 -12.5
s-26.667 -19.5 -32 -33.5s-5.16602 -30.5 0.500977 -49.5s17.5 -39.167 35.5 -60.5c16 -19.333 35.667 -36.833 59 -52.5s49.166 -29.167 77.499 -40.5s58.666 -20 90.999 -26s65.5 -9 99.5 -9h31c-1.33301 17.333 -2.33301 32.333 -3 45s-0.833984 23.834 -0.500977 33.501
s1.16602 18.834 2.49902 27.501s3 17.667 5 27c3.33301 14 8 27.333 14 40s11.667 22.667 17 30c26.667 32 61.667 48 105 48c19.333 0 37.166 -4.66699 53.499 -14s33.166 -24.333 50.499 -45c12.667 -15.333 20.5 -30.833 23.5 -46.5s2 -31 -3 -46
s-13.833 -29.167 -26.5 -42.5s-28 -25.333 -46 -36c-17.333 -10 -36.333 -18.833 -57 -26.5s-43 -13.167 -67 -16.5zM500.007 503.998c52.667 43.333 57.668 90 15.001 140c-14 17.333 -31.333 26 -52 26c-18.667 0 -34.667 -4 -48 -12s-24 -19 -32 -33
c-8.66699 -18 -13 -42.667 -13 -74s5.33301 -65 16 -101c19.333 4.66699 39.166 11.5 59.499 20.5s38.5 20.167 54.5 33.5z" />
    <glyph glyph-name="T" unicode="T" 
d="M549 679c13.333 2.66699 26.0059 4.50293 38.0059 5.50293s24.333 0.833008 37 -0.5c21.333 -2.66699 39.666 -6.16699 54.999 -10.5s27.333 -11.833 36 -22.5c11.333 -15.333 7.33301 -29 -12 -41s-50 -21.333 -92 -28l-12 -1c-15.333 -3.33301 -30 -4.83301 -44 -4.5
s-30.667 0.5 -50 0.5h-26c-8 0 -19.667 0.666992 -35 2c-5.33301 -12 -9.33301 -24.333 -12 -37s-4.16699 -27.167 -4.5 -43.5s0.333984 -35 2.00098 -56s4.5 -46.167 8.5 -75.5c4 -34 6.83301 -63.5 8.5 -88.5s2.33398 -47.167 2.00098 -66.5
s-1.83301 -37.166 -4.5 -53.499s-6.33398 -32.5 -11.001 -48.5c-12.667 -38.667 -31.834 -66.667 -57.501 -84s-61.167 -26 -106.5 -26c-48 0 -93.667 10.833 -137 32.5s-80 51.834 -110 90.501c-17.333 23.333 -24.333 42.5 -21 57.5s15 22.5 35 22.5s40.5 -5.5 61.5 -16.5
s38.5 -26.167 52.5 -45.5c3.33301 -4 6 -8.16699 8 -12.5s3 -7.5 3 -9.5c5.33301 -10.667 6.16602 -20.334 2.49902 -29.001s-9.16699 -13 -16.5 -13h-16c-1.33301 0 -2.16602 -1.33301 -2.49902 -4s0.5 -5.66699 2.5 -9c2.66699 -2.66699 6 -5.5 10 -8.5
s8.66699 -6.16699 14 -9.5c16 -9.33301 32.667 -15.833 50 -19.5s34.333 -5.5 51 -5.5c18.667 0 34.5 3 47.5 9s23.5 16 31.5 30s13.5 32.667 16.5 56s3.83301 52.333 2.5 87l-6 87c-0.666992 20.667 -0.666992 41.667 0 63s1.66699 42 3 62s3.16602 38.667 5.49902 56
s5.16602 32 8.49902 44c3.33301 11.333 7.33301 21.666 12 30.999s12.667 21.333 24 36c-12 2 -22.167 3.5 -30.5 4.5s-16.166 1.83301 -23.499 2.5s-14.666 1.5 -21.999 2.5l-26 3.5l-121 21c-32 5.33301 -59.833 9.5 -83.5 12.5s-44.167 4.5 -61.5 4.5
c-42.667 0 -77.5 -6.5 -104.5 -19.5s-45.5 -30.833 -55.5 -53.5s-11.167 -49.334 -3.5 -80.001s24.5 -63.334 50.5 -98.001c23.333 -31.333 49.166 -55 77.499 -71s57.166 -24 86.499 -24c24 0 43.833 4.5 59.5 13.5s26.834 21.833 33.501 38.5s8.5 36.5 5.5 59.5
s-11.167 48.167 -24.5 75.5l28 -2c14.667 -29.333 23.667 -56.833 27 -82.5s1 -48 -7 -67s-21 -33.833 -39 -44.5s-40.333 -16 -67 -16c-36 0 -72.667 10.667 -110 32s-70 50.666 -98 87.999c-31.333 42 -50.333 81.333 -57 118s-2.33398 68.667 12.999 96
s41.166 48.833 77.499 64.5s81.833 23.5 136.5 23.5c16.667 0 33 -0.333008 49 -1s33.167 -2.33398 51.5 -5.00098s39.166 -6.16699 62.499 -10.5s50.666 -9.83301 81.999 -16.5c35.333 -8 65.5 -14.167 90.5 -18.5s37.833 -6.16602 38.5 -5.49902
c18 11.333 35 21.5 51 30.5s36.667 16.167 62 21.5zM481.006 620.003c22.667 -5.33301 43.332 -8.83398 61.999 -10.501s35 -2.5 49 -2.5c29.333 3.33301 51.5 8 66.5 14s20.167 11.667 15.5 17c-4.66699 6.66699 -13 11.334 -25 14.001s-26.667 4 -44 4
c-21.333 -1.33301 -42.166 -4.33301 -62.499 -9s-40.833 -13.667 -61.5 -27z" />
    <glyph glyph-name="U" unicode="U" horiz-adv-x="753" 
d="M302 -1c-22.667 0 -43.8311 5.50391 -63.498 16.5039s-35.834 27.167 -48.501 48.5c-6 10 -10.667 20.667 -14 32s-5.5 24.166 -6.5 38.499s-0.666992 31.166 1 50.499s4.83398 42.333 9.50098 69c14.667 76.667 24.667 140.5 30 191.5s7.66602 94.833 6.99902 131.5
c-1.33301 20 -5.33301 42.167 -12 66.5s-15 45.166 -25 62.499c-19.333 34 -43.5 60.833 -72.5 80.5s-59.167 29.5 -90.5 29.5c-24 0 -46.333 -5 -67 -15s-36.667 -23.667 -48 -41c-8.66699 -13.333 -15.334 -28.5 -20.001 -45.5s-7.16699 -34.5 -7.5 -52.5s1.5 -36 5.5 -54
s10.667 -34.667 20 -50c14 -24 31.333 -42.5 52 -55.5s43.667 -19.5 69 -19.5c14.667 0 25.667 2.16699 33 6.5s14.333 11.166 21 20.499l18 -16c-8 -12.667 -16.833 -21.167 -26.5 -25.5s-22.5 -6.5 -38.5 -6.5c-34 0 -65 9.33301 -93 28s-51.667 45 -71 79
c-20 34 -31 67.167 -33 99.5s3.33301 61 16 86s32.334 45 59.001 60s58.667 22.5 96 22.5c44 0 85.667 -13 125 -39s74 -64.667 104 -116c14.667 -25.333 26.667 -50.833 36 -76.5s16.166 -52.5 20.499 -80.5s6.16602 -57.333 5.49902 -88s-3.33398 -63.667 -8.00098 -99
c-2 -15.333 -4.66699 -32.166 -8 -50.499l-10 -55.5l-9.5 -54.5c-3 -17.667 -4.83301 -33.167 -5.5 -46.5c0 -12 0.166992 -24.333 0.5 -37s2.83301 -24.334 7.5 -35.001c5.33301 -9.33301 11.833 -16.166 19.5 -20.499s15.5 -6.5 23.5 -6.5c15.333 0 31.833 7 49.5 21
s34.834 32.5 51.501 55.5s31.834 49.5 45.501 79.5s24.5 61 32.5 93c2 5.33301 3.33301 9.83301 4 13.5s1 8 1 13v18v29.5c1.33301 26.667 3.66602 52.167 6.99902 76.5s6.33301 42.5 9 54.5c3.33301 15.333 10 26.666 20 33.999s22.333 11 37 11
s24.334 -4.33301 29.001 -13c5.33301 -8 8 -18.667 8 -32s-4.66699 -31.333 -14 -54c-2 -5.33301 -4 -12.333 -6 -21s-4 -18.167 -6 -28.5s-3.66699 -20.5 -5 -30.5s-2.33301 -18.667 -3 -26l-2 -58c-1.33301 -24 -2.16602 -45 -2.49902 -63s0.5 -38.667 2.5 -62
c1.33301 -17.333 3.66602 -32 6.99902 -44s7.66602 -22.667 12.999 -32c7.33301 -12.667 16.166 -22.167 26.499 -28.5s21.166 -9.5 32.499 -9.5c26 8 50.5 22.667 73.5 44s42.5 47 58.5 77l25 -20c-7.33301 -12.667 -16.166 -26.167 -26.499 -40.5
s-22.166 -27.833 -35.499 -40.5s-28.5 -23.5 -45.5 -32.5s-35.833 -14.5 -56.5 -16.5c-27.333 0 -51.666 6.5 -72.999 19.5s-39 31.5 -53 55.5c-9.33301 14.667 -15.833 29 -19.5 43s-6.16699 33.667 -7.5 59c-6.66699 -21.333 -15.5 -42.5 -26.5 -63.5
s-24.167 -40 -39.5 -57s-32.333 -30.833 -51 -41.5s-39 -16 -61 -16z" />
    <glyph glyph-name="V" unicode="V" horiz-adv-x="516" 
d="M160 133l-5.49316 19.5098c-1.66699 5.66699 -3.83398 12 -6.50098 19s-5.5 15.167 -8.5 24.5l-11.5 35c-14 40 -25 75 -33 105s-14.333 58.333 -19 85c-3.33301 25.333 -5.33301 50.666 -6 75.999s1 45.666 5 60.999c-14.667 -5.33301 -27.5 -8.5 -38.5 -9.5
s-24.833 -2.16699 -41.5 -3.5l-119 -3c-12 0 -22.833 -0.166992 -32.5 -0.5s-18.834 -0.833008 -27.501 -1.5c-56.667 -7.33301 -92.334 -22.666 -107.001 -45.999s-8.66699 -53.666 18 -90.999c14 -19.333 33.333 -36.333 58 -51s52.667 -27 84 -37l1 -18
c-45.333 13.333 -84.166 30 -116.499 50s-59.833 45.667 -82.5 77c-16 22.667 -24.5 43.834 -25.5 63.501s4.83301 36.167 17.5 49.5c9.33301 4 18.333 8.66699 27 14s18.334 8.66602 29.001 9.99902c11.333 2.66699 24 5 38 7s25.667 3.33301 35 4
c10.667 1.33301 24.167 2.16602 40.5 2.49902s36.5 0.5 60.5 0.5c41.333 0 75.833 0.666992 103.5 2s54.167 3.66602 79.5 6.99902v12l13 36c0.666992 9.33301 6.33398 22 17.001 38c7.33301 8.66699 13.666 15.334 18.999 20.001s11.333 7 18 7
c5.33301 0 10.833 -2 16.5 -6s10.167 -8 13.5 -12c11.333 -15.333 12.833 -31.166 4.5 -47.499s-24.833 -34.166 -49.5 -53.499c-1.33301 -9.33301 -0.666016 -23.333 2.00098 -42s6.5 -39.667 11.5 -63s10.667 -48 17 -74s12.833 -50.333 19.5 -73l13 -46
c3.33301 -12 6.16602 -22.833 8.49902 -32.5s4.83301 -19.334 7.5 -29.001s5.66699 -21.167 9 -34.5c49.333 39.333 90.166 77.166 122.499 113.499s56.5 72 72.5 107s24.167 69.667 24.5 104s-6.83398 69.166 -21.501 104.499l-26 36c-19.333 27.333 -31.333 49.5 -36 66.5
s0.666016 25.5 15.999 25.5c10.667 0 22.334 -5 35.001 -15s25.667 -24 39 -42c9.33301 -12.667 16.5 -25.834 21.5 -39.501s9.5 -31.834 13.5 -54.501c21.333 -12 41.333 -20.333 60 -25s38.334 -7 59.001 -7c7.33301 0 12.833 0.166992 16.5 0.5s9.5 1.16602 17.5 2.49902
l16 -19c-7.33301 -4 -14.5 -6.83301 -21.5 -8.5s-16.167 -2.5 -27.5 -2.5c-15.333 0 -32.333 2.66699 -51 8s-38 12.666 -58 21.999l-2 -10c0.666992 -12.667 1.16699 -23.834 1.5 -33.501s0.166016 -18.834 -0.500977 -27.501s-1.83398 -17.334 -3.50098 -26.001
s-3.83398 -18 -6.50098 -28c-11.333 -42 -31.833 -82.333 -61.5 -121s-64.5 -74.667 -104.5 -108l-78 -58l-11 -7c0.666992 -4.66699 1.16699 -7.66699 1.5 -9s-0.166992 -2 -1.5 -2v-43v-14c0 -5.33301 -0.666992 -11.333 -2 -18s-3 -13.5 -5 -20.5
s-4.33301 -13.5 -7 -19.5s-5.33398 -10.667 -8.00098 -14c-4.66699 -6.66699 -10 -10.167 -16 -10.5s-12 -0.5 -18 -0.5c-10 0 -20.333 2.66699 -31 8s-19.334 12.666 -26.001 21.999c-12 16.667 -16.333 32 -13 46s16 29.667 38 47zM145.007 76.0098
c-8.66699 -9.33301 -12.5 -17.502 -11.5 -24.502s3.83301 -13.167 8.5 -18.5c2 -3.33301 5.16699 -6.16602 9.5 -8.49902s7.83301 -3.5 10.5 -3.5c10 0 16.667 5 20 15c2.66699 7.33301 3 16.333 1 27s-5.33301 24.334 -10 41.001c-12 -10 -21.333 -19.333 -28 -28z" />
    <glyph glyph-name="W" unicode="W" horiz-adv-x="721" 
d="M512 -4c-8.66699 0 -14.9932 3.01172 -18.9932 9.01172c-6.66699 9.33301 -10 20 -10 32s1.66699 27 5 45c0 1.33301 0.166992 2.83301 0.5 4.5s0.166016 4.16699 -0.500977 7.5l-11 32c-22 46.667 -39 85 -51 115l-29 72l-15 54
c-2.66699 7.33301 -4.33398 12.666 -5.00098 15.999s-1 6 -1 8c-1.33301 1.33301 -2.5 3.16602 -3.5 5.49902s-0.833008 4.16602 0.5 5.49902l-19 -46.5c-5.33301 -13 -11.5 -26.833 -18.5 -41.5s-15.667 -31.667 -26 -51l-41.5 -74
c-5.33301 -10.667 -10.666 -20.5 -15.999 -29.5s-9.66602 -17.167 -12.999 -24.5l-6 -17c0 -3.33301 -0.166992 -6 -0.5 -8s-0.833008 -3.66699 -1.5 -5c2 -14.667 2 -28.5 0 -41.5s-5.16699 -24.167 -9.5 -33.5s-9.66602 -16.833 -15.999 -22.5s-12.833 -8.5 -19.5 -8.5
c-5.33301 0 -9 0.666992 -11 2s-4 3.33301 -6 6c-7.33301 9.33301 -10.333 22.5 -9 39.5s8 36.5 20 58.5v10l-9 20l-12 36l-37 103c-11.333 33.333 -20.666 63.833 -27.999 91.5s-12.833 53.334 -16.5 77.001s-5.16699 45.667 -4.5 66s3.33398 40.166 8.00098 59.499
c-10.667 -1.33301 -19.5 -2.33301 -26.5 -3s-16.167 -1.66699 -27.5 -3l-91 -6c-54.667 -4.66699 -99.5 -11 -134.5 -19s-61 -18.167 -78 -30.5s-25.167 -27.166 -24.5 -44.499s9.33398 -37.333 26.001 -60c13.333 -18.667 29.666 -35.834 48.999 -51.501
s40.5 -29.334 63.5 -41.001s46.667 -20.834 71 -27.501s48.166 -10 71.499 -10l9 2l13 -17c-6.66699 -1.33301 -11.334 -2.16602 -14.001 -2.49902s-6 -0.5 -10 -0.5c-26.667 0 -54.834 4.16699 -84.501 12.5s-58.334 19.666 -86.001 33.999s-53.5 31 -77.5 50
s-43.667 39.167 -59 60.5c-39.333 53.333 -43 94.666 -11 123.999c11.333 8 23.5 15.167 36.5 21.5s28.667 11.5 47 15.5s40.333 7 66 9s56.5 3.33301 92.5 4c29.333 0.666992 53.5 1.5 72.5 2.5s35 2.16699 48 3.5s23.833 2.83301 32.5 4.5s17.334 3.5 26.001 5.5
c1.33301 4 3 7.5 5 10.5s3.33301 5.16699 4 6.5c2.66699 4.66699 4.16699 8.83398 4.5 12.501s1.16602 5.5 2.49902 5.5c4.66699 18 11.334 32.167 20.001 42.5s19.667 18.166 33 23.499h3c6.66699 0 11.5 -1 14.5 -3s7.16699 -6.33301 12.5 -13
c10.667 -15.333 11.834 -31.5 3.50098 -48.5s-22.166 -31.167 -41.499 -42.5c-2 -28.667 -0.833008 -61.834 3.5 -99.501s12.166 -76.834 23.499 -117.501l27 -104l17 -50l8 -26l3 -19l6 10l23 44c6.66699 10.667 13.834 23.334 21.501 38.001s15.167 30 22.5 46l22 49
l20 47c4 11.333 7.16699 19.5 9.5 24.5s4.16602 13.167 5.49902 24.5l-6 20l-4 27l-4 38c-1.33301 7.33301 -2 16 -2 26s1.66699 20.333 5 31c2 7.33301 3.5 14.333 4.5 21s2.16699 12.334 3.5 17.001c8.66699 22 20.667 33 36 33c1.33301 0 3.66602 -0.833008 6.99902 -2.5
s6.66602 -4.83398 9.99902 -9.50098c9.33301 -13.333 15.166 -32.333 17.499 -57s-2.16699 -51.334 -13.5 -80.001l3 -12c0 -14.667 2.83301 -31.834 8.5 -51.501s12.167 -39.834 19.5 -60.501l50 -142c4.66699 -12.667 8.5 -23.5 11.5 -32.5s5.5 -17.167 7.5 -24.5l6 -22.5
l7 -27.5l7 12l106 193l91 201c12.667 26.667 26.667 53.667 42 81s31.166 53.666 47.499 78.999s32.666 48.666 48.999 69.999s31.833 39.666 46.5 54.999c23.333 24 48.666 45.333 75.999 64s55.5 34.667 84.5 48s58.667 23.5 89 30.5s60.166 10.5 89.499 10.5
c48 0 97.333 -7.16699 148 -21.5s99.834 -34.333 147.501 -60s92.334 -56 134.001 -91s77.5 -73.167 107.5 -114.5c13.333 -18.667 25.166 -37.834 35.499 -57.501s18.5 -39 24.5 -58s10 -37.167 12 -54.5s1.66699 -32.666 -1 -45.999l-25 15
c4 47.333 -16.667 102.666 -62 165.999c-30 41.333 -65.333 79.333 -106 114s-83.834 64.334 -129.501 89.001s-92.667 43.834 -141 57.501s-95.5 20.5 -141.5 20.5c-38.667 0 -76.334 -5.66699 -113.001 -17s-71.334 -27.333 -104.001 -48c-29.333 -18 -56.333 -38 -81 -60
s-48 -47 -70 -75s-42.833 -59.333 -62.5 -94s-39.167 -74 -58.5 -118l-74 -160c-18 -38 -30.333 -61.667 -37 -71l-107 -192l-5 -13c3.33301 -36 2.83301 -63.667 -1.5 -83s-13.166 -29 -26.499 -29z" />
    <glyph glyph-name="X" unicode="X" horiz-adv-x="772" 
d="M610 -421c32.667 7.33301 58.6641 19.6689 77.9971 37.002s32 38.666 38 63.999s5.33301 54 -2 86s-21.666 66.333 -42.999 103l-6 11h26c5.33301 -9.33301 9.83301 -16.166 13.5 -20.499s8.16699 -10.833 13.5 -19.5c46.667 -80.667 59.167 -146.5 37.5 -197.5
s-72.834 -82.5 -153.501 -94.5c-8.66699 -1.33301 -18.667 -2.16602 -30 -2.49902s-22.666 -0.5 -33.999 -0.5c-57.333 0 -116.5 10.5 -177.5 31.5s-120.167 50.333 -177.5 88s-111 82.167 -161 133.5s-92.667 107.666 -128 168.999
c-48.667 84.667 -78.334 169.667 -89.001 255s-3.33398 163.333 21.999 234c6.66699 20 16.334 40 29.001 60s26.167 38.333 40.5 55s28.333 31.167 42 43.5s24.5 21.166 32.5 26.499c56.667 39.333 122 59 196 59c62.667 0 117.167 -10.833 163.5 -32.5
s80.166 -50.834 101.499 -87.501l9 -16l35 49c29.333 30.667 60.333 52.834 93 66.501s63.334 20.5 92.001 20.5c24 0 43.667 -4.66699 59 -14s28.333 -23.333 39 -42c12 -20 16.833 -41.333 14.5 -64s-11.833 -49.667 -28.5 -81
c-6.66699 -12.667 -14.5 -25.167 -23.5 -37.5s-18.5 -24 -28.5 -35s-20 -21.167 -30 -30.5s-19 -17.333 -27 -24c-19.333 -16 -40.666 -30.167 -63.999 -42.5l-86 -45.5c-0.666992 -23.333 3 -49.333 11 -78s18.667 -54.667 32 -78c13.333 -24 30.333 -42.833 51 -56.5
s41.667 -20.5 63 -20.5c9.33301 0 19.833 2.5 31.5 7.5s23.334 11.5 35.001 19.5s22.834 17.333 33.501 28s20 21.667 28 33c5.33301 7.33301 11 15.833 17 25.5l16 25.5l24 -13c-4.66699 -12 -9.66699 -23.167 -15 -33.5s-12 -20.5 -20 -30.5c-8 -12 -19 -24.333 -33 -37
s-29.5 -24.334 -46.5 -35.001s-34.833 -19.5 -53.5 -26.5s-37 -10.5 -55 -10.5c-40.667 0 -74.667 8.83301 -102 26.5s-52.666 46.5 -75.999 86.5l-17 28c-9.33301 -18 -23.166 -34.833 -41.499 -50.5s-37.5 -30.167 -57.5 -43.5c-7.33301 -6 -16.833 -12 -28.5 -18
s-24 -11.5 -37 -16.5s-26.167 -9 -39.5 -12s-25.333 -4.5 -36 -4.5c-20 0 -37.667 4.16699 -53 12.5s-27.333 19.833 -36 34.5c-12.667 22 -8 45.333 14 70s65.333 52.667 130 84l90 40l50 22c5.33301 11.333 9 26.166 11 44.499s3.66699 35.833 5 52.5
c2 40 -0.166992 76.667 -6.5 110s-15.166 60 -26.499 80c-20 35.333 -47 62.5 -81 81.5s-72 28.5 -114 28.5c-31.333 0 -60.833 -4.33301 -88.5 -13s-52.5 -21.667 -74.5 -39c-23.333 -18 -43 -38 -59 -60s-29.333 -48 -40 -78c-12.667 -36 -20.334 -75.333 -23.001 -118
s-0.833984 -86.5 5.49902 -131.5s17.5 -90.5 33.5 -136.5s36.667 -91 62 -135c32 -56 69.5 -106.667 112.5 -152s88.833 -84.5 137.5 -117.5s99 -58.833 151 -77.5s103.667 -29 155 -31c14 -0.666992 27.667 -0.166992 41 1.5s24.666 3.83398 33.999 6.50098z
M315.997 102.003c18.667 17.333 31.3359 36.666 38.0029 57.999s11.667 42 15 62c-22.667 -9.33301 -44.334 -20.666 -65.001 -33.999l-52 -34c-30.667 -20.667 -52.334 -39.5 -65.001 -56.5s-16.334 -30.167 -11.001 -39.5c2 -3.33301 6.5 -6.5 13.5 -9.5
s16.167 -4.5 27.5 -4.5c19.333 2 37.833 9.16699 55.5 21.5s32.167 24.5 43.5 36.5zM645.999 424.003c18 17.333 32.001 35.333 42.001 54s16.5 36.834 19.5 54.501s3 34.667 0 51s-8.16699 30.833 -15.5 43.5c-6 10.667 -12.833 18 -20.5 22s-17.167 6 -28.5 6
c-18.667 0 -39.5 -9.16699 -62.5 -27.5s-41.167 -45.833 -54.5 -82.5c-6.66699 -15.333 -12 -28.833 -16 -40.5s-7.33301 -25.5 -10 -41.5c-2 -15.333 -3.66699 -28.833 -5 -40.5s-2.16602 -22.834 -2.49902 -33.501s-0.333008 -21 0 -31s1.16602 -21 2.49902 -33
c26.667 13.333 53.667 28.333 81 45s50.666 34.667 69.999 54z" />
    <glyph glyph-name="Y" unicode="Y" horiz-adv-x="642" 
d="M275 -396c-4.66699 -8 -9.99902 -18.1689 -15.999 -30.502l-18 -38.5c-6 -13.333 -11.5 -27 -16.5 -41s-8.5 -27 -10.5 -39c-11.333 -43.333 -16.833 -79.166 -16.5 -107.499s7.5 -52.5 21.5 -72.5c7.33301 -10.667 17.333 -19.5 30 -26.5s25.667 -10.5 39 -10.5
c23.333 0 43.333 8.33301 60 25s29.667 40.334 39 71.001l22 92c7.33301 31.333 13 63.833 17 97.5s6.66699 64.5 8 92.5l3 111l3 80c-28 -28 -57.333 -59.833 -88 -95.5s-56.334 -71.5 -77.001 -107.5zM260.001 -343.002l46.5078 55.002
c14.333 17.333 30.166 34.666 47.499 51.999l49 50.5c13.333 13.667 22.666 24.834 27.999 33.501c1.33301 0 2.5 1 3.5 3s2.5 4.33301 4.5 7c2 8 3.5 14.667 4.5 20s1.66699 11.5 2 18.5s0.166016 16 -0.500977 27s-1.33398 25.833 -2.00098 44.5
c0 13.333 -0.166992 29.833 -0.5 49.5s0.166992 40.834 1.5 63.501c-0.666992 18.667 -0.833984 34 -0.500977 46s0.5 22.5 0.5 31.5s-0.166992 17.667 -0.5 26s-0.833008 18.5 -1.5 30.5c-20.667 -57.333 -45.667 -103 -75 -137s-58 -51 -86 -51
c-20.667 0 -39.667 5.66699 -57 17s-33 27 -47 47c-8 11.333 -14.667 22.166 -20 32.499s-8 20.166 -8 29.499c-3.33301 12.667 -5.5 24 -6.5 34s-1.5 19.833 -1.5 29.5s0.333008 20 1 31s1 23.5 1 37.5l5 92c0.666992 20.667 1.16699 38.834 1.5 54.501
s0.333008 30.334 0 44.001s-0.833008 26.5 -1.5 38.5s-1.66699 24.333 -3 37c-3.33301 39.333 -9.83301 74 -19.5 104s-23.167 57 -40.5 81c-23.333 34 -50.5 60.833 -81.5 80.5s-61.833 29.5 -92.5 29.5c-25.333 0 -47.333 -5 -66 -15s-32.667 -23.667 -42 -41
c-7.33301 -12.667 -12.166 -27.334 -14.499 -44.001s-2.66602 -34 -0.999023 -52s5.66699 -36.167 12 -54.5s15.166 -35.166 26.499 -50.499c17.333 -24.667 37.166 -43.5 59.499 -56.5s46.833 -19.5 73.5 -19.5c13.333 0 23.333 2.16699 30 6.5s12.667 11.166 18 20.499
l17 -15c-5.33301 -13.333 -12 -22.166 -20 -26.499s-21.333 -6.5 -40 -6.5c-32.667 0 -64.5 9.33301 -95.5 28s-57.167 43.334 -78.5 74.001c-11.333 16 -21.333 34 -30 54s-14.334 39.333 -17.001 58c-8 50.667 1.33301 90 28 118s66 42 118 42c93.333 0 176 -51 248 -153
c13.333 -19.333 25.333 -38.166 36 -56.499s18.334 -35.5 23.001 -51.5c14.667 -40 25.667 -85.333 33 -136s10 -100.334 8 -149.001l-5 -143c-1.33301 -21.333 -0.166016 -40.166 3.50098 -56.499s8.16699 -28.833 13.5 -37.5c12 -16 25 -24 39 -24
c6.66699 0 14.167 2.83301 22.5 8.5s17 13.5 26 23.5s17.667 21.833 26 35.5s15.833 28.167 22.5 43.5c5.33301 8 10.5 18.333 15.5 31l18.5 47c5.33301 13.333 9.66602 23.833 12.999 31.5s6 17.167 8 28.5c1.33301 8.66699 1.83301 19.167 1.5 31.5
s-0.833008 26.5 -1.5 42.5c-2 60.667 -1 102 3 124c2.66699 17.333 8.5 31 17.5 41s19.5 15 31.5 15c5.33301 0 10.166 -1.16699 14.499 -3.5s7.16602 -4.83301 8.49902 -7.5c8 -11.333 11.667 -24 11 -38c-1.33301 -6.66699 -2.5 -12.834 -3.5 -18.501
s-1.83301 -11.834 -2.5 -18.501c-0.666992 -1.33301 -1.83398 -5.5 -3.50098 -12.5l-7.5 -30.5l-2 -10.5c-0.666992 -3.66699 -1.33398 -8.16699 -2.00098 -13.5l-1 -14v-188l7 -198l-1 -79c27.333 30 55.666 64.167 84.999 102.5s53.333 83.5 72 135.5l27 -13l-9 -23
c-9.33301 -24.667 -20.5 -47.667 -33.5 -69s-30.5 -46.666 -52.5 -75.999l-39.5 -46.5l-34.5 -39.5l-12 -11l1 -108c0 -11.333 -0.666992 -25.833 -2 -43.5s-3 -36.834 -5 -57.501l-6.5 -64.5c-2.33301 -22.333 -4.83301 -43.833 -7.5 -64.5l-20.5 -96.5
c-6.33301 -28.333 -14.833 -56.166 -25.5 -83.499c-4.66699 -10.667 -10.167 -22.334 -16.5 -35.001s-12.666 -24.667 -18.999 -36s-12.666 -21.833 -18.999 -31.5s-12.166 -16.834 -17.499 -21.501c-12.667 -10.667 -27.5 -19 -44.5 -25s-33.5 -9 -49.5 -9
c-21.333 0 -43 6.16699 -65 18.5s-40.667 29.166 -56 50.499c-12.667 17.333 -21.167 38.166 -25.5 62.499s-2.83301 49.166 4.5 74.499c9.33301 36.667 21.666 71.667 36.999 105c11.333 22 23.833 43.833 37.5 65.5s29.167 43.834 46.5 66.501z" />
    <glyph glyph-name="Z" unicode="Z" 
d="M284 -683c2.66699 30.667 4.66309 60.5029 5.99609 89.5029s2.33301 60.167 3 93.5s0.833984 70.166 0.500977 110.499s-1.16602 87.166 -2.49902 140.499v18.5c0 5 0.166992 9.33301 0.5 13l1 11.5c0.333008 4 0.5 8.66699 0.5 14l-37.5 -37
c-11 -10.667 -21.333 -21.334 -31 -32.001l-30 -34l-35.5 -43c-23.333 -28.667 -42.5 -55.667 -57.5 -81s-29.833 -52.666 -44.5 -81.999c-16.667 -38.667 -29.167 -76.834 -37.5 -114.501s-12.666 -74 -12.999 -109s3.66699 -68.167 12 -99.5s20.833 -60 37.5 -86
c13.333 -19.333 26.333 -33 39 -41s27 -12 43 -12c12 0 23.833 3 35.5 9s22.834 14.5 33.501 25.5s20 24.333 28 40s14.333 33.167 19 52.5l22 95zM362.996 -62.9971c46.667 49.333 84.6621 94.8301 113.995 136.497s49 77.5 59 107.5l32 -21l-2 -6
c-9.33301 -15.333 -20.833 -32.5 -34.5 -51.5l-42.5 -58l-44 -58l-39.5 -50.5l-28.5 -35.5l-11 -13.5c0 -8 0.166992 -16 0.5 -24s0.5 -17.167 0.5 -27.5s0.166992 -22.833 0.5 -37.5s0.5 -32.334 0.5 -53.001c1.33301 -36 1.5 -78.667 0.5 -128s-3.83301 -99.333 -8.5 -150
c-3.33301 -47.333 -9.16602 -90.333 -17.499 -129s-18.5 -77.334 -30.5 -116.001l-18 -64c-21.333 -50 -45.166 -88.167 -71.499 -114.5s-55.166 -39.5 -86.499 -39.5c-24 0 -47.667 7.33301 -71 22s-44.666 37 -63.999 67c-29.333 44.667 -45.666 97 -48.999 157
s6 123.333 28 190c8 31.333 22.167 65.333 42.5 102s42.833 71 67.5 103c22 28 45.5 54.167 70.5 78.5s46.5 46.166 64.5 65.499l44 48c12 12.667 18 19.334 18 20.001c-0.666992 16 -1.16699 33 -1.5 51s-2.83301 36 -7.5 54s-12.334 35.167 -23.001 51.5
s-26.334 30.833 -47.001 43.5c-8.66699 -5.33301 -17.167 -11 -25.5 -17s-17.666 -11.667 -27.999 -17s-22.166 -10 -35.499 -14s-29.333 -7 -48 -9c-32 -3.33301 -54.5 -0.833008 -67.5 7.5s-20.167 20.833 -21.5 37.5c-1.33301 18 2.16699 33 10.5 45
s18.666 21.333 30.999 28s25.166 11.334 38.499 14.001s24.333 4 33 4c12.667 0 23.834 -0.666992 33.501 -2s19.167 -3 28.5 -5s19 -4.66699 29 -8s21.667 -7 35 -11c26.667 24.667 48.5 54.5 65.5 89.5s28.5 72 34.5 111s6.66699 78.333 2 118s-15.334 76.5 -32.001 110.5
c-17.333 34.667 -39.666 62.834 -66.999 84.501s-56 32.5 -86 32.5c-25.333 0 -47.5 -6.5 -66.5 -19.5s-34.167 -30.5 -45.5 -52.5c-12 -27.333 -18 -57.5 -18 -90.5s6.66699 -63.833 20 -92.5c9.33301 -19.333 22.5 -34.666 39.5 -45.999s35.167 -17 54.5 -17
c25.333 0 45.166 11.667 59.499 35s21.833 57.666 22.5 102.999l26 -9c3.33301 -49.333 -5.33398 -88.666 -26.001 -117.999s-50.667 -44 -90 -44c-30 0 -56.667 7.66699 -80 23s-41.666 36.666 -54.999 63.999c-13.333 28.667 -19.5 60.834 -18.5 96.501
s9.16699 69.5 24.5 101.5c18.667 33.333 44.334 59 77.001 77s68.667 27 108 27c40.667 0 78.834 -12.667 114.501 -38s65.167 -61.333 88.5 -108c16.667 -35.333 26.5 -73 29.5 -113s-0.666992 -80.167 -11 -120.5s-26.666 -79.5 -48.999 -117.5s-50.5 -72.333 -84.5 -103
c20.667 -11.333 37.5 -23.166 50.5 -35.499s23.167 -25.166 30.5 -38.499s12.666 -27 15.999 -41s6 -28 8 -42zM93.9912 32c17.333 5.33301 33.334 11.333 48.001 18s26.667 13.667 36 21c-15.333 7.33301 -29.333 12.166 -42 14.499s-26.334 3.83301 -41.001 4.5
c-9.33301 0.666992 -18.166 0.333984 -26.499 -0.999023s-15.833 -3.33301 -22.5 -6s-11.834 -6.16699 -15.501 -10.5s-5.16699 -9.5 -4.5 -15.5c0 -6 2.16699 -10.833 6.5 -14.5s9.83301 -6.5 16.5 -8.5s14 -3 22 -3s15.667 0.333008 23 1z" />
    <glyph glyph-name="underscore" unicode="_" horiz-adv-x="252" 
d="M220 -16h-179v33h179v-33z" />
    <glyph glyph-name="grave" unicode="`" horiz-adv-x="144" 
d="M119 355c-8 14 -15 27.334 -21 40.001l-15 29c-12 24 -18 42.333 -18 55s6 19 18 19c14 0 24.333 -8 31 -24c6 -15.333 10.333 -41.666 13 -78.999c1.33301 -20.667 2 -31.834 2 -33.501s0.333008 -3.83398 1 -6.50098h-11v0z" />
    <glyph glyph-name="a" unicode="a" horiz-adv-x="335" 
d="M147 60c1.33301 5.33301 2.33105 11.668 2.99805 19.001s1.66699 13.666 3 18.999c2.66699 18.667 3.33398 35.5 2.00098 50.5s-5.33301 27.5 -12 37.5c-7.33301 11.333 -17 17 -29 17h-3c-7.33301 -1.33301 -13.666 -5 -18.999 -11s-10.333 -13 -15 -21
c-6 -9.33301 -9.83301 -19.833 -11.5 -31.5s-2.16699 -23.167 -1.5 -34.5s2.5 -22 5.5 -32s6.5 -18 10.5 -24c7.33301 -9.33301 16.333 -14 27 -14c7.33301 0 14.833 1.5 22.5 4.5s13.5 9.83301 17.5 20.5zM168.998 48.002
c-9.33301 -19.333 -20.832 -32.165 -34.499 -38.498s-27.5 -9.5 -41.5 -9.5c-12.667 0 -25.5 4.16699 -38.5 12.5s-24.167 19.166 -33.5 32.499c-10.667 15.333 -17.167 32.833 -19.5 52.5s-0.833008 37.5 4.5 53.5c4.66699 11.333 11 22 19 32s16.667 18.333 26 25
c8 6.66699 16.667 11.5 26 14.5s18.333 4.5 27 4.5c12 0 22.167 -2.33301 30.5 -7s15.5 -11.334 21.5 -20.001c1.33301 -2.66699 3 -5.33398 5 -8.00098s4 -6 6 -10l16 39h45l-6 -147c-2 -16 -1.33301 -26.333 2 -31c4.66699 -6.66699 12 -10 22 -10
c8 0 16.833 2.83301 26.5 8.5s19.167 13.334 28.5 23.001s18.166 21 26.499 34s15.166 26.833 20.499 41.5l25 -17l-4 -4c-18.667 -40 -39 -69.833 -61 -89.5s-47.667 -29.5 -77 -29.5c-11.333 0 -22 2.33301 -32 7s-17.667 10.667 -23 18
c-2.66699 4 -4.16699 7.33301 -4.5 10s-1.16602 7 -2.49902 13z" />
    <glyph glyph-name="b" unicode="b" horiz-adv-x="330" 
d="M187 163c-30.667 45.333 -32.3252 67.9971 -4.99219 67.9971c9.33301 0 18.333 -3.16699 27 -9.5s16.334 -14.166 23.001 -23.499c6 -8.66699 10.167 -16 12.5 -22s4.16602 -16.667 5.49902 -32c-0.666992 -7.33301 0 -13.5 2 -18.5s4.66699 -9.83301 8 -14.5
c4 -6 9.83301 -11.333 17.5 -16s15.167 -7 22.5 -7c9.33301 0 17.166 3.66699 23.499 11s12.166 21.333 17.499 42l26 -18c-8 -22.667 -16.167 -37.667 -24.5 -45s-19.833 -11 -34.5 -11c-18.667 0 -39.334 9 -62.001 27c-5.33301 -13.333 -12.166 -25.666 -20.499 -36.999
s-17.833 -21.166 -28.5 -29.499s-22 -15 -34 -20s-24.333 -7.5 -37 -7.5c-15.333 0 -29.666 3.66699 -42.999 11s-24.666 17.666 -33.999 30.999c-6.66699 9.33301 -10.834 19.333 -12.501 30s-1.83398 26.667 -0.500977 48l-20 -21l-16 10
c5.33301 11.333 10.666 23.5 15.999 36.5s8.66602 24.833 9.99902 35.5c4 8 6 17.667 6 29c2.66699 8 4.33398 18.333 5.00098 31s2 27.667 4 45c5.33301 81.333 7.33301 146 6 194c0.666992 61.333 4 104.833 10 130.5s17 38.5 33 38.5c10 0 19.333 -6 28 -18
c7.33301 -11.333 11.5 -30.666 12.5 -57.999s-1.16699 -59.333 -6.5 -96c-6.66699 -34 -11.5 -61.167 -14.5 -81.5s-5.5 -32.166 -7.5 -35.499l-2 -29.5c-0.666992 -9.66699 -1.33398 -20.5 -2.00098 -32.5s-1.33398 -26.5 -2.00098 -43.5s-1.33398 -37.833 -2.00098 -62.5
c0 -26 0.166992 -47.5 0.5 -64.5s0.833008 -30.833 1.5 -41.5s1.66699 -18.834 3 -24.501s3.33301 -10.167 6 -13.5c4.66699 -7.33301 9.66699 -12.5 15 -15.5s10.666 -4.5 15.999 -4.5c6 0 13.167 3 21.5 9s16.166 12.667 23.499 20c11.333 13.333 18.833 27.833 22.5 43.5
s3.5 29.5 -0.5 41.5c-3.33301 4.66699 -6.33301 8.5 -9 11.5s-5 6.16699 -7 9.5z" />
    <glyph glyph-name="c" unicode="c" horiz-adv-x="247" 
d="M283 123l-4.99609 -5.00195c-26.667 -42 -52.5 -72.167 -77.5 -90.5s-54.167 -27.5 -87.5 -27.5c-48.667 0 -82 16.333 -100 49c-8.66699 16 -12.834 32.333 -12.501 49s4.16602 33.334 11.499 50.001c11.333 23.333 27.833 42.666 49.5 57.999s43.5 23 65.5 23
c15.333 0 30 -4.33301 44 -13s24.667 -19.667 32 -33c6.66699 -12 8.16699 -22.833 4.5 -32.5s-11.834 -14.5 -24.501 -14.5c-10 0 -19.5 3 -28.5 9s-15.5 12.667 -19.5 20c-6 10 -6.66699 18 -2 24c3.33301 0.666992 4 2.66699 2 6c-1.33301 3.33301 -3.5 5.33301 -6.5 6
s-6.16699 1 -9.5 1c-6.66699 0 -13.834 -3.16699 -21.501 -9.5s-14.167 -16.166 -19.5 -29.499c-6 -18 -8.83301 -36.167 -8.5 -54.5s4.5 -35.166 12.5 -50.499c9.33301 -18 26 -27 50 -27c21.333 0 43.833 10 67.5 30s43.167 46 58.5 78z" />
    <glyph glyph-name="d" unicode="d" horiz-adv-x="335" 
d="M158 98c1.33301 18.667 1.00098 35.6689 -0.999023 51.002s-6.66699 27.666 -14 36.999c-8 12 -18.333 18 -31 18h-6c-14 -2.66699 -25 -12.667 -33 -30c-3.33301 -6.66699 -6 -14.834 -8 -24.501s-3.33301 -19.5 -4 -29.5
c-0.666992 -13.333 1.16602 -26.833 5.49902 -40.5s10.833 -24.167 19.5 -31.5c5.33301 -5.33301 9.83301 -8.83301 13.5 -10.5s8.16699 -2.5 13.5 -2.5c8 0 15.167 2 21.5 6s11.5 11 15.5 21c2.66699 6.66699 4.5 13 5.5 19s1.83301 11.667 2.5 17zM177.001 43.002
c-9.33301 -20 -20.3301 -32.168 -32.9971 -36.501s-26.667 -6.5 -42 -6.5c-13.333 0 -27 4.16699 -41 12.5s-26 19.166 -36 32.499c-10 14.667 -16.833 32 -20.5 52s-2.5 38.333 3.5 55c3.33301 11.333 8.5 21.833 15.5 31.5s15.167 18.167 24.5 25.5c18 12 36 18 54 18
c21.333 0 39 -9 53 -27c1.33301 -2.66699 2.66602 -5 3.99902 -7s3.33301 -5.66699 6 -11l2 105l3 193c0.666992 34.667 1.66699 63 3 85s3.33301 39.333 6 52s6.16699 21.334 10.5 26.001s10.166 7 17.499 7c4.66699 0 9.66699 -1.66699 15 -5
s9.66602 -7.66602 12.999 -12.999c7.33301 -10 11.833 -28.833 13.5 -56.5s-0.166016 -59.5 -5.49902 -95.5l-15 -120l-2 -37l-4 -129l2 -77c-0.666992 -23.333 -0.666992 -40 0 -50s3 -17.667 7 -23c4.66699 -7.33301 12.667 -11 24 -11c8 0 16.5 2.83301 25.5 8.5
s17.833 13.5 26.5 23.5s16.667 21.5 24 34.5s12.666 26.833 15.999 41.5l24 -16l-1 -6c-15.333 -38.667 -33.833 -68.167 -55.5 -88.5s-45.5 -30.5 -71.5 -30.5c-26.667 0 -46.667 9.66699 -60 29z" />
    <glyph glyph-name="e" unicode="e" horiz-adv-x="236" 
d="M174 47c14 10 27.498 22.1719 40.498 36.5049s25.167 32.833 36.5 55.5l20 -18l-4 -5c-14 -24.667 -28.667 -44.834 -44 -60.501s-30.666 -28.167 -45.999 -37.5c-24 -12 -49 -18 -75 -18c-42.667 0 -72 16.333 -88 49c-8 15.333 -12 30.333 -12 45s3 30.667 9 48
c6.66699 14.667 15.667 28 27 40s24 22.667 38 32c10 4.66699 19.833 8.66699 29.5 12s18.834 5 27.501 5c9.33301 0 18 -2.66699 26 -8s14 -12.333 18 -21c2.66699 -6 4.33398 -11.833 5.00098 -17.5s-0.833008 -11.834 -4.5 -18.501s-9.66699 -13.834 -18 -21.501
s-19.833 -16.5 -34.5 -26.5l-55 -37c0.666992 -3.33301 1.5 -6.5 2.5 -9.5l3.5 -10.5c5.33301 -10.667 11.833 -18.334 19.5 -23.001s17.5 -7 29.5 -7c19.333 1.33301 35.666 6.66602 48.999 15.999zM121.998 147.005c11.333 10.667 18.166 19.166 20.499 25.499
s1.83301 12.833 -1.5 19.5s-9.33301 10 -18 10c-11.333 0 -21.333 -7.66699 -30 -23c-5.33301 -8 -9.66602 -17.667 -12.999 -29s-6 -23 -8 -35c18 6.66699 34.667 17.334 50 32.001z" />
    <glyph glyph-name="f" unicode="f" horiz-adv-x="207" 
d="M134 -276c-1.33301 9.33301 -4.66895 26.167 -10.002 50.5l-22 97.5l-22 96v-130v-79.5c0 -20.333 -0.166992 -36.666 -0.5 -48.999s-0.833008 -25.166 -1.5 -38.499c-0.666992 -24 -1 -48.333 -1 -73s0.166992 -48.167 0.5 -70.5s1 -43 2 -62l2.5 -46.5l6 -49
c2 -16 4.83301 -30.333 8.5 -43s8.5 -22.834 14.5 -30.501s14 -11.5 24 -11.5s18 6 24 18s8.66699 29.667 8 53c0.666992 23.333 0.333984 49.666 -0.999023 78.999s-3.5 60 -6.5 92s-6.66699 64.833 -11 98.5s-9.16602 66.5 -14.499 98.5zM186.997 -520.999
c6 -72 5.50098 -125.826 -1.49902 -161.493s-25.167 -53.5 -54.5 -53.5c-13.333 0 -28.666 3.5 -45.999 10.5s-29.666 19.5 -36.999 37.5c-4.66699 11.333 -8.16699 22 -10.5 32s-4.16602 20.667 -5.49902 32s-2.5 24.166 -3.5 38.499l-3.5 51.5
c-4 55.333 -5.5 111.166 -4.5 167.499s1.5 111.5 1.5 165.5c0 36.667 0.166992 66.667 0.5 90s0.833008 44.666 1.5 63.999l2 60c0.666992 20.667 1 47.334 1 80.001l-22 -20l-15 11l9.5 22c2.33301 5.33301 4.16602 12.666 5.49902 21.999l4 10
c-8 21.333 -10.833 35.5 -8.5 42.5s11.166 12.833 26.499 17.5c-0.666992 3.33301 -1 5.66602 -1 6.99902s0.333008 3.66602 1 6.99902c0 7.33301 0.333008 21.166 1 41.499s-0.333008 47.833 -3 82.5c0 19.333 0.833008 40.666 2.5 63.999s3.66699 46.833 6 70.5
s5 46.5 8 68.5s6.16699 41.667 9.5 59c6 32.667 13 55.667 21 69s18 20 30 20c5.33301 0 10.833 -1.83301 16.5 -5.5s10.5 -8.5 14.5 -14.5c6 -8 10 -18.333 12 -31s2.16699 -28.5 0.5 -47.5s-5.33398 -41.833 -11.001 -68.5s-13.5 -58.334 -23.5 -95.001l-8 -36
c-2 -9.33301 -3.66699 -17.666 -5 -24.999s-2.5 -14.666 -3.5 -21.999l-3.5 -27l-1 -17l2 -86l1 -19h158l1 -21h-163l-2 -167c12 -38 23.667 -80.167 35 -126.5s22.666 -95.5 33.999 -147.5c9.33301 -42.667 15.833 -84.834 19.5 -126.501z" />
    <glyph glyph-name="g" unicode="g" horiz-adv-x="347" 
d="M155 99c4 19.333 5.16797 36.332 3.50098 50.999s-5.16699 26.667 -10.5 36c-6 10.667 -15 16 -27 16h-4c-8.66699 -0.666992 -15.834 -3.66699 -21.501 -9s-11.167 -11.666 -16.5 -18.999c-3.33301 -7.33301 -6.16602 -15.333 -8.49902 -24s-4.5 -17.667 -6.5 -27
c-2.66699 -16 -2.83398 -30.167 -0.500977 -42.5s6.16602 -22.833 11.499 -31.5c6.66699 -10 14.667 -15 24 -15s17.333 3.33301 24 10s13.334 14.667 20.001 24c3.33301 4 5.83301 9 7.5 15zM76.001 -735.001c-15.333 0 -30.1602 4.83691 -44.4932 14.5039
s-26.166 22.167 -35.499 37.5c-11.333 19.333 -18.833 40.833 -22.5 64.5s-3.83398 49.5 -0.500977 77.5l14 57.5c4.66699 18.333 10.667 38.166 18 59.499c4 11.333 9.83301 25 17.5 41l23.5 50l35.5 70.5c12.333 23.667 23.833 44.167 34.5 61.5
c9.33301 14.667 16.833 27 22.5 37l13.5 24c2 4 4 7.66699 6 11s3.66699 7.66602 5 12.999l2 77c-0.666992 15.333 -0.833984 29.666 -0.500977 42.999s-0.166992 23 -1.5 29l-1 16c-10.667 -17.333 -22.5 -29.833 -35.5 -37.5s-26.167 -11.5 -39.5 -11.5
s-26.5 3.83301 -39.5 11.5s-23.833 18.834 -32.5 33.501c-9.33301 15.333 -14.333 32.666 -15 51.999s2.66602 37.666 9.99902 54.999c5.33301 11.333 11.833 21.833 19.5 31.5s16.167 18.5 25.5 26.5c8.66699 7.33301 18.167 12.5 28.5 15.5s20.166 4.5 29.499 4.5
s18.833 -2.83301 28.5 -8.5s17.167 -13.167 22.5 -22.5l3.5 -7l5.5 -11l14 38h40l-6 -282l37 50c7.33301 10 12.666 17 15.999 21s5.66602 7.16699 6.99902 9.5s4.66602 7.16602 9.99902 14.499l17 25.5l20 29.5c6.66699 10 12.667 19.5 18 28.5s9.66602 16.833 12.999 23.5
l22 -16l-3 -6c-4.66699 -9.33301 -11.5 -21.166 -20.5 -35.499s-19.333 -30 -31 -47l-38 -53.5l-40.5 -55l-28 -40l-1 -13l1 -130c1.33301 -66.667 -0.166992 -127 -4.5 -181s-11.5 -101 -21.5 -141c-4 -18 -10 -36.333 -18 -55s-17.5 -35.5 -28.5 -50.5
s-22.667 -27.167 -35 -36.5s-24.5 -14 -36.5 -14zM164.007 -516.997c1.33301 20.667 2.33398 40.168 3.00098 58.501s0.333984 40.833 -0.999023 67.5l-3 104l1 116l-27 -54c-10 -17.333 -18 -32.833 -24 -46.5s-11.333 -25.167 -16 -34.5
c-5.33301 -10.667 -10.166 -21.667 -14.499 -33l-12.5 -34l-23 -70c-7.33301 -23.333 -13 -44.666 -17 -63.999c-6 -36.667 -8.83301 -70.334 -8.5 -101.001s5.16602 -53.667 14.499 -69c5.33301 -8.66699 12.166 -15.834 20.499 -21.501s17.166 -8.5 26.499 -8.5
c10 0 19.5 6 28.5 18s17.167 27.333 24.5 46s13.5 39.167 18.5 61.5s8.16699 43.833 9.5 64.5z" />
    <glyph glyph-name="h" unicode="h" horiz-adv-x="366" 
d="M404 127c-17.333 -40.667 -36.498 -71.9951 -57.498 -93.9951s-42.833 -33 -65.5 -33c-14 0 -27.833 3.66699 -41.5 11s-25.5 17.666 -35.5 30.999c-7.33301 9.33301 -11.166 20.833 -11.499 34.5s2.5 36.5 8.5 68.5c0 13.333 -0.333008 23.833 -1 31.5
s-2.66699 13.167 -6 16.5c-2.66699 4 -6 6 -10 6c-6 0 -13.333 -4 -22 -12s-16.667 -20 -24 -36c-5.33301 -10.667 -9.83301 -24.5 -13.5 -41.5s-6.5 -33.667 -8.5 -50l-5 -42l-2 -17.5h-60l-10 123l-20 -24l-17 10l1.5 5.5c1 3.66699 2.33301 8 4 13s3.5 10 5.5 15
s3.66699 9.5 5 13.5c3.33301 7.33301 6.16602 15.666 8.49902 24.999s3.83301 19 4.5 29l4 76l3.5 115c1 32 1.5 58.333 1.5 79c-0.666992 31.333 -0.5 57.833 0.5 79.5s3 39.167 6 52.5s7.16699 22.833 12.5 28.5s11.666 8.5 18.999 8.5c10 0 19.333 -6 28 -18
c6.66699 -9.33301 10.5 -28.166 11.5 -56.499s-0.833008 -59.833 -5.5 -94.5l-10.5 -84c-3 -24.667 -5.16699 -49.334 -6.5 -74.001c-1.33301 -20 -2 -41.5 -2 -64.5v-64.5c0 -23.333 0.333008 -46.333 1 -69l7 13c15.333 29.333 29.333 51.5 42 66.5s26.667 22.5 42 22.5
c13.333 0 25.833 -2.83301 37.5 -8.5s21.167 -13.834 28.5 -24.501c4 -5.33301 7.16699 -10.333 9.5 -15s3.83301 -10 4.5 -16s0.833984 -13.333 0.500977 -22s-0.833008 -19.334 -1.5 -32.001c-2 -16 -2.16699 -29.5 -0.5 -40.5s4.5 -19.167 8.5 -24.5
c4.66699 -6.66699 11.667 -10 21 -10c7.33301 0 17.166 5.66699 29.499 17s23.166 24.666 32.499 39.999l26 50z" />
    <glyph glyph-name="i" unicode="i" horiz-adv-x="201" 
d="M2 109l7 19.498l9 26.5c4.66699 13.333 7.5 24 8.5 32s2.5 18.667 4.5 32h64v-158c0 -4 0.666992 -7.16699 2 -9.5s3.33301 -5.16602 6 -8.49902c1.33301 -2 4.5 -4.16699 9.5 -6.5s10.5 -3.5 16.5 -3.5c6.66699 0 14 3 22 9s16 13.833 24 23.5s15.333 20.834 22 33.501
s12 26 16 40l24 -16l-2 -6c-29.333 -78 -67.666 -117 -114.999 -117c-14.667 0 -28.834 3.5 -42.501 10.5s-25.167 16.5 -34.5 28.5c-8.66699 12 -12.667 27.333 -12 46l-3 26l-9 -12zM70 399.998c-21.333 0 -33.666 8.33105 -36.999 24.998
c-2.66699 12 -0.333984 22 6.99902 30s17.333 12 30 12c9.33301 0 17 -2.16699 23 -6.5s9.33301 -11.166 10 -20.499s-1.33301 -18.166 -6 -26.499s-13.667 -12.833 -27 -13.5z" />
    <glyph glyph-name="j" unicode="j" horiz-adv-x="176" 
d="M204 -508c-0.666992 -28.667 -0.672852 -57.5039 -0.00585938 -86.5039s-1 -56.167 -5 -81.5c-6.66699 -40.667 -22.667 -61 -48 -61c-17.333 0 -32.166 4.16699 -44.499 12.5s-22.666 18.833 -30.999 31.5s-15 26.834 -20 42.501s-8.5 31.167 -10.5 46.5
c-2.66699 18.667 -5 37.834 -7 57.501s-3.66699 41 -5 64s-2.16602 48.167 -2.49902 75.5s-0.166016 58 0.500977 92v429l-13 -15l-17 11l17 40c2.66699 10.667 5.33398 19.834 8.00098 27.501s4 18.5 4 32.5l5 9h63l1 -145l-1 -550c1.33301 -18 2 -38.333 2 -61
s0.666992 -44.5 2 -65.5s3.83301 -40 7.5 -57s9.5 -28.833 17.5 -35.5c3.33301 -3.33301 6.5 -6.16602 9.5 -8.49902s5.5 -3.5 7.5 -3.5c6 0 10.833 2.16699 14.5 6.5s6.5 10.333 8.5 18s3.33301 16.334 4 26.001l2 30.5l8 184l-1 557l24 1l-0.5 -43
c-0.333008 -28.667 -0.666016 -69.834 -0.999023 -123.501s-0.333008 -119 0 -196s0.833008 -164.167 1.5 -261.5zM99.9941 430.996c2 -22.667 -9.66797 -34 -35.001 -34c-21.333 0 -33.666 8.33301 -36.999 25c-2.66699 12 -0.333984 22 6.99902 30s17.333 12 30 12
c11.333 0 20.333 -4 27 -12s9.33398 -15 8.00098 -21z" />
    <glyph glyph-name="k" unicode="k" horiz-adv-x="358" 
d="M245 192c24 -34 9.00488 -59.6602 -44.9951 -76.9932c10.667 -6 18.667 -11.167 24 -15.5s11 -10.5 17 -18.5l20 -29c4.66699 -6 8.66699 -10.5 12 -13.5s7.66602 -4.5 12.999 -4.5c7.33301 0 17.166 5.16699 29.499 15.5s23.166 23.833 32.499 40.5l28 48l19 -15
c-16.667 -40.667 -35.334 -71.334 -56.001 -92.001s-42.334 -31 -65.001 -31c-13.333 0 -25.166 2.66699 -35.499 8s-20.166 14.666 -29.499 27.999c-3.33301 3.33301 -6.66602 8.16602 -9.99902 14.499l-10 18.5c-4 6 -7 10.833 -9 14.5l-6 10.5l-2 3
c-1.33301 1.33301 -3 3.16602 -5 5.49902s-3.66699 3.5 -5 3.5c-0.666992 1.33301 -4.33398 2 -11.001 2c-2.66699 0.666992 -5.83398 2.16699 -9.50098 4.5s-6.16699 4.16602 -7.5 5.49902c-4.66699 7.33301 -0.666992 11 12 11c2 0 5 -0.166992 9 -0.5
s8.66699 -1.16602 14 -2.49902c13.333 4.66699 21.5 13 24.5 25s0.166992 23.667 -8.5 35c-6 8.66699 -12.667 13 -20 13c-9.33301 0 -17.333 -4.83301 -24 -14.5s-12.5 -22 -17.5 -37s-8.83301 -31 -11.5 -48s-4.83398 -33 -6.50098 -48s-2.5 -27.333 -2.5 -37
s0.333008 -14.5 1 -14.5h-56l-9 123l-20 -24l-19 13l20 43c7.33301 15.333 11.333 27.166 12 35.499s1.33398 18.166 2.00098 29.499c2 35.333 3.5 66.166 4.5 92.499s1.83301 49.666 2.5 69.999s0.833984 38.333 0.500977 54s-1.16602 30.167 -2.49902 43.5
c0 31.333 0.5 57.833 1.5 79.5s3 39.167 6 52.5s7.16699 22.833 12.5 28.5s11.666 8.5 18.999 8.5c11.333 0 20.666 -6 27.999 -18c7.33301 -9.33301 11.833 -27.833 13.5 -55.5s-0.5 -59.5 -6.5 -95.5l-15 -120c-0.666992 -2.66699 -1 -6.5 -1 -11.5
s-0.166992 -14.5 -0.5 -28.5l-1.5 -61.5c-0.666992 -27 -1.66699 -63.833 -3 -110.5l18 33c5.33301 10 10.666 18.5 15.999 25.5s11.333 12.333 18 16s14.667 5.5 24 5.5c13.333 0 26.5 -2.16699 39.5 -6.5s25.5 -14.166 37.5 -29.499z" />
    <glyph glyph-name="l" unicode="l" horiz-adv-x="201" 
d="M1 109l7.49805 20c2.33301 6 5.16602 15 8.49902 27c4 13.333 7.33301 24 10 32s4.66699 18.667 6 32l3.5 94c1 26.667 1.66699 50 2 70s0.5 37.667 0.5 53v43c0 31.333 0.333008 57.833 1 79.5s2.33398 39.167 5.00098 52.5s6.5 22.833 11.5 28.5s11.167 8.5 18.5 8.5
c11.333 0 21.333 -6 30 -18c7.33301 -9.33301 11.833 -27.833 13.5 -55.5s-0.166016 -59.5 -5.49902 -95.5l-17 -120c-0.666992 -5.33301 -1.16699 -11.166 -1.5 -17.499s-0.5 -13.166 -0.5 -20.499l-3 -129c-1.33301 -30.667 -2.16602 -57 -2.49902 -79
s0.166992 -39.667 1.5 -53c-0.666992 -1.33301 0 -3.83301 2 -7.5s3.66699 -6.5 5 -8.5c1.33301 -2.66699 4.33301 -5.33398 9 -8.00098s9.66699 -4 15 -4c8 0 16.667 2.83301 26 8.5s18.333 13.334 27 23.001s16.5 21 23.5 34s12.5 27.167 16.5 42.5l28 -18l-3 -5
c-32 -78.667 -75.333 -118 -130 -118c-13.333 0 -26.333 3.5 -39 10.5s-23.667 16.833 -33 29.5c-6 9.33301 -9.83301 18.166 -11.5 26.499s-1.5 22.166 0.5 41.499l-10 -9z" />
    <glyph glyph-name="m" unicode="m" horiz-adv-x="525" 
d="M200 0l-0.993164 106l1 51c1.33301 11.333 1.16602 21.333 -0.500977 30s-5.5 12.667 -11.5 12c-6.66699 -0.666992 -14.5 -5.16699 -23.5 -13.5s-17.833 -20.166 -26.5 -35.499c-6 -10.667 -11.5 -24.5 -16.5 -41.5s-9.16699 -33.5 -12.5 -49.5
c-4 -18.667 -7.66699 -38.334 -11 -59.001h-61l-1 121l-22 -24l-15 11c5.33301 8 9.33301 15.5 12 22.5s5.33398 14.5 8.00098 22.5l8 25c2.66699 8 4.66699 15 6 21l5 20h50l4 -96l7 12c14.667 32 29.667 55 45 69s31.666 21 48.999 21
c21.333 0 37.666 -8.66699 48.999 -26c4.66699 -7.33301 8.16699 -15.666 10.5 -24.999s2.83301 -26.333 1.5 -51l6 12c15.333 32 30.666 55 45.999 69s31.666 21 48.999 21c11.333 0 22.666 -3 33.999 -9s20.666 -14.667 27.999 -26
c3.33301 -4.66699 5.83301 -9.16699 7.5 -13.5s2.66699 -9.5 3 -15.5s-0.166992 -13.333 -1.5 -22s-3.33301 -19.667 -6 -33c-2.66699 -17.333 -4 -30.666 -4 -39.999s1.66699 -17 5 -23c2 -3.33301 5.16699 -6.16602 9.5 -8.49902s8.5 -3.5 12.5 -3.5
c7.33301 0 16.5 4.5 27.5 13.5s21.5 21.167 31.5 36.5c3.33301 4.66699 7.16602 10.334 11.499 17.001l12 18.5c3.66699 5.66699 6.66699 10.5 9 14.5s3.16602 6.33301 2.49902 7l23 -17l-2 -4c-19.333 -39.333 -39.5 -69 -60.5 -89s-44.167 -30 -69.5 -30
c-12.667 0 -25 3.5 -37 10.5s-22 16.5 -30 28.5c-7.33301 11.333 -11.5 24.166 -12.5 38.499s2.5 37.166 10.5 68.499c2.66699 13.333 4.33398 23.666 5.00098 30.999s-0.666016 13.666 -3.99902 18.999c-1.33301 2 -2.83301 3.33301 -4.5 4s-4.5 1 -8.5 1
c-12.667 0 -28.334 -16.333 -47.001 -49c-6 -10 -11.667 -23.5 -17 -40.5s-10 -33.5 -14 -49.5s-7.16699 -30 -9.5 -42l-3.5 -18h-56z" />
    <glyph glyph-name="n" unicode="n" horiz-adv-x="364" 
d="M36 123l-23.9951 -23.9951l-15 10l20 45c2 4 4.16699 9.66699 6.5 17s4.5 14.666 6.5 21.999s3.66699 13.666 5 18.999l2 8h52l4 -95l6 13c28 59.333 59 89 93 89c26 0 46.333 -11.667 61 -35c9.33301 -14 13 -28 11 -42l-8 -53c-1.33301 -14 -1.5 -25 -0.5 -33
s3.16699 -14.333 6.5 -19c5.33301 -8 12 -12 20 -12s17 4.5 27 13.5s20.667 21.167 32 36.5l11.5 16.5c4.33301 6.33301 8.16602 12.333 11.499 18s6.16602 10.667 8.49902 15l3.5 6.5l23 -16l-2 -5c-36.667 -78.667 -79.334 -118 -128.001 -118
c-14.667 0 -28.167 3.5 -40.5 10.5s-22.5 16.5 -30.5 28.5c-3.33301 6 -5.83301 11.667 -7.5 17s-2.5 11.666 -2.5 18.999s0.833008 16.666 2.5 27.999s4.16699 25.666 7.5 42.999c3.33301 14 5.16602 24.333 5.49902 31s-0.5 11.667 -2.5 15s-4.33301 5.33301 -7 6
s-4.33398 1 -5.00098 1c-16 0 -33.333 -16 -52 -48c-6 -10.667 -11.5 -24.5 -16.5 -41.5s-9.5 -33.5 -13.5 -49.5s-7.16699 -29.833 -9.5 -41.5l-3.5 -17.5l-57 -1z" />
    <glyph glyph-name="o" unicode="o" horiz-adv-x="301" 
d="M169 17c-9.33301 -6.66699 -19.1631 -11.168 -29.4961 -13.501s-22.166 -3.5 -35.499 -3.5c-39.333 0 -69.333 17 -90 51c-12.667 19.333 -18.334 40.666 -17.001 63.999s9.33301 44 24 62c4.66699 7.33301 10.167 13.333 16.5 18s12.166 9.66699 17.499 15
c18.667 14 38 21 58 21c19.333 0 37.166 -5.16699 53.499 -15.5s30.166 -24.5 41.499 -42.5c2 -3.33301 3.5 -6.16602 4.5 -8.49902s2 -5 3 -8l3.5 -11c1.33301 -4.33301 3 -10.166 5 -17.499c1.33301 -4 2.83301 -7.16699 4.5 -9.5s3.16699 -4.83301 4.5 -7.5
c3.33301 -5.33301 8.66602 -10.166 15.999 -14.499s13.666 -6.5 18.999 -6.5c10.667 0 19.167 3.66699 25.5 11s13.5 20.666 21.5 39.999l24 -18c-9.33301 -22.667 -18.166 -37.5 -26.499 -44.5s-19.166 -10.5 -32.499 -10.5c-18.667 0 -39.334 8 -62.001 24l-2 -9l-9 -20
c-4 -7.33301 -8.83301 -15.333 -14.5 -24s-13.5 -16 -23.5 -22zM163.003 57.999c6.66699 10.667 9.66797 22.833 9.00098 36.5s-1 29.167 -1 46.5c-4 5.33301 -7.83301 9.83301 -11.5 13.5s-6.5 7.16699 -8.5 10.5c-3.33301 6 -5.33301 11 -6 15s-1 8.66699 -1 14
c-4.66699 4.66699 -8.66699 7.5 -12 8.5s-7.66602 1.5 -12.999 1.5s-10.5 -1 -15.5 -3s-9.16699 -5 -12.5 -9l-7 -8.5c-2 -2.33301 -4 -5.5 -6 -9.5c-7.33301 -12.667 -12 -27.667 -14 -45c-3.33301 -32.667 1 -58.667 13 -78c9.33301 -14.667 21.333 -22 36 -22
c7.33301 0 16.166 2.66699 26.499 8s18.166 12.333 23.499 21z" />
    <glyph glyph-name="p" unicode="p" horiz-adv-x="392" 
d="M271 22c7.33301 1.33301 13.168 5.66797 17.501 13.001s5.16602 16.666 2.49902 27.999h-8c-6.66699 0 -13.167 -0.333008 -19.5 -1l-18.5 -2c-14.667 -3.33301 -24 -8 -28 -14s-3.66699 -12 1 -18c4.66699 -6.66699 15 -10 31 -10zM162.002 -431.998
l0.00195312 -136.493c0 -34.333 -0.5 -61.333 -1.5 -81s-2.66699 -34.167 -5 -43.5s-6.16602 -17.333 -11.499 -24c-4.66699 -6.66699 -11.667 -11.5 -21 -14.5s-19 -4.5 -29 -4.5s-19.5 1.66699 -28.5 5s-15.167 8.66602 -18.5 15.999
c-9.33301 18.667 -13.833 41.5 -13.5 68.5s-0.166992 60.167 -1.5 99.5c-0.666992 26.667 -1.33398 58.5 -2.00098 95.5s-1 85.167 -1 144.5v389l9 42l-22 -23l-17 10c-0.666992 0.666992 2 7.33398 8 20.001s12.667 30.667 20 54l21 60c0 6.66699 -0.166992 12 -0.5 16
s0.166992 6.66699 1.5 8c-0.666992 14 0.166016 26.333 2.49902 37s4.5 19.667 6.5 27c3.33301 7.33301 7 12.166 11 14.499s8.66699 3.5 14 3.5c9.33301 0 17 -4.66699 23 -14c5.33301 -6.66699 8.5 -15.834 9.5 -27.501s-0.833008 -22.834 -5.5 -33.501l-5 -31
c-2.66699 -14.667 -5.66699 -36 -9 -64s-6 -68 -8 -120c-1.33301 -17.333 -2.83301 -42.333 -4.5 -75s-2.16699 -74 -1.5 -124s1 -92.167 1 -126.5v-75.5c0 -50 -0.5 -95.5 -1.5 -136.5s-1.5 -76.833 -1.5 -107.5s0.666992 -55.834 2 -75.501s4 -32.834 8 -39.501
c3.33301 -5.33301 8.5 -9 15.5 -11s12.167 1.66699 15.5 11c2.66699 7.33301 4.5 23.666 5.5 48.999s1.66699 55.333 2 90s0.5 71.334 0.5 110.001v110l2 283c0 51.333 0.666992 93.333 2 126s3.66602 57.667 6.99902 75c3.33301 20.667 7.66602 36.667 12.999 48
c10 24 26 36 48 36c16.667 0 34.167 -5.83301 52.5 -17.5s34.833 -27.834 49.5 -48.501c8.66699 -12.667 15.334 -25.5 20.001 -38.5s8 -26.833 10 -41.5h3c10 0 18.333 0.666992 25 2s12.5 4.16602 17.5 8.49902s9.5 10.333 13.5 18s8.66699 17.834 14 30.501l24 -15
c-4 -10 -7.5 -18 -10.5 -24s-5.66699 -10.833 -8 -14.5s-4.66602 -6.5 -6.99902 -8.5s-4.83301 -4.33301 -7.5 -7c-4.66699 -4.66699 -11.334 -7.66699 -20.001 -9s-23.667 -2 -45 -2c-0.666992 -8 -2.33398 -15.667 -5.00098 -23c-2.66699 -6 -6.33398 -12 -11.001 -18
s-11.334 -10.333 -20.001 -13c-5.33301 -3.33301 -12.833 -5.33301 -22.5 -6s-19.167 -1 -28.5 -1c-27.333 0 -47 8 -59 24c-9.33301 13.333 -9.66602 24.666 -0.999023 33.999s24.334 16 47.001 20c13.333 2.66699 31 4 53 4c-2.66699 9.33301 -7.5 20.166 -14.5 32.499
s-14.833 24.5 -23.5 36.5c-11.333 16 -21.166 27.5 -29.499 34.5s-15.5 10.5 -21.5 10.5c-10 0 -18 -8.33301 -24 -25c-3.33301 -9.33301 -6 -22.666 -8 -39.999s-3.33301 -37 -4 -59l1 -142z" />
    <glyph glyph-name="q" unicode="q" horiz-adv-x="298" 
d="M155 97c1.33301 19.333 0.998047 36.666 -1.00195 51.999s-6.33301 27.666 -13 36.999c-8 10.667 -17.667 16 -29 16c-11.333 -0.666992 -20.166 -3.66699 -26.499 -9s-11.5 -12 -15.5 -20c-3.33301 -7.33301 -5.66602 -16.166 -6.99902 -26.499s-2 -20.833 -2 -31.5
c-0.666992 -13.333 1.33301 -25.666 6 -36.999s10.667 -21.333 18 -30c3.33301 -4 7 -7.33301 11 -10s8.66699 -4 14 -4c4 0 8.5 1.33301 13.5 4s9.83301 6.66699 14.5 12s8.66699 12 12 20s5 17 5 27zM332.998 -363c2 -66.667 2.33398 -127.504 1.00098 -182.504
s-3.66602 -98.5 -6.99902 -130.5c-4 -20.667 -9.83301 -35.5 -17.5 -44.5s-19.167 -14.167 -34.5 -15.5c-18 -1.33301 -34.667 1.33398 -50 8.00098s-26.666 19.667 -33.999 39c-3.33301 7.33301 -6 15.833 -8 25.5s-3.66699 19.834 -5 30.501s-2.33301 21.167 -3 31.5
s-1.33398 19.833 -2.00098 28.5c-1.33301 18.667 -2.66602 40.834 -3.99902 66.501s-2.5 55.5 -3.5 89.5s-1.5 72.333 -1.5 115s0.666992 90.667 2 144l-1 192c0 0.666992 -2.16699 -0.833008 -6.5 -4.5s-9.83301 -7.66699 -16.5 -12s-14 -8.33301 -22 -12
s-15.667 -5.5 -23 -5.5c-12.667 0 -25.834 4.16699 -39.501 12.5s-25.167 19.166 -34.5 32.499c-10.667 14 -17.667 31 -21 51s-2.33301 38.333 3 55c3.33301 11.333 8.66602 22 15.999 32s15.666 18.333 24.999 25c16.667 12 34 18 52 18c12 0 22.167 -2 30.5 -6
s16.166 -11 23.499 -21c2.66699 -3.33301 6.33398 -9.33301 11.001 -18l14 39h47v-147v-252c0.666992 -28.667 1.16699 -57 1.5 -85s0.5 -56.5 0.5 -85.5s0.166992 -59.167 0.5 -90.5s0.833008 -64.333 1.5 -99c0 -21.333 0.333008 -39.666 1 -54.999
s1.16699 -28.166 1.5 -38.499s1 -19 2 -26s2.16699 -12.833 3.5 -17.5c2.66699 -10 6.5 -18 11.5 -24s12.167 -8.66699 21.5 -8c7.33301 0.666992 13.333 3 18 7s7.66699 12.667 9 26c1.33301 14 2.33301 34.333 3 61s1 56 1 88s-0.166992 65.167 -0.5 99.5
s-0.5 66.5 -0.5 96.5v443l32 2z" />
    <glyph glyph-name="r" unicode="r" horiz-adv-x="270" 
d="M123 113c-13.333 -16.667 -20.834 -34.665 -22.501 -53.998s-1.16699 -39 1.5 -59h-66v115l-23 -24l-16 11l2.5 4.5l6.5 12l8.5 16c3 5.66699 5.5 11.167 7.5 16.5c10 22.667 15.333 43.334 16 62.001h51l6 -89c3.33301 4.66699 6 8.66699 8 12s4.16699 6.5 6.5 9.5
s5.33301 6.33301 9 10s9.16699 8.16699 16.5 13.5l7 9c-7.33301 36 4.66699 54 36 54c6.66699 0 13.334 -1.33301 20.001 -4s11.667 -6.66699 15 -12c6.66699 -10.667 6.66699 -20 0 -28s-19 -17.667 -37 -29c3.33301 -22 10 -40.667 20 -56c4 -6.66699 9.5 -12 16.5 -16
s14.833 -6 23.5 -6c8 0 15.333 3.66699 22 11s13.667 20.666 21 39.999l24 -17c-8.66699 -23.333 -16.834 -38.666 -24.501 -45.999s-18.5 -11 -32.5 -11c-14.667 0 -28.667 4.16699 -42 12.5s-24.666 19.166 -33.999 32.499c-4.66699 7.33301 -8.16699 14.166 -10.5 20.499
s-4.83301 14.166 -7.5 23.499z" />
    <glyph glyph-name="s" unicode="s" horiz-adv-x="270" 
d="M178 51c0 8 -0.830078 15.166 -2.49707 21.499s-4.5 14 -8.5 23s-9.66699 20.333 -17 34l-30 53.5l-7 -22c-1.33301 -5.33301 -3.5 -11.166 -6.5 -17.499s-6.33301 -12.5 -10 -18.5s-7.33398 -11.5 -11.001 -16.5s-6.83398 -8.5 -9.50098 -10.5l7 -10
c1.33301 -2 2.66602 -4.33301 3.99902 -7c6 -9.33301 9 -17.333 9 -24s-1.66699 -11 -5 -13c-1.33301 -1.33301 -3 -2 -5 -2s-1.66699 -2.33301 1 -7c2 -3.33301 7.83301 -6.66602 17.5 -9.99902s20.167 -5 31.5 -5c8.66699 0 16.667 1 24 3
c4.66699 1.33301 9.16699 4.16602 13.5 8.49902s5.83301 10.833 4.5 19.5zM183.003 5.99902c-5.33301 -1.33301 -12.8311 -2.83203 -22.498 -4.49902s-17.5 -2.16699 -23.5 -1.5c-21.333 0 -41.5 3.16699 -60.5 9.5s-35.167 15.166 -48.5 26.499
c-4.66699 4 -10 9.5 -16 16.5s-10.333 13.167 -13 18.5c-7.33301 15.333 -9.33301 27.833 -6 37.5s12.666 14.5 27.999 14.5c7.33301 0 12.666 -0.666992 15.999 -2s8.66602 -3.66602 15.999 -6.99902l4 2c0.666992 2 2.33398 5.16699 5.00098 9.5s5.5 9.33301 8.5 15
l9.5 18c3.33301 6.33301 6 12.166 8 17.499l16 36c-20 46.667 -10.333 70 29 70c10.667 0 19.334 -5.33301 26.001 -16c4 -7.33301 5.66699 -12.833 5 -16.5s-3.33398 -10.167 -8.00098 -19.5c-1.33301 -2.66699 -3 -5.5 -5 -8.5s-3.66699 -7.16699 -5 -12.5l9 -11l21 -24
c8 -8 15.5 -16.333 22.5 -25s12.833 -17.334 17.5 -26.001c5.33301 -9.33301 10 -17.833 14 -25.5l11 -21.5c8 8.66699 15.833 18.334 23.5 29.001s14.167 22 19.5 34l25 -16l-5 -5c-20 -32 -39.667 -57 -59 -75s-40 -30.333 -62 -37z" />
    <glyph glyph-name="t" unicode="t" horiz-adv-x="207" 
d="M-112 315l-2.00977 10.998c-0.666992 2.66699 1.5 4.5 6.5 5.5s11.167 1.66699 18.5 2s14.833 0.333008 22.5 0s14.167 -0.5 19.5 -0.5h42.5c11 0 23.833 0.333008 38.5 1l4 89c0.666992 14.667 1.33398 26.667 2.00098 36s1.16699 16.666 1.5 21.999
s0.833008 9.5 1.5 12.5s1.33398 5.5 2.00098 7.5c6.66699 4.66699 15.334 7 26.001 7c8 0 13.667 -2 17 -6c0.666992 -0.666992 0.666992 -2 0 -4c2 -2 3 -6.66699 3 -14l-1 -150c0 -0.666992 6.33301 -0.833984 19 -0.500977s28.667 0.5 48 0.5s40.5 0.166992 63.5 0.5
s44.833 0.5 65.5 0.5s38.5 -0.166992 53.5 -0.5s24.167 -0.833008 27.5 -1.5c3.33301 0 5.66602 -5 6.99902 -15c-3.33301 -1.33301 -5.66602 -2 -6.99902 -2h-7c-11.333 -0.666992 -28.666 -1 -51.999 -1h-88h-131l1 -130
c0.666992 -43.333 1.83398 -75.666 3.50098 -96.999s5.16699 -35.666 10.5 -42.999c3.33301 -4.66699 6.83301 -7.83398 10.5 -9.50098s9.16699 -2.5 16.5 -2.5c8 0 16.333 2.83301 25 8.5s17 13.334 25 23.001s15.333 21 22 34s12 26.833 16 41.5l27 -17l-3 -6
c-15.333 -39.333 -32.666 -68.666 -51.999 -87.999s-41.666 -29 -66.999 -29c-31.333 0 -57 13 -77 39c-3.33301 4.66699 -6.16602 8.83398 -8.49902 12.501s-4.16602 8 -5.49902 13s-2.66602 11 -3.99902 18s-2.66602 15.833 -3.99902 26.5l-8 -10l-17 10
c5.33301 8.66699 9.16602 16.334 11.499 23.001s5.16602 15.667 8.49902 27c2 7.33301 3.83301 14.666 5.5 21.999s2.83398 16 3.50098 26s1 22.167 1 36.5v54.5l-1 17h-141z" />
    <glyph glyph-name="u" unicode="u" horiz-adv-x="364" 
d="M95 124l0.00585938 -20.001c0 -8.66699 0.166992 -17.5 0.5 -26.5s1 -17.167 2 -24.5s2.5 -12.333 4.5 -15c4 -4 8 -7 12 -9s9.66699 -3 17 -3s14.5 2.83301 21.5 8.5s13.333 13.5 19 23.5s10 21.5 13 34.5s4.5 26.833 4.5 41.5l3 87h66l-3 -147
c0 -5.33301 0.333008 -10.833 1 -16.5s2.33398 -10.167 5.00098 -13.5c3.33301 -4.66699 6.5 -7.83398 9.5 -9.50098s7.5 -2.5 13.5 -2.5c7.33301 0 15.5 3 24.5 9s17.667 14 26 24s16.166 21.5 23.499 34.5s13 26.5 17 40.5l26 -17l-2 -6
c-16 -40.667 -34.5 -70.334 -55.5 -89.001s-45.167 -28 -72.5 -28s-49.333 11 -66 33c-1.33301 1.33301 -2.33301 3.33301 -3 6s-1.66699 5.66699 -3 9c-11.333 -17.333 -23 -29.666 -35 -36.999s-26.667 -11 -44 -11c-33.333 0 -60 13 -80 39
c-7.33301 10.667 -11.833 20.834 -13.5 30.501s-1.83398 24.5 -0.500977 44.5l-11 -15l-17 11l2 5c1.33301 3.33301 3.16602 7.5 5.49902 12.5s4.66602 10.333 6.99902 16s4.16602 10.834 5.49902 15.501c5.33301 16.667 8.16602 28.5 8.49902 35.5
s1.16602 15.833 2.49902 26.5h66v-97z" />
    <glyph glyph-name="v" unicode="v" horiz-adv-x="326" 
d="M88 81c0 -19.333 2.33398 -32.332 7.00098 -38.999c8 -11.333 18 -17 30 -17c10 0 19.833 3 29.5 9s18.167 13.667 25.5 23c10.667 13.333 18.167 27.833 22.5 43.5s4.5 29.167 0.5 40.5c-4.66699 5.33301 -8.16699 9.5 -10.5 12.5l-7.5 9.5
c-15.333 21.333 -23.333 37.666 -24 48.999s5.66602 17 18.999 17c8 0 16.5 -2.83301 25.5 -8.5s16.833 -13.167 23.5 -22.5c6 -8.66699 10.333 -16.167 13 -22.5s5.33398 -17.5 8.00098 -33.5c-0.666992 -7.33301 -0.166992 -13.166 1.5 -17.499
s4.16699 -8.83301 7.5 -13.5c4.66699 -6 10.667 -11.333 18 -16s14.333 -7 21 -7c10 0 18.167 3.66699 24.5 11s11.5 20.666 15.5 39.999l28 -16c-7.33301 -23.333 -15 -38.5 -23 -45.5s-19.333 -10.5 -34 -10.5c-20 0 -41 9 -63 27c-10 -26 -26 -48.167 -48 -66.5
s-46 -27.5 -72 -27.5c-18 0 -34.667 3.66699 -50 11s-28 17.666 -38 30.999c-6 8 -10 15.667 -12 23s-2.66699 18.666 -2 33.999l1 10l-9 -10l-16 10l2 5c1.33301 3.33301 2.83301 7.5 4.5 12.5s3.16699 10.167 4.5 15.5s2.66602 10 3.99902 14
c2 8.66699 3.83301 15.834 5.5 21.501s3 10.834 4 15.501s2 9 3 13s1.83301 8.66699 2.5 14h66z" />
    <glyph glyph-name="w" unicode="w" horiz-adv-x="503" 
d="M117 0c-15.333 0 -29.9932 4.00098 -43.9932 12.001s-25.667 18 -35 30c-6 8 -9.83301 16.833 -11.5 26.5s-1.5 23.167 0.5 40.5l-11 -10l-16 10l5 15c1.33301 4.66699 3 9.66699 5 15s3.66699 11 5 17c6 15.333 9.66699 27.166 11 35.499s3.33301 17.833 6 28.5h64
c-1.33301 -20 -2.33301 -37.333 -3 -52s-1.33398 -28 -2.00098 -40s-1 -23.333 -1 -34s0.333008 -22 1 -34c0.666992 -4.66699 1.5 -8.5 2.5 -11.5s2.16699 -5.16699 3.5 -6.5c3.33301 -4.66699 7.5 -8.66699 12.5 -12s10.167 -5 15.5 -5c9.33301 0 19 3 29 9
s18.667 13.667 26 23c8 9.33301 13.5 19.833 16.5 31.5s4.83301 29.167 5.5 52.5c0 18.667 0.5 33.667 1.5 45s2.83301 20 5.5 26s6.5 9.83301 11.5 11.5s11.5 2.5 19.5 2.5c4.66699 0 9 -0.5 13 -1.5s7.33301 -3.5 10 -7.5c2 -3.33301 3.5 -7.66602 4.5 -12.999
s1.83301 -11.333 2.5 -18c-2 -11.333 -3.33301 -25 -4 -41s-1 -35 -1 -57l-2 -21c0 -5.33301 1 -10 3 -14s4 -7.66699 6 -11c3.33301 -4.66699 7.16602 -8.66699 11.499 -12s10.166 -5 17.499 -5c9.33301 0 18.666 3 27.999 9s17.666 13.667 24.999 23
c11.333 13.333 19.166 27.833 23.499 43.5s3.83301 29.167 -1.5 40.5l-17 22c-15.333 21.333 -23.333 37.666 -24 48.999s5.33301 17 18 17c9.33301 0 18.333 -2.83301 27 -8.5s16.334 -13.167 23.001 -22.5c6 -8.66699 10.333 -16.167 13 -22.5
s5.33398 -17.5 8.00098 -33.5c1.33301 -7.33301 2.16602 -13.166 2.49902 -17.499s2.16602 -8.83301 5.49902 -13.5c4.66699 -6 11 -11.333 19 -16s15.667 -7 23 -7c10.667 0 18.667 3.66699 24 11s11 20.666 17 39.999l25 -16c-6 -23.333 -13.167 -38.5 -21.5 -45.5
s-19.166 -10.5 -32.499 -10.5c-22 0 -44.333 9 -67 27c-8.66699 -28 -24.167 -50.667 -46.5 -68s-46.5 -26 -72.5 -26c-36.667 0 -62.667 11 -78 33c-2.66699 3.33301 -4.83398 6.16602 -6.50098 8.49902s-3.5 5.5 -5.5 9.5c-12 -12 -25.833 -23.167 -41.5 -33.5
s-32.834 -16.166 -51.501 -17.499z" />
    <glyph glyph-name="x" unicode="x" horiz-adv-x="386" 
d="M264 163c15.333 7.33301 26.5 13.668 33.5 19.001s8.16699 11.666 3.5 18.999c-2.66699 3.33301 -5 5.83301 -7 7.5s-5.33301 2.5 -10 2.5c-7.33301 0 -14 -1.16699 -20 -3.5s-12.667 -5.83301 -20 -10.5c-6 -6 -11.333 -13.667 -16 -23s-7.66699 -19 -9 -29zM355 55.002
c10.667 9.33301 19 21.001 25 35.001s12.667 30.667 20 50l23 -16l-2 -5c-9.33301 -22 -18.166 -40.333 -26.499 -55s-18.5 -27.334 -30.5 -38.001c-11.333 -8.66699 -24.5 -15.167 -39.5 -19.5s-29.833 -6.5 -44.5 -6.5c-22.667 0 -41.667 3.16699 -57 9.5
s-31.666 17.5 -48.999 33.5c-5.33301 -4 -10.333 -8.33301 -15 -13s-9.66699 -8.66699 -15 -12c-9.33301 -6 -18.333 -10.5 -27 -13.5s-18.334 -4.5 -29.001 -4.5c-9.33301 0 -18.166 2.16699 -26.499 6.5s-15.166 10.833 -20.499 19.5c-10 15.333 -10.667 28.666 -2 39.999
s26 22.333 52 33l42 17l13 7c0 12.667 -0.833008 23.667 -2.5 33s-5.16699 18.333 -10.5 27c-4 6 -9 10.833 -15 14.5s-11.333 5.5 -16 5.5c-11.333 0 -21.166 -5.66699 -29.499 -17s-19.166 -29.333 -32.499 -54l-7 -13l-23 13l8 18c13.333 30 27.5 50.667 42.5 62
s31.167 17 48.5 17c18 0 33.167 -2.16699 45.5 -6.5s22.166 -11.833 29.499 -22.5l2 -5l19.5 15.5c6.33301 5 15.166 9.5 26.499 13.5c10 2 19.333 3.33301 28 4s18.667 1 30 1c10.667 0 20.667 -2 30 -6s16.666 -9.66699 21.999 -17
c7.33301 -11.333 6.66602 -21.666 -2.00098 -30.999s-29 -20 -61 -32c-16 -6 -28.167 -10.833 -36.5 -14.5s-17.833 -6.83398 -28.5 -9.50098l1 -7c0.666992 -4.66699 1.5 -10.167 2.5 -16.5s2.16699 -12.666 3.5 -18.999s3.33301 -11.5 6 -15.5
c6 -9.33301 14.333 -17.333 25 -24s21.667 -10 33 -10c11.333 1.33301 23.666 4.33301 36.999 9s24.333 11 33 19zM147 99.0029c-8.66699 -3.33301 -16.9971 -6.83203 -24.9971 -10.499s-15 -7.16699 -21 -10.5l-15.5 -9.5c-5 -3 -8.83301 -6.33301 -11.5 -10
s-4.16699 -7.5 -4.5 -11.5s1.16699 -8.33301 4.5 -13c2.66699 -3.33301 6.66699 -5.5 12 -6.5s9.66602 -1.5 12.999 -1.5c5.33301 0 10.666 1.83301 15.999 5.5s9.66602 7.16699 12.999 10.5c7.33301 8 12.333 17.167 15 27.5s4 20.166 4 29.499z" />
    <glyph glyph-name="y" unicode="y" horiz-adv-x="324" 
d="M250 73l-0.00292969 -252.007c0.666992 -28.667 1.16699 -57 1.5 -85s0.5 -56.5 0.5 -85.5s0.166992 -59.167 0.5 -90.5s0.833008 -64.333 1.5 -99c0 -21.333 0.333008 -39.666 1 -54.999s1.16699 -28.166 1.5 -38.499s1 -19 2 -26s2.16699 -12.833 3.5 -17.5
c2.66699 -10 6.5 -18 11.5 -24s12.167 -8.66699 21.5 -8c7.33301 0.666992 13.333 3 18 7s7.66699 12.667 9 26c1.33301 14 2.33301 34.333 3 61s1 56 1 88s-0.166992 65.167 -0.5 99.5s-0.5 66.5 -0.5 96.5v443l32 2l2 -478c2 -66.667 2.33301 -127.5 1 -182.5
s-3.66602 -98.5 -6.99902 -130.5c-4 -20.667 -9.83301 -35.5 -17.5 -44.5s-19.167 -14.167 -34.5 -15.5c-18 -1.33301 -34.667 1.33398 -50 8.00098s-26.666 19.667 -33.999 39c-3.33301 7.33301 -6 15.833 -8 25.5s-3.66699 19.834 -5 30.501s-2.33301 21.167 -3 31.5
s-1.33398 19.833 -2.00098 28.5c-1.33301 18.667 -2.66602 40.834 -3.99902 66.501s-2.5 55.5 -3.5 89.5s-1.5 72.333 -1.5 115s0.666992 90.667 2 144l-2 208c-11.333 -19.333 -22.666 -32.5 -33.999 -39.5s-24.666 -10.5 -39.999 -10.5c-16.667 0 -31 3.5 -43 10.5
s-22.667 16.833 -32 29.5c-6.66699 8.66699 -10.834 16.667 -12.501 24s-2.5 17 -2.5 29c-0.666992 2 -0.666992 4.33301 0 7s1.33398 6 2.00098 10l-12 -11l-17 11c1.33301 5.33301 3.33301 11 6 17c1.33301 4.66699 3 9.66699 5 15s3.66699 10 5 14
c1.33301 6 3 12.667 5 20l6 21c2 6.66699 3.5 12.334 4.5 17.001s1.16699 7 0.5 7h63l-4 -146c-1.33301 -9.33301 -1.16602 -16.5 0.500977 -21.5s4.16699 -9.5 7.5 -13.5c2.66699 -3.33301 6.33398 -6.5 11.001 -9.5s9.33398 -4.5 14.001 -4.5
c5.33301 0 10.666 2.33301 15.999 7s11 10.667 17 18c4 6 7.83301 12.833 11.5 20.5s7 15.5 10 23.5s5.5 15.5 7.5 22.5s3 12.833 3 17.5l6 60c1.33301 10.667 5.66602 19 12.999 25s17 9 29 9c9.33301 0 16.666 -2.66699 21.999 -8c4 -4.66699 6 -9.5 6 -14.5
s-0.666992 -10.5 -2 -16.5l-4.5 -20c-1.66699 -7.33301 -2.83398 -15.666 -3.50098 -24.999z" />
    <glyph glyph-name="z" unicode="z" horiz-adv-x="327" 
d="M158 30c14 -6.66699 24.499 -19.1641 31.499 -37.4971s10.833 -36.833 11.5 -55.5c0 -0.666992 2.66699 2.5 8 9.5l19 25.5l23 32l20 28l17 25.5l20 29.5c6.66699 10 12.667 19.5 18 28.5s9.66602 16.833 12.999 23.5l22 -16l-3 -6
c-2.66699 -4.66699 -6.5 -10.834 -11.5 -18.501l-17 -26.5c-6.33301 -10 -13.333 -20.5 -21 -31.5l-22.5 -32.5l-58 -82l-26 -40l-2 -143c1.33301 -66.667 -0.166992 -127 -4.5 -181s-11.5 -101 -21.5 -141c-4 -18 -10 -36.333 -18 -55s-17.5 -35.5 -28.5 -50.5
s-22.667 -27.167 -35 -36.5s-24.5 -14 -36.5 -14c-15.333 0 -30.166 4.83301 -44.499 14.5s-26.166 22.167 -35.499 37.5c-11.333 19.333 -18.833 40.833 -22.5 64.5s-3.83398 49.5 -0.500977 77.5l14 57.5c4.66699 18.333 10.667 38.166 18 59.499
c4 11.333 9.83301 25 17.5 41l23.5 50l35.5 70.5c12.333 23.667 23.833 44.167 34.5 61.5c13.333 21.333 24 39.5 32 54.5s13 25.167 15 30.5c0.666992 -0.666992 1.66699 1.5 3 6.5s2.66602 11.167 3.99902 18.5s2.16602 15.333 2.49902 24s0.166016 16 -0.500977 22
c0.666992 11.333 -1 21.666 -5 30.999s-7.66699 15 -11 17c-4 -8.66699 -9.83301 -16.834 -17.5 -24.501s-18.167 -13.167 -31.5 -16.5c-3.33301 0 -6.16602 0.5 -8.49902 1.5s-4.5 3.83301 -6.5 8.5c-3.33301 8.66699 -2 18.5 4 29.5s15.667 20.833 29 29.5
c8.66699 4 16 9.5 22 16.5s10.5 14.333 13.5 22s5.16699 15.334 6.5 23.001s2 13.834 2 18.501c1.33301 13.333 0.333008 26.5 -3 39.5s-7.66602 23.833 -12.999 32.5c-4 6 -9 10.833 -15 14.5s-11.333 5.5 -16 5.5c-11.333 0 -21.166 -5.66699 -29.499 -17
s-19.166 -29.333 -32.499 -54l-7 -13l-23 13l8 18c13.333 30 27.5 50.667 42.5 62s31.167 17 48.5 17c18 0 33.833 -3.83301 47.5 -11.5s24.167 -18.834 31.5 -33.501c10 -15.333 14.5 -31.833 13.5 -49.5s-4.16699 -33.167 -9.5 -46.5
c-3.33301 -9.33301 -7.83301 -19 -13.5 -29s-12.5 -19.667 -20.5 -29zM143.999 -516.997c1.33301 20.667 2.33398 40.168 3.00098 58.501s0.333984 40.833 -0.999023 67.5l-3 104l1 116l-27 -54c-10 -17.333 -18 -32.833 -24 -46.5s-11.333 -25.167 -16 -34.5
c-5.33301 -10.667 -10.166 -21.667 -14.499 -33l-12.5 -34l-23 -70c-7.33301 -23.333 -13 -44.666 -17 -63.999c-6 -36.667 -8.83301 -70.334 -8.5 -101.001s5.16602 -53.667 14.499 -69c5.33301 -8.66699 12.166 -15.834 20.499 -21.501s17.166 -8.5 26.499 -8.5
c10 0 19.5 6 28.5 18s17.167 27.333 24.5 46s13.5 39.167 18.5 61.5s8.16699 43.833 9.5 64.5z" />
    <glyph glyph-name="guillemotleft" unicode="&#xab;" horiz-adv-x="420" 
d="M179 -117l-6.99902 9.00098c35.333 28 52 52.333 50 73c-2 9.33301 -7 17.333 -15 24c-12 9.33301 -18.333 19.666 -19 30.999c-2 10.667 0.333008 20 7 28c4.66699 7.33301 12 11 22 11c19.333 0 31 -14 35 -42c2 -23.333 -3.66699 -47 -17 -71
c-12.667 -24 -31.334 -45 -56.001 -63zM80.001 -115.999l-6.99902 9.00098c35.333 28 52 52.333 50 73c-2 9.33301 -7 17.333 -15 24c-12 9.33301 -18.333 19.666 -19 30.999c-2 10.667 0.333008 20 7 28c4.66699 7.33301 12 11 22 11c19.333 0 31 -14 35 -42
c2 -23.333 -3.66699 -47 -17 -71c-12.667 -24 -31.334 -45 -56.001 -63z" />
    <glyph glyph-name="guillemotright" unicode="&#xbb;" horiz-adv-x="420" 
d="M179 321l-6.99902 9.00098c35.333 28 52 52.333 50 73c-2 9.33301 -7 17.333 -15 24c-12 9.33301 -18.333 19.666 -19 30.999c-2 10.667 0.333008 20 7 28c4.66699 7.33301 12 11 22 11c19.333 0 31 -14 35 -42c2 -23.333 -3.66699 -47 -17 -71
c-12.667 -24 -31.334 -45 -56.001 -63zM80.001 322.001l-6.99902 9.00098c35.333 28 52 52.333 50 73c-2 9.33301 -7 17.333 -15 24c-12 9.33301 -18.333 19.666 -19 30.999c-2 10.667 0.333008 20 7 28c4.66699 7.33301 12 11 22 11c19.333 0 31 -14 35 -42
c2 -23.333 -3.66699 -47 -17 -71c-12.667 -24 -31.334 -45 -56.001 -63z" />
    <glyph glyph-name="afii10023" unicode="&#x401;" horiz-adv-x="537" 
d="M87 514c-17.333 28 -24.665 55.5059 -21.998 82.5059s13.167 51 31.5 72s44.166 38 77.499 51s72.333 19.5 117 19.5c48 0 91.667 -8.5 131 -25.5s69 -40.5 89 -70.5c6 -9.33301 10.333 -24 13 -44s-1.66602 -46 -12.999 -78l-2 -7l-27 13l2 5
c7.33301 17.333 8.66602 34.666 3.99902 51.999s-12.334 33.666 -23.001 48.999c-17.333 25.333 -39 44.666 -65 57.999s-53 20 -81 20c-30 0 -57.667 -7 -83 -21s-43.333 -33.333 -54 -58c-6 -10 -10 -21.5 -12 -34.5s-2.33301 -26.333 -1 -40s4 -27.334 8 -41.001
s9.66699 -25.834 17 -36.501l10 -15c13.333 1.33301 22.5 2.66602 27.5 3.99902s9.83301 2 14.5 2c18.667 0 35 -2.83301 49 -8.5s24 -13.167 30 -22.5s4.83301 -17.5 -3.5 -24.5s-22.5 -10.5 -42.5 -10.5c-12.667 0 -25.334 1.83301 -38.001 5.5
s-29.334 9.16699 -50.001 16.5c-28.667 -7.33301 -52.5 -21 -71.5 -41s-32.333 -43.5 -40 -70.5s-9.16699 -56.167 -4.5 -87.5s16.667 -61.666 36 -90.999c46 -71.333 115.667 -107 209 -107c62 0 115 12.667 159 38s73.667 60.666 89 105.999l34 -21l-4 -7
c-49.333 -98 -148.666 -147 -297.999 -147c-63.333 0 -118.166 11.833 -164.499 35.5s-84.5 57.834 -114.5 102.501c-20 30.667 -31.333 62.167 -34 94.5s2 62.833 14 91.5s31.167 54.167 57.5 76.5s58.833 39.166 97.5 50.499c-15.333 9.33301 -27 17.833 -35 25.5
s-16.667 17.167 -26 28.5zM349.001 775.006c-21.333 0 -33.666 8.33105 -36.999 24.998c-2.66699 12 -0.333984 22 6.99902 30s17.333 12 30 12c9.33301 0 17 -2.16699 23 -6.5s9.33301 -11.166 10 -20.499s-1.33301 -18.166 -6 -26.499s-13.667 -12.833 -27 -13.5z
M239.001 775.004c-21.333 0 -33.666 8.33105 -36.999 24.998c-2.66699 12 -0.333984 22 6.99902 30s17.333 12 30 12c9.33301 0 17 -2.16699 23 -6.5s9.33301 -11.166 10 -20.499s-1.33301 -18.166 -6 -26.499s-13.667 -12.833 -27 -13.5z" />
    <glyph glyph-name="afii10017" unicode="&#x410;" horiz-adv-x="821" 
d="M881 133c-13.333 -16.667 -28.1582 -30.333 -44.4912 -41s-31.5 -19 -45.5 -25s-25.833 -10 -35.5 -12s-14.5 -2.66699 -14.5 -2c-4.66699 -18 -9.5 -31 -14.5 -39s-12.833 -12 -23.5 -12c-7.33301 0 -13.833 1.83301 -19.5 5.5s-10.167 8.16699 -13.5 13.5
c-2.66699 4 -4.83398 8.83301 -6.50098 14.5l-7.5 25.5c-26.667 2.66699 -52.667 6.83398 -78 12.501s-48 12.167 -68 19.5c-15.333 5.33301 -32.333 11.833 -51 19.5s-35.667 15.5 -51 23.5c-30.667 -46 -66.167 -79.833 -106.5 -101.5s-86.5 -32.5 -138.5 -32.5
c-23.333 0 -46.166 2.66699 -68.499 8s-43.166 12.833 -62.499 22.5s-37 21.5 -53 35.5s-29.333 29.667 -40 47c-13.333 22.667 -17.333 42.167 -12 58.5s19.666 24.5 42.999 24.5c8.66699 0 18 -1.83301 28 -5.5s19.833 -8.5 29.5 -14.5s18.667 -13 27 -21
s15.166 -16.667 20.499 -26c9.33301 -16.667 12.166 -31.167 8.49902 -43.5s-12.834 -18.5 -27.501 -18.5h-8c-10 0 -13 -2.66699 -9 -8c2.66699 -4.66699 7.66699 -9.16699 15 -13.5s16 -8 26 -11s21.167 -5.5 33.5 -7.5s24.833 -3 37.5 -3c52 0 99.667 12.667 143 38
c8.66699 5.33301 16.5 10.666 23.5 15.999s13.667 11.333 20 18s12.833 14.5 19.5 23.5s14 19.5 22 31.5c-57.333 32 -102.166 62.5 -134.499 91.5s-58.5 60.167 -78.5 93.5c-14.667 24 -23.834 46.167 -27.501 66.5s-2.33398 37.666 3.99902 51.999
s18.166 25.333 35.499 33s39.666 11.167 66.999 10.5c22.667 -1.33301 48.167 -6.5 76.5 -15.5s55.166 -18.833 80.499 -29.5c29.333 -12 59 -26 89 -42c6 12.667 11.333 25 16 37l14.5 37c5 12.667 10.833 26 17.5 40s15 30 25 48c20 36 37.333 63.333 52 82
c9.33301 12 20.666 22.667 33.999 32s25 14 35 14c22.667 0 40.667 -10.667 54 -32c3.33301 -5.33301 5.5 -11.166 6.5 -17.499s0.833008 -15.833 -0.5 -28.5l-7 -53l-8 -79c-1.33301 -14.667 -2.33301 -30 -3 -46s-2 -32.667 -4 -50c-1.33301 -13.333 -2 -25 -2 -35v-38
c-0.666992 -19.333 -0.833984 -39.666 -0.500977 -60.999s1.5 -48.333 3.5 -81l6 -51c2.66699 -15.333 4 -28 4 -38s0.666992 -15 2 -15c16.667 0 33 3.83301 49 11.5s30 16 42 25s21.667 17.167 29 24.5s11.333 10.666 12 9.99902zM653.008 236.001
c0 4.66699 -2.33008 10.3311 -6.99707 16.998s-10.334 13.334 -17.001 20.001l-21 20.5l-20 19.5l-24.5 22.5l-23 20.5c-7 6 -12.833 10.667 -17.5 14l-7 5c-3.33301 -4.66699 -6.16602 -10.667 -8.49902 -18s-5.16602 -14.666 -8.49902 -21.999
c-4.66699 -10.667 -9.83398 -25 -15.501 -43s-11.834 -33.333 -18.501 -46l-25 -46c-4.66699 -9.33301 -8.33398 -16.333 -11.001 -21l-6.5 -11.5c-1.66699 -3 -2.83398 -5.5 -3.50098 -7.5s-1.66699 -4.33301 -3 -7l36.5 -16.5c11 -5 21.833 -9.5 32.5 -13.5
c18 -7.33301 43 -15 75 -23s65 -14.667 99 -20c-0.666992 5.33301 -1.16699 9.83301 -1.5 13.5l-1 11.5c-0.333008 4 -0.5 8.66699 -0.5 14v20v18.5c0 7 -0.166992 14.167 -0.5 21.5l-1 21.5c-0.333008 7 -0.5 12.833 -0.5 17.5zM668.011 543.998
c3.33301 16 6.49902 32.501 9.49902 49.501s5.16699 32.167 6.5 45.5c0.666992 2.66699 0.5 5.66699 -0.5 9s-2.16699 6.33301 -3.5 9s-2.83301 4.16699 -4.5 4.5s-3.16699 0.5 -4.5 0.5c-2.66699 0 -7 -1.66699 -13 -5s-14 -11.666 -24 -24.999
c-9.33301 -12.667 -16.666 -25 -21.999 -37s-12.666 -26.667 -21.999 -44c-2.66699 -5.33301 -7 -14.666 -13 -27.999l-18.5 -41l-17 -38.5c-5 -11.667 -7.5 -17.834 -7.5 -18.501c-3.33301 -5.33301 -6.16602 -11 -8.49902 -17l-5.5 -14l16 -11.5
c5.33301 -3.66699 12 -8.83398 20 -15.501c19.333 -16 36.666 -32 51.999 -48s29.666 -32 42.999 -48c0.666992 4 1.16699 7.16699 1.5 9.5s0.833008 4.83301 1.5 7.5c0 4 -0.166992 10.167 -0.5 18.5s-0.166016 18.833 0.500977 31.5c0 7.33301 0.166992 16 0.5 26l1 30.5
c0.333008 10.333 0.666016 20.166 0.999023 29.499s1.16602 17.333 2.49902 24c0 2 0.333008 7 1 15s1.33398 17 2.00098 27s1.5 20 2.5 30s2.16699 18 3.5 24zM399.01 181.999c6 10 12.168 22.168 18.501 36.501l19.5 44c6.66699 15 12.667 29.667 18 44l14 36.5l11.5 30.5
c2.33301 6.33301 4.5 14.166 6.5 23.499l-11.5 5.5l-30.5 14.5l-43 19.5c-16 7 -32.333 13.5 -49 19.5s-32.667 11.167 -48 15.5s-28.333 6.5 -39 6.5c-49.333 0.666992 -79.666 -13.166 -90.999 -41.499s-4.33301 -63.833 21 -106.5
c17.333 -28.667 42.666 -56.834 75.999 -84.501s72.666 -54.167 117.999 -79.5z" />
    <glyph glyph-name="afii10018" unicode="&#x411;" horiz-adv-x="1018" 
d="M777 25c-9.33301 -1.33301 -15.8301 -2.5 -19.4971 -3.5s-8.83398 -1.5 -15.501 -1.5c-35.333 0 -57.333 7 -66 21c-2.66699 4 -2.16699 8.16699 1.5 12.5s9 8.16602 16 11.499s15 6.33301 24 9s17.833 4.33398 26.5 5.00098c12 1.33301 24.167 2.5 36.5 3.5
s26.166 1.5 41.499 1.5h11c-6.66699 -16 -13.334 -28.5 -20.001 -37.5s-18.667 -16.167 -36 -21.5zM672.003 307c-17.333 1.33301 -30.6621 0.166016 -39.9951 -3.50098s-11.333 -9.83398 -6 -18.501c1.33301 -2.66699 4.16602 -5 8.49902 -7s9.83301 -3 16.5 -3
c8 0 15.167 0.833008 21.5 2.5s15.166 4.16699 26.499 7.5h10c18 -2.66699 34 -9.83398 48 -21.501s28 -29.167 42 -52.5c11.333 -19.333 20.166 -37.833 26.499 -55.5s8.83301 -34.167 7.5 -49.5h-16c-16 0 -31 -0.666992 -45 -2s-27.333 -2.66602 -40 -3.99902
c-42 -6.66699 -72.833 -15.5 -92.5 -26.5s-24.834 -24.5 -15.501 -40.5c7.33301 -12 18 -20.833 32 -26.5s33.667 -8.5 59 -8.5c13.333 0 26.333 0.333008 39 1s26.334 3.33398 41.001 8.00098c26 5.33301 47 14 63 26s28.667 28.333 38 49
c14 -1.33301 24.833 -2.16602 32.5 -2.49902s15.167 -0.5 22.5 -0.5c18 0 33 0.833008 45 2.5s22.167 5 30.5 10s15.333 11.833 21 20.5s11.167 20 16.5 34l-26 16l-1 -5.5c-0.666992 -3.66699 -2 -8 -4 -13s-4.5 -10 -7.5 -15s-6.5 -8.83301 -10.5 -11.5
c-6.66699 -5.33301 -15.5 -9.5 -26.5 -12.5s-25.833 -4.5 -44.5 -4.5c-4 0 -8.5 0.166992 -13.5 0.5s-12.5 1.16602 -22.5 2.49902c1.33301 13.333 0.166016 28 -3.50098 44s-10.834 32.667 -21.501 50c-17.333 28 -41.5 52.333 -72.5 73s-66.5 32.334 -106.5 35.001z
M701.007 679c13.333 2.66699 26.0059 4.50293 38.0059 5.50293s24.333 0.833008 37 -0.5c21.333 -2.66699 39.666 -6.16699 54.999 -10.5s27.333 -11.833 36 -22.5c11.333 -15.333 7.33301 -29 -12 -41s-50 -21.333 -92 -28l-12 -1c-15.333 -3.33301 -30 -4.83301 -44 -4.5
s-30.667 0.5 -50 0.5h-26c-8 0 -19.667 0.666992 -35 2c-5.33301 -12 -9.33301 -24.333 -12 -37s-4.16699 -27.167 -4.5 -43.5s0.333984 -35 2.00098 -56s4.5 -46.167 8.5 -75.5c4 -34 6.83301 -63.5 8.5 -88.5s2.33398 -47.167 2.00098 -66.5
s-1.83301 -37.166 -4.5 -53.499s-6.33398 -32.5 -11.001 -48.5c-12.667 -38.667 -31.834 -66.667 -57.501 -84s-61.167 -26 -106.5 -26c-48 0 -93.667 10.833 -137 32.5s-80 51.834 -110 90.501c-17.333 23.333 -24.333 42.5 -21 57.5s15 22.5 35 22.5s40.5 -5.5 61.5 -16.5
s38.5 -26.167 52.5 -45.5c3.33301 -4 6 -8.16699 8 -12.5s3 -7.5 3 -9.5c5.33301 -10.667 6.16602 -20.334 2.49902 -29.001s-9.16699 -13 -16.5 -13h-16c-1.33301 0 -2.16602 -1.33301 -2.49902 -4s0.5 -5.66699 2.5 -9c2.66699 -2.66699 6 -5.5 10 -8.5
s8.66699 -6.16699 14 -9.5c16 -9.33301 32.667 -15.833 50 -19.5s34.333 -5.5 51 -5.5c18.667 0 34.5 3 47.5 9s23.5 16 31.5 30s13.5 32.667 16.5 56s3.83301 52.333 2.5 87l-6 87c-0.666992 20.667 -0.666992 41.667 0 63s1.66699 42 3 62s3.16602 38.667 5.49902 56
s5.16602 32 8.49902 44c3.33301 11.333 7.33301 21.666 12 30.999s12.667 21.333 24 36c-12 2 -22.167 3.5 -30.5 4.5s-16.166 1.83301 -23.499 2.5s-14.666 1.5 -21.999 2.5l-26 3.5l-121 21c-32 5.33301 -59.833 9.5 -83.5 12.5s-44.167 4.5 -61.5 4.5
c-42.667 0 -77.5 -6.5 -104.5 -19.5s-45.5 -30.833 -55.5 -53.5s-11.167 -49.334 -3.5 -80.001s24.5 -63.334 50.5 -98.001c23.333 -31.333 49.166 -55 77.499 -71s57.166 -24 86.499 -24c24 0 43.833 4.5 59.5 13.5s26.834 21.833 33.501 38.5s8.5 36.5 5.5 59.5
s-11.167 48.167 -24.5 75.5l28 -2c14.667 -29.333 23.667 -56.833 27 -82.5s1 -48 -7 -67s-21 -33.833 -39 -44.5s-40.333 -16 -67 -16c-36 0 -72.667 10.667 -110 32s-70 50.666 -98 87.999c-31.333 42 -50.333 81.333 -57 118s-2.33398 68.667 12.999 96
s41.166 48.833 77.499 64.5s81.833 23.5 136.5 23.5c16.667 0 33 -0.333008 49 -1s33.167 -2.33398 51.5 -5.00098s39.166 -6.16699 62.499 -10.5s50.666 -9.83301 81.999 -16.5c35.333 -8 65.5 -14.167 90.5 -18.5s37.833 -6.16602 38.5 -5.49902
c18 11.333 35 21.5 51 30.5s36.667 16.167 62 21.5zM633.013 620.003c22.667 -5.33301 43.332 -8.83398 61.999 -10.501s35 -2.5 49 -2.5c29.333 3.33301 51.5 8 66.5 14s20.167 11.667 15.5 17c-4.66699 6.66699 -13 11.334 -25 14.001s-26.667 4 -44 4
c-21.333 -1.33301 -42.166 -4.33301 -62.499 -9s-40.833 -13.667 -61.5 -27z" />
    <glyph glyph-name="afii10019" unicode="&#x412;" horiz-adv-x="829" 
d="M588 25c17.333 5.33301 29.3301 12.5 35.9971 21.5s13.334 21.5 20.001 37.5h-11c-15.333 0 -29.166 -0.5 -41.499 -1.5s-24.5 -2.16699 -36.5 -3.5c-8.66699 -0.666992 -17.5 -2.33398 -26.5 -5.00098s-17 -5.66699 -24 -9s-12.333 -7.16602 -16 -11.499
s-4.16699 -8.5 -1.5 -12.5c8.66699 -14 30.667 -21 66 -21c6.66699 0 11.834 0.5 15.501 1.5s10.167 2.16699 19.5 3.5zM605.997 7c-14.667 -4.66699 -28.335 -7.3291 -41.002 -7.99609s-25.667 -1 -39 -1c-25.333 0 -45 2.83301 -59 8.5s-24.667 14.5 -32 26.5
c-9.33301 16 -4.16602 29.5 15.501 40.5s50.5 19.833 92.5 26.5c12.667 1.33301 26 2.66602 40 3.99902s29 2 45 2h16c1.33301 15.333 -1.16699 31.833 -7.5 49.5s-15.166 36.167 -26.499 55.5c-14 23.333 -28 40.833 -42 52.5s-30 18.834 -48 21.501h-10
c-11.333 -3.33301 -20.166 -5.83301 -26.499 -7.5s-13.5 -2.5 -21.5 -2.5c-6.66699 0 -12.167 1 -16.5 3s-7.16602 4.33301 -8.49902 7c-5.33301 8.66699 -3.33301 14.5 6 17.5s22.666 4.5 39.999 4.5h21c17.333 15.333 25.833 36.166 25.5 62.499s-8.5 53.166 -24.5 80.499
c-9.33301 16 -20.5 29.667 -33.5 41s-29.833 21.666 -50.5 30.999l-1 -8l-5 -22c0 -9.33301 -0.5 -21.166 -1.5 -35.499l-3.5 -50.5l-3 -80c-2 -55.333 -5.5 -103.333 -10.5 -144s-13.5 -72.334 -25.5 -95.001c-16.667 -31.333 -37.834 -54 -63.501 -68
s-56.834 -21 -93.501 -21c-20.667 0 -41 2.5 -61 7.5s-39 12.167 -57 21.5s-34.167 20.5 -48.5 33.5s-26.166 27.167 -35.499 42.5c-13.333 21.333 -17.833 39.666 -13.5 54.999s16.5 23 36.5 23c16 0 32.5 -5.83301 49.5 -17.5s30.167 -25.5 39.5 -41.5
c8 -13.333 10.833 -25 8.5 -35s-9.16602 -15.667 -20.499 -17h-8c-8.66699 0 -10.334 -4.33301 -5.00098 -13c2.66699 -4.66699 7.5 -9.16699 14.5 -13.5s15.167 -8.33301 24.5 -12s19.333 -6.5 30 -8.5s21 -3 31 -3c17.333 0 31.833 2.33301 43.5 7s21.834 13 30.501 25
c6 8 11.333 16.833 16 26.5s9 21.167 13 34.5s7.66699 29.5 11 48.5s6.66602 41.5 9.99902 67.5l15 118c2 15.333 4.66699 30 8 44s6 27 8 39c2 5.33301 3.5 10.666 4.5 15.999s2 11.333 3 18s2.33301 14.334 4 23.001s4.16699 18.667 7.5 30l4 11.5
c1.33301 3.66699 2.66602 6.83398 3.99902 9.50098c0.666992 0 -2 0.666992 -8 2l-23 5c-9.33301 2 -19.5 3.66699 -30.5 5s-21.5 2 -31.5 2c-17.333 0 -35 -1.83301 -53 -5.5s-35.5 -8.5 -52.5 -14.5s-32.833 -13.167 -47.5 -21.5s-27 -17.833 -37 -28.5
c-28 -31.333 -44.333 -67.333 -49 -108s4.33301 -80 27 -118c24.667 -41.333 56 -62 94 -62c23.333 0 43.666 9.66699 60.999 29s26.666 44.666 27.999 75.999c0 17.333 -2.66699 36 -8 56s-13.333 38.667 -24 56l-4 7h16l7 -12c12 -20 21.167 -40.333 27.5 -61
s8.83301 -40.667 7.5 -60c-2 -34.667 -12.667 -62.5 -32 -83.5s-44.666 -31.5 -75.999 -31.5c-24 0 -48 7.66699 -72 23s-44 36.333 -60 63c-31.333 52.667 -37.333 109 -18 169c16.667 44 46.834 79.833 90.501 107.5s96.834 43.167 159.501 46.5h45
c13.333 -1.33301 24.666 -2.66602 33.999 -3.99902s17 -2.66602 23 -3.99902c7.33301 -1.33301 13.333 -2.66602 18 -3.99902c-0.666992 0 1.16602 3.5 5.49902 10.5s10.5 15.833 18.5 26.5s18 22.167 30 34.5s25.833 23.666 41.5 33.999s33.167 18.666 52.5 24.999
s40.333 8.83301 63 7.5c34 -2 65.833 -11.167 95.5 -27.5s53.167 -38.5 70.5 -66.5c22.667 -38.667 23.334 -71 2.00098 -97l-13 8c9.33301 23.333 7 46.333 -7 69c-8 12.667 -17.833 24.5 -29.5 35.5s-24.334 20.167 -38.001 27.5s-28.167 13.166 -43.5 17.499
s-30.333 6.5 -45 6.5c-40.667 0 -75 -10.667 -103 -32s-48.333 -51 -61 -89c33.333 -12.667 62.5 -28.167 87.5 -46.5s44.833 -39.5 59.5 -63.5c36 -62 25.667 -110.333 -31 -145c63.333 -14.667 112 -49.667 146 -105c10.667 -17.333 17.834 -34 21.501 -50
s4.83398 -30.667 3.50098 -44c10 -1.33301 17.5 -2.16602 22.5 -2.49902s9.5 -0.5 13.5 -0.5c18.667 0 33.5 1.5 44.5 4.5s19.833 7.16699 26.5 12.5c4 2.66699 7.5 6.5 10.5 11.5s5.5 10 7.5 15s3.33301 9.33301 4 13l1 5.5l26 -16c-5.33301 -14 -10.833 -25.333 -16.5 -34
s-12.667 -15.5 -21 -20.5s-18.5 -8.33301 -30.5 -10s-27 -2.5 -45 -2.5c-7.33301 0 -14.833 0.166992 -22.5 0.5s-18.5 1.16602 -32.5 2.49902c-9.33301 -20.667 -22 -37 -38 -49s-37 -20.667 -63 -26z" />
    <glyph glyph-name="afii10020" unicode="&#x413;" horiz-adv-x="797" 
d="M630 40c13.333 0 29.9971 3.16895 49.9971 9.50195s39.667 15.166 59 26.499s37 25.166 53 41.499s27 34.166 33 53.499l24 -18l-5 -10c-17.333 -29.333 -36 -52.333 -56 -69s-40 -29.5 -60 -38.5s-39 -15.167 -57 -18.5l-47 -9
c-13.333 -1.33301 -31.166 -2.83301 -53.499 -4.5s-44.166 -2.5 -65.499 -2.5c-22.667 0 -45.5 2.83301 -68.5 8.5s-45 13.834 -66 24.501s-40.5 23.334 -58.5 38.001s-33.333 30.667 -46 48c-17.333 23.333 -24.666 43.5 -21.999 60.5s14.667 25.5 36 25.5
c18 0 37.167 -6 57.5 -18s37.166 -27.333 50.499 -46c10 -14 15 -26.833 15 -38.5s-6.66699 -17.5 -20 -17.5l-8 -3c-6 0 -9.16699 -1.5 -9.5 -4.5s0.5 -6.16699 2.5 -9.5c3.33301 -4.66699 8.33301 -9.16699 15 -13.5s13.667 -8.16602 21 -11.499c13.333 -6 28 -11 44 -15
s30.667 -6 44 -6c30.667 0 54.5 12 71.5 36s26.5 59 28.5 105v104c0 26.667 1.33301 54 4 82s6 54.833 10 80.5s8.66699 49.5 14 71.5s10.666 40.667 15.999 56c2.66699 7.33301 6.16699 14.833 10.5 22.5s8.16602 15.167 11.499 22.5c-16 0 -31.833 0.666992 -47.5 2
s-33.834 3.5 -54.501 6.5s-45.167 7 -73.5 12s-63.166 11.5 -104.499 19.5c-44.667 9.33301 -83.667 16.166 -117 20.499s-60 6.5 -80 6.5c-74 0 -120 -16.833 -138 -50.5s-6.33301 -78.834 35 -135.501c14.667 -20.667 31.834 -39.5 51.501 -56.5
s40.334 -31.5 62.001 -43.5s43.834 -21.167 66.501 -27.5s44.667 -9.5 66 -9.5c25.333 0 47.166 3.33301 65.499 10s34.5 18.334 48.5 35.001l20 -15c-13.333 -21.333 -30.166 -36.333 -50.499 -45s-44.5 -13 -72.5 -13s-57.5 4.33301 -88.5 13s-61.333 20.5 -91 35.5
s-57.334 32.667 -83.001 53s-47.167 42.5 -64.5 66.5c-21.333 30 -33.833 58 -37.5 84s1 48.667 14 68s33.833 34.5 62.5 45.5s64 16.5 106 16.5c22.667 0 50.167 -2 82.5 -6s75.166 -12.333 128.499 -25c70.667 -13.333 130.834 -24.166 180.501 -32.499
s85.167 -12.5 106.5 -12.5c5.33301 0 9.5 -0.333008 12.5 -1s6.16699 0.666016 9.5 3.99902l19 13c6.66699 4 12.167 7.16699 16.5 9.5s8.33301 4.16602 12 5.49902s7.5 2.16602 11.5 2.49902s8.66699 0.5 14 0.5c7.33301 0 15.333 -2.16699 24 -6.5
s15.334 -9.5 20.001 -15.5c6 -9.33301 3 -16.5 -9 -21.5s-34.667 -9.16699 -68 -12.5l-14 -3c-3.33301 -6 -6 -11.5 -8 -16.5s-4 -11.5 -6 -19.5c-2 -8.66699 -3.66699 -16.667 -5 -24s-2.66602 -15.666 -3.99902 -24.999c-1.33301 -10 -2.33301 -19.167 -3 -27.5l-2 -26
c-0.666992 -9 -0.833984 -19 -0.500977 -30s1.16602 -24.167 2.49902 -39.5l7 -64l4 -34c0.666992 -6 1.16699 -13.167 1.5 -21.5s0.5 -17.333 0.5 -27v-29c0 -9.66699 -0.333008 -18.5 -1 -26.5c-2.66699 -40.667 -8.66699 -72.167 -18 -94.5
s-21.666 -40.833 -36.999 -55.5z" />
    <glyph glyph-name="afii10021" unicode="&#x414;" horiz-adv-x="948" 
d="M826 93c-9.33301 -17.333 -23.1641 -33 -41.4971 -47s-38.5 -24.5 -60.5 -31.5s-44.5 -11 -67.5 -12s-39.5 -1.16699 -49.5 -0.5c-28 2 -50.167 5 -66.5 9s-28.166 13 -35.499 27c-9.33301 19.333 -1.33301 36.166 24 50.499s63.666 24.166 114.999 29.499
c7.33301 1.33301 19.166 2.33301 35.499 3s32.166 1 47.499 1h47c10 12.667 16.833 28.5 20.5 47.5s4.5 39.667 2.5 62s-6.83301 46 -14.5 71s-17.834 50.167 -30.501 75.5c-19.333 38 -42 72 -68 102s-54.5 55.5 -85.5 76.5s-63.667 37.167 -98 48.5
s-69.166 17 -104.499 17c-28.667 0.666992 -58.667 -4.5 -90 -15.5s-61.5 -26.167 -90.5 -45.5s-55.667 -42.5 -80 -69.5s-43.833 -55.833 -58.5 -86.5c-22 -50.667 -33.833 -101.167 -35.5 -151.5s6.83301 -94.166 25.5 -131.499c16 -31.333 37.167 -55.5 63.5 -72.5
s54.833 -25.5 85.5 -25.5c20.667 0 39 3.66699 55 11s30.167 19.5 42.5 36.5s23.833 39.833 34.5 68.5s21 64.667 31 108c4.66699 28 9 49.833 13 65.5s6.66699 25.167 8 28.5c6.66699 26 15.334 52.167 26.001 78.5s20.667 48.166 30 65.499
c4.66699 8.66699 9.5 16.167 14.5 22.5s10.333 12 16 17s12.167 9.66699 19.5 14l26 15.5l16 -13c-7.33301 -6 -13 -12.333 -17 -19s-7.5 -13.834 -10.5 -21.501s-5.66699 -16.5 -8 -26.5s-4.83301 -21.667 -7.5 -35l-15 -74c-10.667 -52 -18.667 -98 -24 -138
s-14 -73 -26 -99c-17.333 -42 -44.166 -74.167 -80.499 -96.5s-80.833 -33.5 -133.5 -33.5c-51.333 0 -96.333 11.667 -135 35s-68.667 56 -90 98c-19.333 38.667 -28.833 80.834 -28.5 126.501s12.166 91.5 35.499 137.5c18 34.667 38.333 66.667 61 96
s48.667 55.333 78 78s62.166 41.667 98.499 57s77.166 26.333 122.499 33c8.66699 1.33301 18 2 28 2h29c42 0 82.667 -6 122 -18s76.333 -29.167 111 -51.5s66.167 -49.666 94.5 -81.999s52.833 -68.5 73.5 -108.5c28 -56 42.667 -109.333 44 -160s-9.66699 -92 -33 -124
c12 -1.33301 20.833 -2.16602 26.5 -2.49902s11.167 -0.5 16.5 -0.5c21.333 0 38.5 1.66699 51.5 5s23.167 8.33301 30.5 15c3.33301 2.66699 7.5 8 12.5 16s12.833 19.667 23.5 35l24 -18c-8 -16 -15.667 -29 -23 -39s-16 -17.833 -26 -23.5s-22 -9.5 -36 -11.5
s-31.333 -3 -52 -3h-15.5c-6.33301 0 -12.833 0.333008 -19.5 1c-7.33301 0 -15.333 0.333008 -24 1zM673.002 28c18.667 2.66699 35.3359 9.83398 50.0029 21.501s29.667 27.5 45 47.5c0.666992 0 -4 -0.166992 -14 -0.5s-21.5 -0.833008 -34.5 -1.5l-38 -2
c-12.333 -0.666992 -20.5 -1.33398 -24.5 -2.00098c-34.667 -4 -59.834 -9.83301 -75.501 -17.5s-20.834 -16.167 -15.501 -25.5c3.33301 -8 13.166 -13.833 29.499 -17.5s34.5 -5.5 54.5 -5.5z" />
    <glyph glyph-name="afii10022" unicode="&#x415;" horiz-adv-x="537" 
d="M87 514c-17.333 28 -24.665 55.5059 -21.998 82.5059s13.167 51 31.5 72s44.166 38 77.499 51s72.333 19.5 117 19.5c48 0 91.667 -8.5 131 -25.5s69 -40.5 89 -70.5c6 -9.33301 10.333 -24 13 -44s-1.66602 -46 -12.999 -78l-2 -7l-27 13l2 5
c7.33301 17.333 8.66602 34.666 3.99902 51.999s-12.334 33.666 -23.001 48.999c-17.333 25.333 -39 44.666 -65 57.999s-53 20 -81 20c-30 0 -57.667 -7 -83 -21s-43.333 -33.333 -54 -58c-6 -10 -10 -21.5 -12 -34.5s-2.33301 -26.333 -1 -40s4 -27.334 8 -41.001
s9.66699 -25.834 17 -36.501l10 -15c13.333 1.33301 22.5 2.66602 27.5 3.99902s9.83301 2 14.5 2c18.667 0 35 -2.83301 49 -8.5s24 -13.167 30 -22.5s4.83301 -17.5 -3.5 -24.5s-22.5 -10.5 -42.5 -10.5c-12.667 0 -25.334 1.83301 -38.001 5.5
s-29.334 9.16699 -50.001 16.5c-28.667 -7.33301 -52.5 -21 -71.5 -41s-32.333 -43.5 -40 -70.5s-9.16699 -56.167 -4.5 -87.5s16.667 -61.666 36 -90.999c46 -71.333 115.667 -107 209 -107c62 0 115 12.667 159 38s73.667 60.666 89 105.999l34 -21l-4 -7
c-49.333 -98 -148.666 -147 -297.999 -147c-63.333 0 -118.166 11.833 -164.499 35.5s-84.5 57.834 -114.5 102.501c-20 30.667 -31.333 62.167 -34 94.5s2 62.833 14 91.5s31.167 54.167 57.5 76.5s58.833 39.166 97.5 50.499c-15.333 9.33301 -27 17.833 -35 25.5
s-16.667 17.167 -26 28.5z" />
    <glyph glyph-name="afii10024" unicode="&#x416;" horiz-adv-x="1079" 
d="M316 102c18.667 17.333 31.3359 36.666 38.0029 57.999s11.667 42 15 62c-22.667 -9.33301 -44.334 -20.666 -65.001 -33.999l-52 -34c-30.667 -20.667 -52.334 -39.5 -65.001 -56.5s-16.334 -30.167 -11.001 -39.5c2 -3.33301 6.5 -6.5 13.5 -9.5s16.167 -4.5 27.5 -4.5
c19.333 2 37.833 9.16699 55.5 21.5s32.167 24.5 43.5 36.5zM950.002 424c18 17.333 32.001 35.333 42.001 54s16.5 36.834 19.5 54.501s3 34.667 0 51s-8.16699 30.833 -15.5 43.5c-6 10.667 -12.833 18 -20.5 22s-17.167 6 -28.5 6c-18.667 0 -39.5 -8.33301 -62.5 -25
s-41.833 -42 -56.5 -76c-6.66699 -15.333 -11.667 -30.333 -15 -45s-6.33301 -30 -9 -46c-2 -15.333 -3.66699 -28.833 -5 -40.5s-2.16602 -22.834 -2.49902 -33.501s-0.333008 -21 0 -31s1.16602 -21 2.49902 -33c26.667 13.333 53.667 28.333 81 45
s50.666 34.667 69.999 54zM728.003 255c-7.33301 -4 -15.998 -10.3271 -25.998 -18.9941s-20 -19 -30 -31s-19.667 -25.167 -29 -39.5s-17.333 -29.166 -24 -44.499l-5 -13c3.33301 -36 2.83301 -63.667 -1.5 -83s-13.166 -29 -26.499 -29c-8.66699 0 -15 3 -19 9
c-6.66699 9.33301 -10 20 -10 32s1.66699 27 5 45c0 1.33301 0.333008 3.5 1 6.5s1.33398 6.5 2.00098 10.5c2 7.33301 3.66699 23.166 5 47.499s2.5 51.833 3.5 82.5s1.66699 61.667 2 93s0.166016 58 -0.500977 80c-7.33301 -18 -15.833 -34.833 -25.5 -50.5
s-19.834 -29.834 -30.501 -42.501s-21.5 -23.834 -32.5 -33.501s-20.833 -17.167 -29.5 -22.5c-3.33301 -12 -9.5 -27.5 -18.5 -46.5s-19.833 -38.333 -32.5 -58s-26.5 -38.334 -41.5 -56.001s-29.5 -31.5 -43.5 -41.5c-8 -5.33301 -17.833 -11 -29.5 -17
s-24 -11.5 -37 -16.5s-26 -9.16699 -39 -12.5s-24.833 -5 -35.5 -5c-20 0 -37.667 4.16699 -53 12.5s-27.333 19.833 -36 34.5c-12.667 22 -8 45.333 14 70s65.333 52.667 130 84l90 40l50 22c5.33301 11.333 9 26.166 11 44.499s3.66699 35.833 5 52.5
c2 40 -0.166992 76.667 -6.5 110s-15.166 60 -26.499 80c-20 35.333 -47 62.5 -81 81.5s-72 28.5 -114 28.5c-31.333 0 -60.833 -4.33301 -88.5 -13s-52.5 -21.667 -74.5 -39c-23.333 -18 -43 -38 -59 -60s-29.333 -48 -40 -78c-12.667 -36 -20.334 -75.333 -23.001 -118
s-0.833984 -86.5 5.49902 -131.5s17.5 -90.5 33.5 -136.5s36.667 -91 62 -135c32 -56 69.5 -106.667 112.5 -152s88.833 -84.5 137.5 -117.5s99 -58.833 151 -77.5s103.667 -29 155 -31c14 -0.666992 27.667 -0.166992 41 1.5s24.666 3.83398 33.999 6.50098
c32.667 7.33301 58.667 19.666 78 36.999s32 38.666 38 63.999s5.33301 54 -2 86s-21.666 66.333 -42.999 103l-6 11h26c5.33301 -9.33301 9.83301 -16.166 13.5 -20.499s8.16699 -10.833 13.5 -19.5c46.667 -80.667 59.167 -146.5 37.5 -197.5
s-72.834 -82.5 -153.501 -94.5c-8.66699 -1.33301 -18.667 -2.16602 -30 -2.49902s-22.666 -0.5 -33.999 -0.5c-57.333 0 -116.5 10.5 -177.5 31.5s-120.167 50.333 -177.5 88s-111 82.167 -161 133.5s-92.667 107.666 -128 168.999
c-48.667 84.667 -78.334 169.667 -89.001 255s-3.33398 163.333 21.999 234c6.66699 20 16.334 40 29.001 60s26.167 38.333 40.5 55s28.333 31.167 42 43.5s24.5 21.166 32.5 26.499c56.667 39.333 122 59 196 59c62.667 0 116.667 -11.167 162 -33.5
s79.666 -51.166 102.999 -86.499c12 -17.333 20.833 -38.833 26.5 -64.5s9.33398 -52 11.001 -79s1.16699 -52.833 -1.5 -77.5s-6.33398 -44.334 -11.001 -59.001c8 7.33301 15.167 14.5 21.5 21.5s12.333 14.833 18 23.5s11.334 18.5 17.001 29.5s11.5 23.833 17.5 38.5
c4 11.333 7.16699 19.5 9.5 24.5s4.16602 13.167 5.49902 24.5l-6 20l-4 27l-4 38c-1.33301 7.33301 -2 16 -2 26s1.66699 20.333 5 31c2 7.33301 3.5 14.333 4.5 21s2.16699 12.334 3.5 17.001c8.66699 22 20.667 33 36 33c1.33301 0 3.66602 -0.833008 6.99902 -2.5
s6.66602 -4.83398 9.99902 -9.50098c9.33301 -13.333 15.166 -32.333 17.499 -57s-2.16699 -51.334 -13.5 -80.001l3 -12c2 -16.667 3.33301 -36.334 4 -59.001s0.833984 -46.334 0.500977 -71.001s-1.16602 -49.5 -2.49902 -74.5s-2.66602 -48.167 -3.99902 -69.5l-3.5 -55
c-1 -15.333 -1.83301 -26 -2.5 -32c12 26 28.833 52.167 50.5 78.5s44.834 46.5 69.501 60.5c-3.33301 24 -4.83301 50.333 -4.5 79s3 57.5 8 86.5s12.5 57 22.5 84s23 50.833 39 71.5c16 19.333 32 34.666 48 45.999s31.667 20 47 26s30.666 10 45.999 12s30 3 44 3
c24 0 43.667 -4.66699 59 -14s28.333 -23.333 39 -42c12 -20 16.833 -41.333 14.5 -64s-11.833 -49.667 -28.5 -81c-6.66699 -12.667 -14.5 -25.167 -23.5 -37.5s-18.5 -24 -28.5 -35s-20 -21.167 -30 -30.5s-19 -17.333 -27 -24c-19.333 -16 -40.666 -30.167 -63.999 -42.5
l-86 -45.5c-0.666992 -23.333 3 -49.333 11 -78s18.667 -54.667 32 -78c13.333 -24 30.333 -42.833 51 -56.5s41.667 -20.5 63 -20.5c9.33301 0 19.833 2.5 31.5 7.5s23.334 11.5 35.001 19.5s22.834 17.333 33.501 28s20 21.667 28 33c5.33301 7.33301 11 15.833 17 25.5
l16 25.5l24 -13c-4.66699 -12 -9.66699 -23.167 -15 -33.5s-12 -20.5 -20 -30.5c-8 -12 -19 -24.333 -33 -37s-29.5 -24.334 -46.5 -35.001s-34.833 -19.5 -53.5 -26.5s-37 -10.5 -55 -10.5c-20 0 -37.667 2.33301 -53 7s-28.833 11.167 -40.5 19.5s-21.834 18 -30.501 29
s-16.334 22.5 -23.001 34.5c-5.33301 8.66699 -10.5 20.334 -15.5 35.001s-9.66699 29.834 -14 45.501s-7.83301 30.834 -10.5 45.501s-4 26.334 -4 35.001z" />
    <glyph glyph-name="afii10025" unicode="&#x417;" 
d="M284 -683c2.66699 30.667 4.66309 60.5029 5.99609 89.5029s2.33301 60.167 3 93.5s0.833984 70.166 0.500977 110.499s-1.16602 87.166 -2.49902 140.499v18.5c0 5 0.166992 9.33301 0.5 13l1 11.5c0.333008 4 0.5 8.66699 0.5 14l-37.5 -37
c-11 -10.667 -21.333 -21.334 -31 -32.001l-30 -34l-35.5 -43c-23.333 -28.667 -42.5 -55.667 -57.5 -81s-29.833 -52.666 -44.5 -81.999c-16.667 -38.667 -29.167 -76.834 -37.5 -114.501s-12.666 -74 -12.999 -109s3.66699 -68.167 12 -99.5s20.833 -60 37.5 -86
c13.333 -19.333 26.333 -33 39 -41s27 -12 43 -12c12 0 23.833 3 35.5 9s22.834 14.5 33.501 25.5s20 24.333 28 40s14.333 33.167 19 52.5l22 95zM362.996 -62.9971c46.667 49.333 84.6621 94.8301 113.995 136.497s49 77.5 59 107.5l32 -21l-2 -6
c-9.33301 -15.333 -20.833 -32.5 -34.5 -51.5l-42.5 -58l-44 -58l-39.5 -50.5l-28.5 -35.5l-11 -13.5c0 -8 0.166992 -16 0.5 -24s0.5 -17.167 0.5 -27.5s0.166992 -22.833 0.5 -37.5s0.5 -32.334 0.5 -53.001c1.33301 -36 1.5 -78.667 0.5 -128s-3.83301 -99.333 -8.5 -150
c-3.33301 -47.333 -9.16602 -90.333 -17.499 -129s-18.5 -77.334 -30.5 -116.001l-18 -64c-21.333 -50 -45.166 -88.167 -71.499 -114.5s-55.166 -39.5 -86.499 -39.5c-24 0 -47.667 7.33301 -71 22s-44.666 37 -63.999 67c-29.333 44.667 -45.666 97 -48.999 157
s6 123.333 28 190c8 31.333 22.167 65.333 42.5 102s42.833 71 67.5 103c22 28 45.5 54.167 70.5 78.5s46.5 46.166 64.5 65.499l44 48c12 12.667 18 19.334 18 20.001c-0.666992 16 -1.16699 33 -1.5 51s-2.83301 36 -7.5 54s-12.334 35.167 -23.001 51.5
s-26.334 30.833 -47.001 43.5c-8.66699 -5.33301 -17.167 -11 -25.5 -17s-17.666 -11.667 -27.999 -17s-22.166 -10 -35.499 -14s-29.333 -7 -48 -9c-32 -3.33301 -54.5 -0.833008 -67.5 7.5s-20.167 20.833 -21.5 37.5c-1.33301 18 2.16699 33 10.5 45
s18.666 21.333 30.999 28s25.166 11.334 38.499 14.001s24.333 4 33 4c12.667 0 23.834 -0.666992 33.501 -2s19.167 -3 28.5 -5s19 -4.66699 29 -8s21.667 -7 35 -11c26.667 24.667 48.5 54.5 65.5 89.5s28.5 72 34.5 111s6.66699 78.333 2 118s-15.334 76.5 -32.001 110.5
c-17.333 34.667 -39.666 62.834 -66.999 84.501s-56 32.5 -86 32.5c-25.333 0 -47.5 -6.5 -66.5 -19.5s-34.167 -30.5 -45.5 -52.5c-12 -27.333 -18 -57.5 -18 -90.5s6.66699 -63.833 20 -92.5c9.33301 -19.333 22.5 -34.666 39.5 -45.999s35.167 -17 54.5 -17
c25.333 0 45.166 11.667 59.499 35s21.833 57.666 22.5 102.999l26 -9c3.33301 -49.333 -5.33398 -88.666 -26.001 -117.999s-50.667 -44 -90 -44c-30 0 -56.667 7.66699 -80 23s-41.666 36.666 -54.999 63.999c-13.333 28.667 -19.5 60.834 -18.5 96.501
s9.16699 69.5 24.5 101.5c18.667 33.333 44.334 59 77.001 77s68.667 27 108 27c40.667 0 78.834 -12.667 114.501 -38s65.167 -61.333 88.5 -108c16.667 -35.333 26.5 -73 29.5 -113s-0.666992 -80.167 -11 -120.5s-26.666 -79.5 -48.999 -117.5s-50.5 -72.333 -84.5 -103
c20.667 -11.333 37.5 -23.166 50.5 -35.499s23.167 -25.166 30.5 -38.499s12.666 -27 15.999 -41s6 -28 8 -42zM93.9912 32c17.333 5.33301 33.334 11.333 48.001 18s26.667 13.667 36 21c-15.333 7.33301 -29.333 12.166 -42 14.499s-26.334 3.83301 -41.001 4.5
c-9.33301 0.666992 -18.166 0.333984 -26.499 -0.999023s-15.833 -3.33301 -22.5 -6s-11.834 -6.16699 -15.501 -10.5s-5.16699 -9.5 -4.5 -15.5c0 -6 2.16699 -10.833 6.5 -14.5s9.83301 -6.5 16.5 -8.5s14 -3 22 -3s15.667 0.333008 23 1z" />
    <glyph glyph-name="afii10026" unicode="&#x418;" horiz-adv-x="753" 
d="M302 -1c-22.667 0 -43.8311 5.50391 -63.498 16.5039s-35.834 27.167 -48.501 48.5c-6 10 -10.667 20.667 -14 32s-5.5 24.166 -6.5 38.499s-0.666992 31.166 1 50.499s4.83398 42.333 9.50098 69c14.667 76.667 24.667 140.5 30 191.5s7.66602 94.833 6.99902 131.5
c-1.33301 20 -5.33301 42.167 -12 66.5s-15 45.166 -25 62.499c-19.333 34 -43.5 60.833 -72.5 80.5s-59.167 29.5 -90.5 29.5c-24 0 -46.333 -5 -67 -15s-36.667 -23.667 -48 -41c-8.66699 -13.333 -15.334 -28.5 -20.001 -45.5s-7.16699 -34.5 -7.5 -52.5s1.5 -36 5.5 -54
s10.667 -34.667 20 -50c14 -24 31.333 -42.5 52 -55.5s43.667 -19.5 69 -19.5c14.667 0 25.667 2.16699 33 6.5s14.333 11.166 21 20.499l18 -16c-8 -12.667 -16.833 -21.167 -26.5 -25.5s-22.5 -6.5 -38.5 -6.5c-34 0 -65 9.33301 -93 28s-51.667 45 -71 79
c-20 34 -31 67.167 -33 99.5s3.33301 61 16 86s32.334 45 59.001 60s58.667 22.5 96 22.5c44 0 85.667 -13 125 -39s74 -64.667 104 -116c14.667 -25.333 26.667 -50.833 36 -76.5s16.166 -52.5 20.499 -80.5s6.16602 -57.333 5.49902 -88s-3.33398 -63.667 -8.00098 -99
c-2 -15.333 -4.66699 -32.166 -8 -50.499l-10 -55.5l-9.5 -54.5c-3 -17.667 -4.83301 -33.167 -5.5 -46.5c0 -12 0.166992 -24.333 0.5 -37s2.83301 -24.334 7.5 -35.001c5.33301 -9.33301 11.833 -16.166 19.5 -20.499s15.5 -6.5 23.5 -6.5c15.333 0 31.833 7 49.5 21
s34.834 32.5 51.501 55.5s31.834 49.5 45.501 79.5s24.5 61 32.5 93c2 5.33301 3.33301 9.83301 4 13.5s1 8 1 13v18v29.5c1.33301 26.667 3.66602 52.167 6.99902 76.5s6.33301 42.5 9 54.5c3.33301 15.333 10 26.666 20 33.999s22.333 11 37 11
s24.334 -4.33301 29.001 -13c5.33301 -8 8 -18.667 8 -32s-4.66699 -31.333 -14 -54c-2 -5.33301 -4 -12.333 -6 -21s-4 -18.167 -6 -28.5s-3.66699 -20.5 -5 -30.5s-2.33301 -18.667 -3 -26l-2 -58c-1.33301 -24 -2.16602 -45 -2.49902 -63s0.5 -38.667 2.5 -62
c1.33301 -17.333 3.66602 -32 6.99902 -44s7.66602 -22.667 12.999 -32c7.33301 -12.667 16.166 -22.167 26.499 -28.5s21.166 -9.5 32.499 -9.5c26 8 50.5 22.667 73.5 44s42.5 47 58.5 77l25 -20c-7.33301 -12.667 -16.166 -26.167 -26.499 -40.5
s-22.166 -27.833 -35.499 -40.5s-28.5 -23.5 -45.5 -32.5s-35.833 -14.5 -56.5 -16.5c-27.333 0 -51.666 6.5 -72.999 19.5s-39 31.5 -53 55.5c-9.33301 14.667 -15.833 29 -19.5 43s-6.16699 33.667 -7.5 59c-6.66699 -21.333 -15.5 -42.5 -26.5 -63.5
s-24.167 -40 -39.5 -57s-32.333 -30.833 -51 -41.5s-39 -16 -61 -16z" />
    <glyph glyph-name="afii10027" unicode="&#x419;" horiz-adv-x="753" 
d="M302 -1c-22.667 0 -43.8311 5.50391 -63.498 16.5039s-35.834 27.167 -48.501 48.5c-6 10 -10.667 20.667 -14 32s-5.5 24.166 -6.5 38.499s-0.666992 31.166 1 50.499s4.83398 42.333 9.50098 69c14.667 76.667 24.667 140.5 30 191.5s7.66602 94.833 6.99902 131.5
c-1.33301 20 -5.33301 42.167 -12 66.5s-15 45.166 -25 62.499c-19.333 34 -43.5 60.833 -72.5 80.5s-59.167 29.5 -90.5 29.5c-24 0 -46.333 -5 -67 -15s-36.667 -23.667 -48 -41c-8.66699 -13.333 -15.334 -28.5 -20.001 -45.5s-7.16699 -34.5 -7.5 -52.5s1.5 -36 5.5 -54
s10.667 -34.667 20 -50c14 -24 31.333 -42.5 52 -55.5s43.667 -19.5 69 -19.5c14.667 0 25.667 2.16699 33 6.5s14.333 11.166 21 20.499l18 -16c-8 -12.667 -16.833 -21.167 -26.5 -25.5s-22.5 -6.5 -38.5 -6.5c-34 0 -65 9.33301 -93 28s-51.667 45 -71 79
c-20 34 -31 67.167 -33 99.5s3.33301 61 16 86s32.334 45 59.001 60s58.667 22.5 96 22.5c44 0 85.667 -13 125 -39s74 -64.667 104 -116c14.667 -25.333 26.667 -50.833 36 -76.5s16.166 -52.5 20.499 -80.5s6.16602 -57.333 5.49902 -88s-3.33398 -63.667 -8.00098 -99
c-2 -15.333 -4.66699 -32.166 -8 -50.499l-10 -55.5l-9.5 -54.5c-3 -17.667 -4.83301 -33.167 -5.5 -46.5c0 -12 0.166992 -24.333 0.5 -37s2.83301 -24.334 7.5 -35.001c5.33301 -9.33301 11.833 -16.166 19.5 -20.499s15.5 -6.5 23.5 -6.5c15.333 0 31.833 7 49.5 21
s34.834 32.5 51.501 55.5s31.834 49.5 45.501 79.5s24.5 61 32.5 93c2 5.33301 3.33301 9.83301 4 13.5s1 8 1 13v18v29.5c1.33301 26.667 3.66602 52.167 6.99902 76.5s6.33301 42.5 9 54.5c3.33301 15.333 10 26.666 20 33.999s22.333 11 37 11
s24.334 -4.33301 29.001 -13c5.33301 -8 8 -18.667 8 -32s-4.66699 -31.333 -14 -54c-2 -5.33301 -4 -12.333 -6 -21s-4 -18.167 -6 -28.5s-3.66699 -20.5 -5 -30.5s-2.33301 -18.667 -3 -26l-2 -58c-1.33301 -24 -2.16602 -45 -2.49902 -63s0.5 -38.667 2.5 -62
c1.33301 -17.333 3.66602 -32 6.99902 -44s7.66602 -22.667 12.999 -32c7.33301 -12.667 16.166 -22.167 26.499 -28.5s21.166 -9.5 32.499 -9.5c26 8 50.5 22.667 73.5 44s42.5 47 58.5 77l25 -20c-7.33301 -12.667 -16.166 -26.167 -26.499 -40.5
s-22.166 -27.833 -35.499 -40.5s-28.5 -23.5 -45.5 -32.5s-35.833 -14.5 -56.5 -16.5c-27.333 0 -51.666 6.5 -72.999 19.5s-39 31.5 -53 55.5c-9.33301 14.667 -15.833 29 -19.5 43s-6.16699 33.667 -7.5 59c-6.66699 -21.333 -15.5 -42.5 -26.5 -63.5
s-24.167 -40 -39.5 -57s-32.333 -30.833 -51 -41.5s-39 -16 -61 -16zM324.003 840.004c6 6.66699 12.3311 9.5 18.998 8.5s12.834 -3.83301 18.501 -8.5s10.834 -10.167 15.501 -16.5s8 -11.5 10 -15.5c6 -3.33301 13.667 -4.16602 23 -2.49902s18.833 4.16699 28.5 7.5
s19 7.33301 28 12s15.833 8.66699 20.5 12l21 -17c-10.667 -14 -27 -26 -49 -36s-48 -15.667 -78 -17c-10.667 0 -20.167 2.33301 -28.5 7s-15.833 10 -22.5 16c-4 3.33301 -7 7.66602 -9 12.999s-3.16699 10.5 -3.5 15.5s0.166992 9.5 1.5 13.5s3 6.66699 5 8z" />
    <glyph glyph-name="afii10028" unicode="&#x41a;" horiz-adv-x="815" 
d="M104 260c-11.333 -10 -21.6611 -22.501 -30.9941 -37.501s-16.333 -31.167 -21 -48.5s-5.83398 -35 -3.50098 -53s9.16602 -35.333 20.499 -52c9.33301 -14 20.666 -25 33.999 -33s27.666 -12 42.999 -12c11.333 0 22.166 4 32.499 12s19.333 16.833 27 26.5
s13.667 18.5 18 26.5s6.16602 12.333 5.49902 13c4.66699 16 7.16699 35.833 7.5 59.5s1.16602 50.5 2.49902 80.5c0 14.667 0.166992 26.5 0.5 35.5s0.5 17 0.5 24s0.166992 13.5 0.5 19.5s0.833008 13.667 1.5 23l-21 -9c-24 -9.33301 -44.667 -19.666 -62 -30.999
s-35.666 -26 -54.999 -44zM599.005 618.999c-5.33301 -11.333 -8.33203 -27.167 -8.99902 -47.5s0.333008 -45.5 3 -75.5l69 43c23.333 14.667 38.5 30.334 45.5 47.001s4.83301 33 -6.5 49c-6 9.33301 -12.833 16 -20.5 20s-16.167 6 -25.5 6
c-11.333 -2.66699 -21.833 -6.83398 -31.5 -12.501s-17.834 -15.5 -24.501 -29.5zM672.006 687.998c13.333 0 25.999 -3.33789 37.999 -10.0049s22.333 -16 31 -28c9.33301 -13.333 13.333 -28.833 12 -46.5s-8 -34.167 -20 -49.5c-3.33301 -6 -8.5 -12.167 -15.5 -18.5
s-14.167 -12.166 -21.5 -17.499c-7.33301 -3.33301 -14.166 -8 -20.499 -14s-13.166 -9.66699 -20.499 -11c-1.33301 -1.33301 -6.33301 -4.33301 -15 -9s-22.334 -11.667 -41.001 -21c-0.666992 -14 -1.5 -25.833 -2.5 -35.5s-2.33301 -18 -4 -25
s-3.66699 -13.167 -6 -18.5s-5.16602 -10.666 -8.49902 -15.999c-2 -6.66699 -5.5 -13.167 -10.5 -19.5s-11.167 -12.166 -18.5 -17.499s-15.166 -10 -23.499 -14s-16.5 -7 -24.5 -9c25.333 -12 44.333 -23.167 57 -33.5s23.667 -22.166 33 -35.499
c8.66699 -12 15.667 -25.333 21 -40s10.666 -33.334 15.999 -56.001c4 -18 7.66699 -33.5 11 -46.5s7.66602 -23.167 12.999 -30.5c6.66699 -9.33301 15 -16.166 25 -20.499s20 -6.5 30 -6.5c13.333 0 26.666 3.16699 39.999 9.5s26 15.333 38 27s22.667 25.667 32 42
s17 34.166 23 53.499l32 -22l-1 -6c-22.667 -50 -48.334 -86.333 -77.001 -109s-63.334 -34 -104.001 -34c-25.333 0 -48.166 5.66699 -68.499 17s-37.166 26.666 -50.499 45.999c-8.66699 12 -16.5 29.333 -23.5 52s-12.167 48.334 -15.5 77.001l-7 56
c-2 4.66699 -3.83301 9.16699 -5.5 13.5s-4.16699 8.83301 -7.5 13.5c-10 14.667 -25 22 -45 22h-3l-22.5 -6.5c-5.66699 -1.66699 -10.667 -3 -15 -4s-8.5 -1.66699 -12.5 -2s-8.66699 -0.5 -14 -0.5c-7.33301 0 -14.333 1.33301 -21 4s-11.334 5.66699 -14.001 9
c-4 5.33301 -0.5 10 10.5 14s27.833 6 50.5 6h33c8 3.33301 15.833 7.5 23.5 12.5s15.167 12.833 22.5 23.5c5.33301 5.33301 9.33301 10.666 12 15.999s4.83398 11.166 6.50098 17.499s2.66699 13.833 3 22.5s0.833008 19 1.5 31l-197 -69v-12l2 -42
c2 -39.333 1.33301 -77 -2 -113s-10 -66.333 -20 -91c-4 -13.333 -9.33301 -25.833 -16 -37.5s-15.334 -22.167 -26.001 -31.5c-14.667 -15.333 -32.5 -26.5 -53.5 -33.5s-43.833 -10.5 -68.5 -10.5c-55.333 0 -99 23 -131 69c-12.667 18 -18.334 38.167 -17.001 60.5
s6.5 44.5 15.5 66.5s20.667 42.333 35 61s28.166 33 41.499 43c10.667 9.33301 23.834 17.833 39.501 25.5s31.167 14.834 46.5 21.501l69 30c1.33301 4.66699 2 8.5 2 11.5v6.5l1.5 34.5c0.333008 7.66699 1.16602 13.167 2.49902 16.5
c1.33301 8.66699 3.33301 18.334 6 29.001s5.66699 22 9 34c4 13.333 7.66699 23.5 11 30.5s7.66602 15.5 12.999 25.5c-53.333 -11.333 -102.333 -17 -147 -17c-11.333 0 -22.166 0.333008 -32.499 1s-21.5 1.83398 -33.5 3.50098l-40.5 5.5l-52.5 7l-14 25
c18.667 -4 35.334 -7.16699 50.001 -9.5s28.167 -4.16602 40.5 -5.49902s24.166 -2.16602 35.499 -2.49902s23.666 -0.5 36.999 -0.5c24 0 45 0.666992 63 2s34 3.16602 48 5.49902s26.5 5.66602 37.5 9.99902s21.5 9.5 31.5 15.5c13.333 28 28 50.333 44 67
s30.667 25 44 25c4.66699 0 9.16699 -1.16699 13.5 -3.5s7.5 -4.83301 9.5 -7.5c10.667 -15.333 8.83398 -32.833 -5.49902 -52.5s-38.5 -36.167 -72.5 -49.5c-1.33301 0 -2.66602 -0.666992 -3.99902 -2s-3.66602 -2.66602 -6.99902 -3.99902l-8 -29.5
c-2 -7.66699 -3.66699 -18.834 -5 -33.501v-23.5c0 -7.66699 0.166992 -15.667 0.5 -24s0.833008 -17.666 1.5 -27.999s1 -22.166 1 -35.499l201 63l1 15c2 31.333 3.66699 56.166 5 74.499s5.33301 35.5 12 51.5c8 19.333 20 35 36 47
c12.667 9.33301 25.834 17.333 39.501 24s30.834 9.66699 51.501 9z" />
    <glyph glyph-name="afii10029" unicode="&#x41b;" horiz-adv-x="821" 
d="M656 82c-0.666992 8 -1.33203 17.6621 -1.99902 28.9951s-1.33398 23.333 -2.00098 36s-1.16699 25 -1.5 37s-0.5 22.667 -0.5 32c0 34.667 0.5 60.5 1.5 77.5s1.83301 31.833 2.5 44.5c0 7.33301 0.166992 15.833 0.5 25.5l1 30l1 30
c0.333008 9.66699 1.16602 17.834 2.49902 24.501c0 2 0.333008 7 1 15s1.33398 17 2.00098 27s1.5 20 2.5 30s2.16699 18 3.5 24c3.33301 16 6.5 32.5 9.5 49.5s5.16699 32.167 6.5 45.5c0.666992 2.66699 0.5 5.66699 -0.5 9s-2.16699 6.33301 -3.5 9
s-2.83301 4.16699 -4.5 4.5s-3.16699 0.5 -4.5 0.5c-2.66699 0 -7 -1.66699 -13 -5s-14 -11.666 -24 -24.999c-9.33301 -12.667 -16.666 -25 -21.999 -37s-12.666 -26.667 -21.999 -44c-2.66699 -5.33301 -7 -14.666 -13 -27.999l-18.5 -41
c-6.33301 -14 -11.833 -26.833 -16.5 -38.5s-7.33398 -17.834 -8.00098 -18.501l-23 -54.5c-9.33301 -21.667 -17.333 -43.167 -24 -64.5c-6.66699 -20.667 -13.667 -40.5 -21 -59.5s-14.833 -36.333 -22.5 -52s-14.667 -29 -21 -40s-11.833 -18.833 -16.5 -23.5
c-58 -86 -139 -129 -243 -129c-23.333 0 -46.166 2.66699 -68.499 8s-43.166 12.833 -62.499 22.5s-37 21.5 -53 35.5s-29.333 29.667 -40 47c-13.333 22.667 -17.333 42.167 -12 58.5s19.666 24.5 42.999 24.5c8.66699 0 18 -1.83301 28 -5.5s19.833 -8.5 29.5 -14.5
s18.667 -13 27 -21s15.166 -16.667 20.499 -26c9.33301 -16.667 12.166 -31.167 8.49902 -43.5s-12.834 -18.5 -27.501 -18.5h-8c-10 0 -13 -2.66699 -9 -8c2.66699 -4.66699 7.66699 -9.16699 15 -13.5s16 -8 26 -11s21.167 -5.5 33.5 -7.5s24.833 -3 37.5 -3
c52 0 99.667 12.667 143 38c18 11.333 35.833 27.666 53.5 48.999s34.834 44.333 51.501 69c8 11.333 16.167 26.333 24.5 45s16.5 38.167 24.5 58.5s15.5 40.5 22.5 60.5l18.5 51c8.66699 21.333 18.334 47.333 29.001 78s26 64 46 100s37.333 63.333 52 82
c9.33301 12 20.666 22.667 33.999 32s25 14 35 14c22.667 0 40.667 -10.667 54 -32c3.33301 -5.33301 5.5 -11.166 6.5 -17.499s0.833008 -15.833 -0.5 -28.5l-7 -53l-8 -79c-1.33301 -14.667 -2.33301 -30 -3 -46s-2 -32.667 -4 -50c-1.33301 -13.333 -2 -25 -2 -35v-38
c-0.666992 -19.333 -1.16699 -39.666 -1.5 -60.999s1.16699 -48.333 4.5 -81l4 -42c1.33301 -13.333 3.66602 -27.666 6.99902 -42.999s4.66602 -30.666 3.99902 -45.999c-0.666992 -18.667 -4.16699 -31.5 -10.5 -38.5s-14.833 -10.5 -25.5 -10.5
c-7.33301 0 -13.833 1.66699 -19.5 5s-10.167 8 -13.5 14s-6.16602 14.833 -8.49902 26.5s-4.16602 23.167 -5.49902 34.5z" />
    <glyph glyph-name="afii10030" unicode="&#x41c;" horiz-adv-x="1184" 
d="M923 490l7.99902 76.5c2.66699 24.333 5.33398 42.5 8.00098 54.5c3.33301 15.333 10 26.666 20 33.999s22.333 11 37 11s24.334 -4.33301 29.001 -13c5.33301 -8 8 -18.667 8 -32s-4.66699 -31.333 -14 -54c-2 -5.33301 -4 -12.333 -6 -21s-4 -18.167 -6 -28.5
s-3.66699 -20.5 -5 -30.5s-2.33301 -18.667 -3 -26l-2 -193c0 -24 -0.5 -45.167 -1.5 -63.5s-0.5 -38.833 1.5 -61.5c1.33301 -17.333 3.66602 -32 6.99902 -44s7.66602 -22.667 12.999 -32c7.33301 -12.667 16.166 -22.167 26.499 -28.5s21.166 -9.5 32.499 -9.5
c26 8 50.5 22.667 73.5 44s42.5 47 58.5 77l25 -20c-7.33301 -12.667 -16.166 -26.167 -26.499 -40.5s-22.166 -27.833 -35.499 -40.5s-28.5 -23.5 -45.5 -32.5s-35.833 -14.5 -56.5 -16.5c-27.333 0 -51.666 6.5 -72.999 19.5s-39 31.5 -53 55.5
c-9.33301 14.667 -15.833 29 -19.5 43s-6.16699 33.667 -7.5 59c-6.66699 -21.333 -15.5 -42.5 -26.5 -63.5s-24.167 -40 -39.5 -57s-32.333 -30.833 -51 -41.5s-39 -16 -61 -16c-22.667 0 -43.834 5.5 -63.501 16.5s-35.834 27.167 -48.501 48.5
c-6 10 -10.667 20.667 -14 32s-5.5 24.166 -6.5 38.499s-0.666992 31.166 1 50.499s4.83398 42.333 9.50098 69c7.33301 38.667 13.333 72.167 18 100.5l12.5 75.5c3.66699 22 7.16699 42 10.5 60s7 36 11 54c3.33301 16 6.5 32.5 9.5 49.5s5.16699 32.167 6.5 45.5
c0.666992 2.66699 0.5 5.66699 -0.5 9s-2.16699 6.33301 -3.5 9s-2.83301 4.16699 -4.5 4.5s-3.16699 0.5 -4.5 0.5c-2.66699 0 -7 -1.66699 -13 -5s-14 -11.666 -24 -24.999c-9.33301 -12.667 -16.666 -25 -21.999 -37s-12.666 -26.667 -21.999 -44
c-2.66699 -5.33301 -7 -14.666 -13 -27.999l-18.5 -41c-6.33301 -14 -11.833 -26.833 -16.5 -38.5s-7.33398 -17.834 -8.00098 -18.501l-23 -54.5c-9.33301 -21.667 -17.333 -43.167 -24 -64.5c-6.66699 -20.667 -13.667 -40.5 -21 -59.5s-14.833 -36.333 -22.5 -52
s-14.667 -29 -21 -40s-11.833 -18.833 -16.5 -23.5c-58 -86 -139 -129 -243 -129c-23.333 0 -46.166 2.66699 -68.499 8s-43.166 12.833 -62.499 22.5s-37 21.5 -53 35.5s-29.333 29.667 -40 47c-13.333 22.667 -17.333 42.167 -12 58.5s19.666 24.5 42.999 24.5
c8.66699 0 18 -1.83301 28 -5.5s19.833 -8.5 29.5 -14.5s18.667 -13 27 -21s15.166 -16.667 20.499 -26c9.33301 -16.667 12.166 -31.167 8.49902 -43.5s-12.834 -18.5 -27.501 -18.5h-8c-10 0 -13 -2.66699 -9 -8c2.66699 -4.66699 7.66699 -9.16699 15 -13.5s16 -8 26 -11
s21.167 -5.5 33.5 -7.5s24.833 -3 37.5 -3c52 0 99.667 12.667 143 38c18 11.333 35.833 27.666 53.5 48.999s34.834 44.333 51.501 69c8 11.333 16.167 26.333 24.5 45s16.5 38.167 24.5 58.5s15.5 40.5 22.5 60.5l18.5 51c8.66699 21.333 18.334 47.333 29.001 78
s26 64 46 100s37.333 63.333 52 82c9.33301 12 20.666 22.667 33.999 32s25 14 35 14c22.667 0 40.667 -10.667 54 -32c3.33301 -5.33301 5.5 -11.166 6.5 -17.499s0.833008 -15.833 -0.5 -28.5l-7 -53l-8 -79l-5 -53c-2 -20.667 -4 -39.667 -6 -57l-7.5 -57.5l-9.5 -71
c-3.33301 -24.333 -6.33301 -47.666 -9 -69.999s-4.33398 -40.166 -5.00098 -53.499c0 -12 0.166992 -24.333 0.5 -37s2.83301 -24.334 7.5 -35.001c5.33301 -9.33301 11.833 -16.166 19.5 -20.499s15.5 -6.5 23.5 -6.5c15.333 0 31.833 7 49.5 21s34.834 32.5 51.501 55.5
s31.834 49.5 45.501 79.5s24.5 61 32.5 93c2 5.33301 3 17 3 35v59.5v64.5c0 21.333 0.666992 38 2 50z" />
    <glyph glyph-name="afii10031" unicode="&#x41d;" horiz-adv-x="701" 
d="M158 331c-22 0 -39 -2.66602 -51 -7.99902s-20 -12.5 -24 -21.5s-4.66699 -19 -2 -30s7.66699 -22.167 15 -33.5c5.33301 -8.66699 14.666 -18.167 27.999 -28.5s27 -19.833 41 -28.5s26.333 -15.834 37 -21.501s16 -8.16699 16 -7.5l7 56l4 74
c0 5.33301 0.333008 9.33301 1 12s1.16699 5.33398 1.5 8.00098l1 8c0.333008 2.66699 0.5 6.66699 0.5 12c-12 1.33301 -24.167 3.16602 -36.5 5.49902s-25.166 3.5 -38.499 3.5zM432 62.001c-13.333 2 -27.3291 4.83105 -41.9961 8.49805s-29 7.5 -43 11.5l-39 11.5
c-12 3.66699 -21.333 6.83398 -28 9.50098c-14.667 -36 -35.167 -62.333 -61.5 -79s-58.5 -25 -96.5 -25c-20 0 -40 2.5 -60 7.5s-39 12.167 -57 21.5s-34.5 20.666 -49.5 33.999s-27.5 28.333 -37.5 45c-12.667 20 -16.5 37 -11.5 51s16.167 21 33.5 21
c16 0 32.833 -5.33301 50.5 -16s31.5 -24.334 41.5 -41.001c9.33301 -14.667 12.833 -26.834 10.5 -36.501s-9.5 -14.5 -21.5 -14.5h-8c-7.33301 0 -8.33301 -4.33301 -3 -13c2.66699 -4.66699 7.66699 -9.33398 15 -14.001s15.833 -8.66699 25.5 -12
s20 -6.16602 31 -8.49902s22.167 -3.5 33.5 -3.5c26.667 0 47.334 8.5 62.001 25.5s26.667 46.167 36 87.5l-24.5 11.5l-16.5 8c-4.66699 2.33301 -8.83398 4.33301 -12.501 6s-7.5 3.83398 -11.5 6.50098c-19.333 11.333 -36.333 23.5 -51 36.5
s-26.334 26.167 -35.001 39.5c-18.667 30 -20.834 55.5 -6.50098 76.5s43.5 31.833 87.5 32.5c8.66699 0 18.5 -0.5 29.5 -1.5s21.167 -2.16699 30.5 -3.5l24 -3.5l10 -1.5c1.33301 8.66699 2.83301 17.834 4.5 27.501s2.83398 17.5 3.50098 23.5
c3.33301 13.333 6 24.333 8 33s4 16.5 6 23.5s4 13.5 6 19.5s4.66699 13 8 21c-16.667 -6 -31.5 -10.5 -44.5 -13.5l-35.5 -8.5c-7.33301 -1.33301 -14.333 -2.16602 -21 -2.49902s-13.334 -0.5 -20.001 -0.5c-9.33301 0 -17 0.166992 -23 0.5s-14 1.83301 -24 4.5l-8 17
c8 -1.33301 14.333 -2.16602 19 -2.49902s9 -0.5 13 -0.5c8 0 16.5 0.5 25.5 1.5s17.167 2.5 24.5 4.5l21.5 5.5c9 2.33301 18.667 5 29 8s20.666 6.5 30.999 10.5s19.166 8.33301 26.499 13c6.66699 2.66699 11 7.33398 13 14.001
c0.666992 1.33301 2.83398 4.5 6.50098 9.5s8.16699 11.5 13.5 19.5c11.333 19.333 24.5 35 39.5 47s28.5 18 40.5 18c15.333 0 26 -5.66699 32 -17c10 -14.667 -5.66699 -37 -47 -67l-55 -34c-4 -10 -7.16699 -17.333 -9.5 -22s-4.5 -11 -6.5 -19
c-2 -13.333 -4.5 -31 -7.5 -53s-4.16699 -52.667 -3.5 -92l3 -8c20 -7.33301 37.833 -14.5 53.5 -21.5s30.5 -14.833 44.5 -23.5s28 -18.5 42 -29.5s29 -23.833 45 -38.5c-6 81.333 -5 155.5 3 222.5s21.667 124.333 41 172s44.5 84.667 75.5 111s66.5 39.5 106.5 39.5
c26 0 50.667 -6.66699 74 -20s42.333 -31.666 57 -54.999c16.667 -27.333 22.667 -53.333 18 -78s-21 -44 -49 -58l-16 13c18.667 13.333 29 30.5 31 51.5s-4 42.167 -18 63.5c-11.333 19.333 -25.333 33.5 -42 42.5s-34.667 13.5 -54 13.5s-37.833 -4.83301 -55.5 -14.5
s-33.5 -23.167 -47.5 -40.5s-26.167 -38.5 -36.5 -63.5s-17.833 -52.5 -22.5 -82.5c-1.33301 -18 -2.5 -40.5 -3.5 -67.5s-1.5 -56.5 -1.5 -88.5s0.666992 -65.5 2 -100.5s4 -69.5 8 -103.5l11 -99c22 0.666992 41.167 2.5 57.5 5.5s30.5 8 42.5 15s22 16.167 30 27.5
s15 25 21 41l24 -17c-6.66699 -17.333 -13 -30.333 -19 -39s-14 -17.334 -24 -26.001c-14 -9.33301 -30.833 -16.5 -50.5 -21.5s-44.834 -7.5 -75.501 -7.5c0 -17.333 -2.16699 -29.166 -6.5 -35.499s-12.5 -9.5 -24.5 -9.5c-16.667 0 -29 6.33301 -37 19
c-3.33301 5.33301 -5.5 10.166 -6.5 14.499s-0.833008 10.166 0.5 17.499zM457.004 75.999c28 -4.66699 42.002 -6.33398 42.002 -5.00098l-7 110c-10.667 13.333 -25.5 27.166 -44.5 41.499s-38.5 27.333 -58.5 39s-38.167 21.334 -54.5 29.001s-26.833 11.5 -31.5 11.5
c-0.666992 -8.66699 -1.16699 -19.167 -1.5 -31.5s-0.833008 -25.166 -1.5 -38.499s-1.5 -26.333 -2.5 -39s-2.16699 -23 -3.5 -31c-0.666992 -3.33301 -1.33398 -7.33301 -2.00098 -12l-2 -13.5c-0.666992 -4.33301 -1.33398 -7.83301 -2.00098 -10.5l-1 -4
c28 -9.33301 57 -18.333 87 -27s57.667 -15 83 -19z" />
    <glyph glyph-name="afii10032" unicode="&#x41e;" horiz-adv-x="525" 
d="M400 144c4.66699 11.333 8.6709 23.6709 12.0039 37.0039s5.66602 25.666 6.99902 36.999c4.66699 24.667 6.83398 51.667 6.50098 81s-3 58.166 -8 86.499s-12 55.333 -21 81s-19.167 47.5 -30.5 65.5c-11.333 16.667 -22.833 29 -34.5 37s-25.167 12 -40.5 12
c-20.667 0 -39.334 -8.66699 -56.001 -26s-31.334 -39.666 -44.001 -66.999c-4.66699 -13.333 -8.33398 -27.5 -11.001 -42.5l-8 -44.5l-26 12c-0.666992 19.333 1 38.333 5 57s10 35.667 18 51c15.333 28 33.5 51 54.5 69s44.833 27 71.5 27c26 0 48.667 -5 68 -15
s38.666 -26 57.999 -48c6 5.33301 8.33301 13 7 23s-5.66602 20.333 -12.999 31c-13.333 21.333 -31.666 38.166 -54.999 50.499s-48 18.5 -74 18.5c-30 0 -58 -9.16699 -84 -27.5s-48.667 -43.166 -68 -74.499c-19.333 -42.667 -32.166 -87.834 -38.499 -135.501
s-8 -93.5 -5 -137.5s9.66699 -84.167 20 -120.5s22.166 -64.833 35.499 -85.5c27.333 -44 64.333 -66 111 -66c16.667 0 32.667 3.83301 48 11.5s29.166 17.167 41.499 28.5s23.166 23.666 32.499 36.999s16.333 25.666 21 36.999zM444.004 133.005
c-26 -46 -54.665 -79.3379 -85.998 -100.005s-65 -31.667 -101 -33c-41.333 0 -79.333 10.5 -114 31.5s-64.667 51.5 -90 91.5c-16.667 25.333 -29.667 56 -39 92s-14 73.667 -14 113s4.83301 79 14.5 119s25.167 77 46.5 111c13.333 22 30 42 50 60s41.167 33.333 63.5 46
s44.666 22.334 66.999 29.001s42.5 10 60.5 10c30 0 56.833 -5.66699 80.5 -17s42.834 -28.666 57.501 -51.999c12.667 -19.333 18.667 -37.666 18 -54.999s-8.33398 -31.666 -23.001 -42.999c24 -39.333 40 -81.5 48 -126.5s7.33301 -95.833 -2 -152.5l-7 -36
c-2 -10.667 -4.33301 -20.667 -7 -30s-5.83398 -18.666 -9.50098 -27.999s-8.16699 -19.333 -13.5 -30z" />
    <glyph glyph-name="afii10033" unicode="&#x41f;" horiz-adv-x="795" 
d="M217 421c-1.33301 28 -4.49902 51.668 -9.49902 71.001s-11.167 34.333 -18.5 45c-12 17.333 -27.167 30.666 -45.5 39.999s-38.166 14 -59.499 14c-22 0 -40.833 -4.5 -56.5 -13.5s-30.167 -20.5 -43.5 -34.5c-12.667 -13.333 -22.167 -29 -28.5 -47s-9.5 -37 -9.5 -57
s3.16699 -40.167 9.5 -60.5s15.833 -39.166 28.5 -56.499c12 -17.333 24.333 -29.833 37 -37.5s25.334 -11.5 38.001 -11.5c18.667 0 33.5 8.33301 44.5 25s16.167 40 15.5 70l24 -13c2.66699 -78 -23.666 -117 -78.999 -117c-24.667 0 -49.167 8 -73.5 24
s-45.5 37 -63.5 63c-16 23.333 -27 48.333 -33 75s-6.33301 53 -1 79c4.66699 20.667 13 39.5 25 56.5s27 31.167 45 42.5s38.333 20.166 61 26.499s47 9.5 73 9.5c31.333 0 61.833 -7.83301 91.5 -23.5s54.5 -38.5 74.5 -68.5c8 -10.667 13.667 -20 17 -28
s6.66602 -18.333 9.99902 -31l7 16c24 43.333 50.333 76.333 79 99s58 34 88 34c23.333 0 47.5 -7 72.5 -21s45.5 -32.667 61.5 -56c5.33301 -8 10.5 -17.167 15.5 -27.5s8.5 -20.833 10.5 -31.5c2 -8.66699 3.5 -17.167 4.5 -25.5s1.5 -19.5 1.5 -33.5
s-0.666992 -32.833 -2 -56.5s-3.33301 -55.167 -6 -94.5c-2.66699 -28 -4.33398 -51.833 -5.00098 -71.5s-0.166992 -36.5 1.5 -50.5s4.33398 -26 8.00098 -36s8.5 -19.333 14.5 -28c9.33301 -14 20.166 -24.5 32.499 -31.5s23.833 -10.5 34.5 -10.5
c22 4.66699 43 18.834 63 42.501s38.667 55.5 56 95.5l28 -22l-26 -49c-9.33301 -17.333 -20.333 -33.333 -33 -48s-26.667 -27.167 -42 -37.5s-33 -15.833 -53 -16.5c-24.667 0 -49.834 7.5 -75.501 22.5s-47.5 35.5 -65.5 61.5c-18.667 26.667 -30 55.667 -34 87
s-4.33301 70 -1 116l5.5 76c1.66699 22.667 2.83398 45.667 3.50098 69c0.666992 31.333 0.166992 55 -1.5 71s-6.16699 29.333 -13.5 40c-8 11.333 -17 19.5 -27 24.5s-20.667 7.5 -32 7.5c-18.667 0 -38.667 -9.16699 -60 -27.5s-41 -42.166 -59 -71.499
c-9.33301 -15.333 -16 -29.333 -20 -42s-7 -30.667 -9 -54c-4 -18 -7 -39.333 -9 -64s-3.66699 -49.334 -5 -74.001c-1.33301 -21.333 -2.5 -38.833 -3.5 -52.5s-1.83301 -25.5 -2.5 -35.5s-1.33398 -18.667 -2.00098 -26l-2 -23
c-0.666992 -12 -1.83398 -24.333 -3.50098 -37s-4.33398 -24.167 -8.00098 -34.5s-8.16699 -19 -13.5 -26s-11.666 -10.5 -18.999 -10.5c-8 0 -16.167 2.16699 -24.5 6.5s-14.833 9.5 -19.5 15.5c-8 12 -12.667 32.167 -14 60.5s1.66699 60.5 9 96.5l9 49
c4.66699 23.333 8 51.666 10 84.999s3 69.333 3 108z" />
    <glyph glyph-name="afii10034" unicode="&#x420;" horiz-adv-x="619" 
d="M424 283c21.333 -6 41.001 -7.66895 59.001 -5.00195s33.333 5.66699 46 9c14 6 23.167 15.5 27.5 28.5s4.83301 28 1.5 45s-9.66602 35 -18.999 54s-20.666 37.833 -33.999 56.5l-13 17.5c-4.66699 6.33301 -9.33398 12 -14.001 17l-11.5 12.5
c-3 3.33301 -4.83301 5 -5.5 5c-18.667 -13.333 -32.334 -28.666 -41.001 -45.999c-10.667 -21.333 -15.5 -41.666 -14.5 -60.999s3.16699 -39.333 6.5 -60c2 -12 3.66699 -24.167 5 -36.5s3.66602 -24.5 6.99902 -36.5zM564.001 261.998
c-24.667 -9.33301 -49.3311 -12.9873 -73.998 -10.9873s-46 5.66699 -64 11l-3 -19.5c-2 -13 -5.83301 -29.333 -11.5 -49s-13.167 -40.834 -22.5 -63.501s-21.166 -43.667 -35.499 -63s-31 -35.5 -50 -48.5s-41.167 -19.5 -66.5 -19.5c-22 0 -43.833 2.33301 -65.5 7
s-42.167 11.5 -61.5 20.5s-37 20 -53 33s-29.667 27.5 -41 43.5c-14 20.667 -19.5 38 -16.5 52s13.833 21 32.5 21c17.333 0 35.166 -5 53.499 -15s33.5 -23.667 45.5 -41c9.33301 -13.333 13.166 -25.333 11.499 -36s-7.16699 -16.667 -16.5 -18
c-5.33301 0 -8.16602 -1 -8.49902 -3s0.166992 -4.66699 1.5 -8c7.33301 -9.33301 21.5 -17.333 42.5 -24s42.833 -10 65.5 -10c37.333 0 65.666 10.667 84.999 32c6 7.33301 11.167 15.833 15.5 25.5s8 22.167 11 37.5s5.16699 34.166 6.5 56.499
s2.66602 49.5 3.99902 81.5l1 32c-36 16 -67.167 33.667 -93.5 53s-47.833 41 -64.5 65c-9.33301 13.333 -15.666 26 -18.999 38s-5.66602 24.667 -6.99902 38l22 -9c2 -11.333 5.16699 -22.5 9.5 -33.5s10.833 -21.167 19.5 -30.5c6 -10 16.5 -20.833 31.5 -32.5
s30.167 -22.5 45.5 -32.5s28.666 -18.333 39.999 -25s17 -9.66699 17 -9v27v13v13.5c0 5.66699 0.333008 15.5 1 29.5c1.33301 24.667 6 44.834 14 60.501s15 27.834 21 36.501c8 11.333 16.5 21.166 25.5 29.499s19.167 17.166 30.5 26.499c-24 24 -52 45.667 -84 65
s-62.667 36 -92 50c-8 4 -19.5 8.66699 -34.5 14s-32.167 10.5 -51.5 15.5s-40.666 9.16699 -63.999 12.5s-47.666 4.66602 -72.999 3.99902c-50 -1.33301 -91.5 -10 -124.5 -26s-56.333 -37.667 -70 -65s-17 -59.333 -10 -96s25.5 -76.334 55.5 -119.001
c14.667 -20.667 31.167 -39.834 49.5 -57.501s37.666 -33 57.999 -46s41.333 -23.833 63 -32.5s43.5 -14.334 65.5 -17.001l7 -16c-59.333 6.66699 -115.666 26.5 -168.999 59.5s-98.666 75.833 -135.999 128.5c-30.667 43.333 -48.334 83.666 -53.001 120.999
s2.33301 69.666 21 96.999s48 48.833 88 64.5s89.667 23.5 149 23.5c35.333 0 69.833 -2 103.5 -6s66.5 -10.667 98.5 -20c22.667 -6.66699 48 -17.334 76 -32.001s54.333 -29.334 79 -44.001s45.5 -27.5 62.5 -38.5s25.833 -16.5 26.5 -16.5
c16 5.33301 30 9.16602 42 11.499s25.667 3.16602 41 2.49902c11.333 -0.666992 21.5 -1.83398 30.5 -3.50098s18 -4.5 27 -8.5s18.5 -9.33301 28.5 -16s21.667 -15 35 -25l-4 -5c-12.667 6.66699 -23.5 12.167 -32.5 16.5s-17.167 8 -24.5 11s-15 5.33301 -23 7
s-17.333 3.16699 -28 4.5s-21.334 0.5 -32.001 -2.5s-22.334 -7.16699 -35.001 -12.5l25 -23c7.33301 -6.66699 13.833 -13.167 19.5 -19.5l16.5 -19c5.33301 -6.33301 10.666 -13.5 15.999 -21.5c36 -51.333 51.667 -94.5 47 -129.5s-27.667 -59.167 -69 -72.5z" />
    <glyph glyph-name="afii10035" unicode="&#x421;" horiz-adv-x="538" 
d="M328 579c-25.333 -11.333 -41.3379 -27.8301 -48.0049 -49.4971s-4 -45.5 8 -71.5c9.33301 -19.333 23.833 -34.833 43.5 -46.5s41.167 -17.5 64.5 -17.5c10.667 0 21.667 1.33301 33 4s21.666 7.33398 30.999 14.001c12.667 10 23.334 21.667 32.001 35
s14.834 27.666 18.501 42.999s4.66699 31.166 3 47.499s-6.16699 32.166 -13.5 47.499c-15.333 32 -38.166 57.333 -68.499 76s-64.833 28 -103.5 28c-39.333 0 -75.666 -9.66699 -108.999 -29s-63.666 -47 -90.999 -83c-20.667 -29.333 -37.5 -61.166 -50.5 -95.499
s-22 -69.166 -27 -104.499s-5.66699 -70.166 -2 -104.499s12.167 -65.5 25.5 -93.5c21.333 -46 53.333 -82.167 96 -108.5s91 -39.5 145 -39.5c40 0 75.833 6.16699 107.5 18.5s58.5 25.666 80.5 39.999s39 27.5 51 39.5s18.333 18 19 18l11.5 -7.5l11.5 -7.5
c-10 -15.333 -25 -30.833 -45 -46.5s-43 -30 -69 -43s-54.333 -23.5 -85 -31.5s-62 -12 -94 -12c-75.333 0 -140.666 16.167 -195.999 48.5s-97.333 79.833 -126 142.5c-43.333 92 -39.333 190.667 12 296c16 34 36 64.667 60 92s50.5 50.666 79.5 69.999
s59.833 34.166 92.5 44.499s65.667 15.5 99 15.5c24 0 47.833 -3.33301 71.5 -10s45.667 -15.834 66 -27.501s38.333 -25.5 54 -41.5s27.834 -33.333 36.501 -52c12 -25.333 16.833 -50.5 14.5 -75.5s-10.833 -47.5 -25.5 -67.5c-15.333 -18.667 -35.833 -33.667 -61.5 -45
s-52.167 -17 -79.5 -17c-34 0 -64.333 7.66699 -91 23s-46.334 36.333 -59.001 63c-13.333 30 -14.333 56.167 -3 78.5s35 41.833 71 58.5z" />
    <glyph glyph-name="afii10036" unicode="&#x422;" horiz-adv-x="1196" 
d="M672 190c-0.666992 -14 -0.834961 -27.0059 -0.501953 -39.0059s0.166016 -21.333 -0.500977 -28c0 -22.667 -1 -41.5 -3 -56.5s-4.66699 -27.167 -8 -36.5s-7.83301 -16 -13.5 -20s-12.5 -6 -20.5 -6c-10 0 -18 1.66699 -24 5s-12 9.33301 -18 18
c-6 8 -10.5 19.333 -13.5 34s-4.66699 32 -5 52s0.666992 42 3 66s5.83301 49.333 10.5 76c2 10 3.33301 19.667 4 29s1 20 1 32s-0.166992 26 -0.5 42s-0.833008 35 -1.5 57c-0.666992 19.333 -1 36.333 -1 51s-0.666992 26.667 -2 36c-1.33301 12.667 -3 25.334 -5 38.001
s-6 23.334 -12 32.001c-16 23.333 -37 35 -63 35c-28 0 -58.333 -21 -91 -63c-11.333 -15.333 -21.333 -30.166 -30 -44.499s-16 -29.5 -22 -45.5s-10.833 -33.167 -14.5 -51.5s-5.83398 -38.833 -6.50098 -61.5l-6 -157c-1.33301 -66 -6.5 -113 -15.5 -141
s-20.833 -42 -35.5 -42c-8 0 -16.5 2.66699 -25.5 8s-16.167 11.333 -21.5 18c-4 6 -7.33301 15.333 -10 28s-4.16699 26.667 -4.5 42s0.333984 31.333 2.00098 48s4.5 32.667 8.5 48l11 49c4 16.667 6.33301 35.334 7 56.001s1.33398 37 2.00098 49
c0.666992 21.333 1.16699 39.5 1.5 54.5s0 28.333 -1 40s-2.16699 22.167 -3.5 31.5s-3 19 -5 29c-9.33301 40.667 -25.333 77.334 -48 110.001c-14.667 20.667 -31 36.334 -49 47.001s-36.667 16 -56 16c-40 0 -73.667 -10.333 -101 -31s-43.666 -48.667 -48.999 -84
c-3.33301 -28 -2.33301 -56.333 3 -85s16.666 -55 33.999 -79c11.333 -16 24 -28.667 38 -38s28.333 -14 43 -14c16 0 29.167 9 39.5 27s17.5 42.333 21.5 73l23 -12c1.33301 -39.333 -5.16699 -69.166 -19.5 -89.499s-36.833 -30.5 -67.5 -30.5
c-24 0 -48.833 7.5 -74.5 22.5s-48.167 36.5 -67.5 64.5c-22 32 -34.333 66.667 -37 104s5.33301 72 24 104c16.667 30 42 53.167 76 69.5s71 24.5 111 24.5c77.333 0 141 -35.333 191 -106c12.667 -17.333 23.334 -35.833 32.001 -55.5s14.667 -37.5 18 -53.5
c52.667 102.667 113.334 154 182.001 154c25.333 0 49.666 -6.83301 72.999 -20.5s44.333 -33.5 63 -59.5c7.33301 -11.333 13.166 -21.833 17.499 -31.5s7.5 -21.834 9.5 -36.501c57.333 96 120 144 188 144c24.667 0 48.5 -6.83301 71.5 -20.5s42.833 -32.167 59.5 -55.5
c9.33301 -14 16.666 -28.333 21.999 -43s9 -32.5 11 -53.5s2.33301 -46.167 1 -75.5s-4 -65 -8 -107c-4 -52 -4.33301 -92.667 -1 -122s10.666 -52.333 21.999 -69c20 -29.333 44.333 -44 73 -44c9.33301 0 21 6.83301 35 20.5s27.5 28.667 40.5 45s24 31.5 33 45.5l13.5 21
l27 -20l-6.5 -11.5c-4.33301 -7.66699 -10.333 -17.167 -18 -28.5s-17 -23.5 -28 -36.5s-22.667 -25.167 -35 -36.5s-25.333 -21 -39 -29s-27.5 -12 -41.5 -12c-24.667 -0.666992 -49.667 7.33301 -75 24s-48.333 40 -69 70c-15.333 22.667 -25.166 47.167 -29.499 73.5
s-4.83301 58.166 -1.5 95.499l8 80c3.33301 38 5.33301 69.5 6 94.5s0.333984 45.833 -0.999023 62.5s-3.66602 29.834 -6.99902 39.501s-7.33301 18.167 -12 25.5c-16 23.333 -36.333 35 -61 35c-16 0 -32.167 -5.5 -48.5 -16.5s-32.166 -26.167 -47.499 -45.5
s-29.5 -42 -42.5 -68s-23.5 -54 -31.5 -84z" />
    <glyph glyph-name="afii10037" unicode="&#x423;" horiz-adv-x="642" 
d="M275 -396c-4.66699 -8 -9.99902 -18.1689 -15.999 -30.502l-18 -38.5c-6 -13.333 -11.5 -27 -16.5 -41s-8.5 -27 -10.5 -39c-11.333 -43.333 -16.833 -79.166 -16.5 -107.499s7.5 -52.5 21.5 -72.5c7.33301 -10.667 17.333 -19.5 30 -26.5s25.667 -10.5 39 -10.5
c23.333 0 43.333 8.33301 60 25s29.667 40.334 39 71.001l22 92c7.33301 31.333 13 63.833 17 97.5s6.66699 64.5 8 92.5l3 111l3 80c-28 -28 -57.333 -59.833 -88 -95.5s-56.334 -71.5 -77.001 -107.5zM260.001 -343.002l46.5078 55.002
c14.333 17.333 30.166 34.666 47.499 51.999l49 50.5c13.333 13.667 22.666 24.834 27.999 33.501c1.33301 0 2.5 1 3.5 3s2.5 4.33301 4.5 7c2 8 3.5 14.667 4.5 20s1.66699 11.5 2 18.5s0.166016 16 -0.500977 27s-1.33398 25.833 -2.00098 44.5
c0 13.333 -0.166992 29.833 -0.5 49.5s0.166992 40.834 1.5 63.501c-0.666992 18.667 -0.833984 34 -0.500977 46s0.5 22.5 0.5 31.5s-0.166992 17.667 -0.5 26s-0.833008 18.5 -1.5 30.5c-20.667 -57.333 -45.667 -103 -75 -137s-58 -51 -86 -51
c-20.667 0 -39.667 5.66699 -57 17s-33 27 -47 47c-8 11.333 -14.667 22.166 -20 32.499s-8 20.166 -8 29.499c-3.33301 12.667 -5.5 24 -6.5 34s-1.5 19.833 -1.5 29.5s0.333008 20 1 31s1 23.5 1 37.5l5 92c0.666992 20.667 1.16699 38.834 1.5 54.501
s0.333008 30.334 0 44.001s-0.833008 26.5 -1.5 38.5s-1.66699 24.333 -3 37c-3.33301 39.333 -9.83301 74 -19.5 104s-23.167 57 -40.5 81c-23.333 34 -50.5 60.833 -81.5 80.5s-61.833 29.5 -92.5 29.5c-25.333 0 -47.333 -5 -66 -15s-32.667 -23.667 -42 -41
c-7.33301 -12.667 -12.166 -27.334 -14.499 -44.001s-2.66602 -34 -0.999023 -52s5.66699 -36.167 12 -54.5s15.166 -35.166 26.499 -50.499c17.333 -24.667 37.166 -43.5 59.499 -56.5s46.833 -19.5 73.5 -19.5c13.333 0 23.333 2.16699 30 6.5s12.667 11.166 18 20.499
l17 -15c-5.33301 -13.333 -12 -22.166 -20 -26.499s-21.333 -6.5 -40 -6.5c-32.667 0 -64.5 9.33301 -95.5 28s-57.167 43.334 -78.5 74.001c-11.333 16 -21.333 34 -30 54s-14.334 39.333 -17.001 58c-8 50.667 1.33301 90 28 118s66 42 118 42c93.333 0 176 -51 248 -153
c13.333 -19.333 25.333 -38.166 36 -56.499s18.334 -35.5 23.001 -51.5c14.667 -40 25.667 -85.333 33 -136s10 -100.334 8 -149.001l-5 -143c-1.33301 -21.333 -0.166016 -40.166 3.50098 -56.499s8.16699 -28.833 13.5 -37.5c12 -16 25 -24 39 -24
c6.66699 0 14.167 2.83301 22.5 8.5s17 13.5 26 23.5s17.667 21.833 26 35.5s15.833 28.167 22.5 43.5c5.33301 8 10.5 18.333 15.5 31l18.5 47c5.33301 13.333 9.66602 23.833 12.999 31.5s6 17.167 8 28.5c1.33301 8.66699 1.83301 19.167 1.5 31.5
s-0.833008 26.5 -1.5 42.5c-2 60.667 -1 102 3 124c2.66699 17.333 8.5 31 17.5 41s19.5 15 31.5 15c5.33301 0 10.166 -1.16699 14.499 -3.5s7.16602 -4.83301 8.49902 -7.5c8 -11.333 11.667 -24 11 -38c-1.33301 -6.66699 -2.5 -12.834 -3.5 -18.501
s-1.83301 -11.834 -2.5 -18.501c-0.666992 -1.33301 -1.83398 -5.5 -3.50098 -12.5l-7.5 -30.5l-2 -10.5c-0.666992 -3.66699 -1.33398 -8.16699 -2.00098 -13.5l-1 -14v-188l7 -198l-1 -79c27.333 30 55.666 64.167 84.999 102.5s53.333 83.5 72 135.5l27 -13l-9 -23
c-9.33301 -24.667 -20.5 -47.667 -33.5 -69s-30.5 -46.666 -52.5 -75.999l-39.5 -46.5l-34.5 -39.5l-12 -11l1 -108c0 -11.333 -0.666992 -25.833 -2 -43.5s-3 -36.834 -5 -57.501l-6.5 -64.5c-2.33301 -22.333 -4.83301 -43.833 -7.5 -64.5l-20.5 -96.5
c-6.33301 -28.333 -14.833 -56.166 -25.5 -83.499c-4.66699 -10.667 -10.167 -22.334 -16.5 -35.001s-12.666 -24.667 -18.999 -36s-12.666 -21.833 -18.999 -31.5s-12.166 -16.834 -17.499 -21.501c-12.667 -10.667 -27.5 -19 -44.5 -25s-33.5 -9 -49.5 -9
c-21.333 0 -43 6.16699 -65 18.5s-40.667 29.166 -56 50.499c-12.667 17.333 -21.167 38.166 -25.5 62.499s-2.83301 49.166 4.5 74.499c9.33301 36.667 21.666 71.667 36.999 105c11.333 22 23.833 43.833 37.5 65.5s29.167 43.834 46.5 66.501z" />
    </font>
</defs>
</svg>
